<?xml version="1.0" encoding="UTF-8" standalone="no"?>
<svg width="9px" height="15px" viewBox="0 0 9 15" version="1.1" xmlns="http://www.w3.org/2000/svg" xmlns:xlink="http://www.w3.org/1999/xlink">
    <!-- Generator: Sketch 49.1 (51147) - http://www.bohemiancoding.com/sketch -->
    <title>others/download_icon</title>
    <desc>Created with Sketch.</desc>
    <defs></defs>
    <g id="library" stroke="none" stroke-width="1" fill="none" fill-rule="evenodd">
        <g id="others/download_icon" transform="translate(-1.000000, -1.000000)" fill="#806734">
            <g transform="translate(1.000000, 1.000000)">
                <path d="M4.94747844,11.1926857 L8.27753395,8.35611429 C8.55326796,8.12114286 8.5759641,7.72114286 8.32727231,7.46057143 C8.08002921,7.20091429 7.65652882,7.17942857 7.38176061,7.41348571 L5.16961091,9.29737143 L5.16961091,0.634057143 C5.16961091,0.283428571 4.86973207,0 4.49935032,0 C4.12993436,0 3.83005552,0.283428571 3.83005552,0.634057143 L3.83005552,9.29737143 L1.61742292,7.41348571 C1.34265471,7.17942857 0.91915432,7.20091429 0.671911219,7.46057143 C0.556498912,7.58217143 0.5,7.73394286 0.5,7.8848 C0.5,8.05851429 0.574848986,8.23085714 0.721649577,8.35611429 L4.05170509,11.1926857 C4.30667454,11.4102857 4.69299189,11.4102857 4.94747844,11.1926857" id="Fill-1"></path>
                <path d="M8.31021046,14.9857143 L0.690155258,14.9857143 C0.308830511,14.9857143 0.000182857143,14.6497143 0.000182857143,14.2357143 C0.000182857143,13.8217143 0.308830511,13.4857143 0.690155258,13.4857143 L8.31021046,13.4857143 C8.69107522,13.4857143 9.00018286,13.8217143 9.00018286,14.2357143 C9.00018286,14.6497143 8.69107522,14.9857143 8.31021046,14.9857143" id="Fill-3"></path>
            </g>
        </g>
    </g>
</svg>