<?xml version="1.0" standalone="no"?><!-- Generator: Gravit.io --><svg xmlns="http://www.w3.org/2000/svg" xmlns:xlink="http://www.w3.org/1999/xlink" style="isolation:isolate" viewBox="0 0 64 64" width="64px" height="64px"><defs><clipPath id="_clipPath_En6HKgG2RqfrgjLCn7kvPbLSCdU7G4GG"><rect width="64" height="64"/></clipPath></defs><g clip-path="url(#_clipPath_En6HKgG2RqfrgjLCn7kvPbLSCdU7G4GG)"><g><g><g><g><path d=" M 14.083 52.795 L 49.62 52.795 L 49.62 23.4 L 14.083 23.4 L 14.083 52.795 Z  M 11.068 55.81 L 52.635 55.81 L 52.635 20.385 L 11.068 20.385 L 11.068 55.81 Z " fill-rule="evenodd" fill="rgb(0,156,222)"/><path d=" M 50.14 8.667 L 50.14 11.65 L 58.972 11.65 L 58.972 59.017 L 5.03 59.017 L 5.03 11.65 L 13.557 11.65 L 13.557 8.667 L 2 8.667 L 2 62 L 62 62 L 62 8.667 L 50.14 8.667 Z " fill-rule="evenodd" fill="rgb(0,156,222)"/><g><path d=" M 17.739 5.015 C 16.375 5.015 15.267 6.125 15.267 7.487 L 15.267 11.713 C 15.267 13.077 16.375 14.185 17.739 14.185 C 19.102 14.185 20.21 13.077 20.21 11.713 L 20.21 7.487 C 20.21 6.125 19.102 5.015 17.739 5.015 Z  M 17.739 17.202 C 14.714 17.202 12.252 14.738 12.252 11.713 L 12.252 7.487 C 12.252 4.462 14.714 2 17.739 2 C 20.764 2 23.225 4.462 23.225 7.487 L 23.225 11.713 C 23.225 14.738 20.764 17.202 17.739 17.202 Z " fill-rule="evenodd" fill="rgb(0,156,222)"/><path d=" M 45.922 5.015 C 44.559 5.015 43.449 6.125 43.449 7.487 L 43.449 11.713 C 43.449 13.077 44.559 14.185 45.922 14.185 C 47.286 14.185 48.394 13.077 48.394 11.713 L 48.394 7.487 C 48.394 6.125 47.286 5.015 45.922 5.015 Z  M 45.922 17.202 C 42.897 17.202 40.436 14.738 40.436 11.713 L 40.436 7.487 C 40.436 4.462 42.897 2 45.922 2 C 48.947 2 51.409 4.462 51.409 7.487 L 51.409 11.713 C 51.409 14.738 48.947 17.202 45.922 17.202 Z " fill-rule="evenodd" fill="rgb(0,156,222)"/><path d=" M 22 11.682 L 42.223 11.682 L 42.223 8.667 L 22 8.667 L 22 11.682 Z " fill-rule="evenodd" fill="rgb(0,156,222)"/></g></g><path d=" M 39.425 36.228 C 39.425 38.63 38.6 40.307 36.95 41.261 C 36.345 41.627 35.639 41.889 34.833 42.045 C 34.026 42.2 33.118 42.278 32.11 42.278 L 29.828 42.278 L 29.828 47.833 L 26.005 47.833 L 26.005 33.121 L 24.328 33.121 L 24.328 30.426 L 31.45 30.426 C 32.605 30.426 33.641 30.49 34.558 30.618 C 35.474 30.747 36.281 31.003 36.978 31.388 C 37.748 31.81 38.348 32.406 38.779 33.176 C 39.21 33.946 39.425 34.963 39.425 36.228 Z  M 35.493 36.311 C 35.493 35.724 35.401 35.211 35.218 34.771 C 35.034 34.331 34.741 33.982 34.338 33.726 C 33.971 33.487 33.581 33.327 33.169 33.244 C 32.756 33.162 32.211 33.121 31.533 33.121 L 29.828 33.121 L 29.828 39.666 L 31.588 39.666 C 32.211 39.666 32.765 39.615 33.251 39.515 C 33.737 39.414 34.145 39.24 34.475 38.992 C 34.805 38.744 35.057 38.401 35.231 37.961 C 35.405 37.521 35.493 36.971 35.493 36.311 Z " fill-rule="evenodd" fill="rgb(0,156,222)"/></g></g></g></g></svg>