<?xml version="1.0" encoding="UTF-8" standalone="no"?><!-- Generator: Gravit.io --><svg xmlns="http://www.w3.org/2000/svg" xmlns:xlink="http://www.w3.org/1999/xlink" style="isolation:isolate" viewBox="0 0 64 64" width="64pt" height="64pt"><defs><clipPath id="_clipPath_Qyg5I90VttMBOV9mFwheNqs3c1CN7YMJ"><rect width="64" height="64"/></clipPath></defs><g clip-path="url(#_clipPath_Qyg5I90VttMBOV9mFwheNqs3c1CN7YMJ)"><path d=" M 48.17 19.397 C 48.17 19.661 48.081 19.885 47.907 20.068 C 47.731 20.252 47.511 20.343 47.246 20.343 C 46.981 20.343 46.754 20.252 46.566 20.068 C 46.378 19.885 46.284 19.661 46.284 19.397 C 46.284 19.132 46.376 18.908 46.559 18.725 C 46.743 18.541 46.968 18.45 47.233 18.45 C 47.498 18.45 47.721 18.541 47.901 18.725 C 48.079 18.908 48.17 19.132 48.17 19.397 Z  M 48.876 27.048 C 48.756 27.134 48.595 27.208 48.394 27.273 C 48.193 27.336 47.977 27.368 47.747 27.368 C 47.233 27.368 46.87 27.223 46.656 26.933 C 46.57 26.814 46.51 26.669 46.476 26.498 C 46.442 26.328 46.424 26.14 46.424 25.935 L 46.424 22.288 L 45.681 22.288 L 45.681 21.086 L 48.131 21.086 L 48.131 25.859 C 48.131 26.114 48.234 26.242 48.439 26.242 C 48.516 26.242 48.604 26.226 48.702 26.191 C 48.8 26.157 48.876 26.119 48.927 26.075 L 48.876 27.048 Z " fill-rule="evenodd" fill="rgb(0,156,222)"/><path d=" M 47.304 14.032 C 42.396 14.032 38.403 18.014 38.403 22.909 C 38.403 27.804 42.396 31.786 47.304 31.786 C 52.211 31.786 56.204 27.804 56.204 22.909 C 56.204 18.014 52.211 14.032 47.304 14.032 Z  M 47.304 34.345 C 40.981 34.345 35.837 29.215 35.837 22.909 C 35.837 16.603 40.981 11.472 47.304 11.472 C 53.626 11.472 58.77 16.603 58.77 22.909 C 58.77 29.215 53.626 34.345 47.304 34.345 Z " fill-rule="evenodd" fill="rgb(0,156,222)"/><path d=" M 5.084 31.656 L 5.084 39.23 C 8.455 39.119 16.025 39.297 20.474 42.738 L 22.008 43.931 C 26.021 47.052 28.919 49.309 30.794 49.309 C 31.479 49.309 32.831 49.339 34.509 49.377 C 38.882 49.475 47.023 49.661 48.727 49.336 C 50.648 48.971 57.881 43.676 58.843 42.62 C 58.929 42.526 58.921 42.438 58.904 42.404 C 58.88 42.354 58.749 42.323 58.584 42.328 C 58.316 42.336 56.643 42.521 49.995 45.299 C 48.009 46.129 43.469 45.511 41.46 44.991 C 40.13 45.564 38.566 45.375 37.359 44.785 C 36.233 44.236 28.551 38.767 26.223 37.104 L 28.048 34.678 C 32.698 38.003 38.028 41.732 38.743 42.097 C 38.792 42.122 40.042 42.719 40.607 41.893 C 40.787 41.627 41.126 41.132 39.951 40.216 C 38.648 39.2 32.47 34.297 29.96 32.146 C 27.773 30.275 23.956 29.757 21.528 30.337 C 18.781 30.993 10.173 32.034 5.084 31.656 Z  M 2 42.482 L 2 28.101 L 3.854 28.473 C 7.637 29.233 17.935 28.098 20.795 27.416 C 24.025 26.644 28.909 27.245 31.995 29.886 C 34.427 31.97 40.631 36.895 41.878 37.867 C 43.544 39.167 44.199 40.819 43.736 42.391 C 45.547 42.675 48.011 42.856 48.78 42.534 C 56.297 39.393 57.941 39.339 58.482 39.322 C 59.906 39.276 61.138 39.967 61.696 41.126 C 62.25 42.276 62.035 43.647 61.149 44.618 C 60.081 45.789 52.326 51.715 49.317 52.288 C 47.441 52.645 41.207 52.537 34.438 52.384 C 32.791 52.347 31.464 52.316 30.794 52.316 C 27.84 52.316 24.755 49.916 20.085 46.281 L 18.557 45.095 C 13.796 41.413 3.791 42.312 3.692 42.322 L 2 42.482 Z " fill-rule="evenodd" fill="rgb(0,156,222)"/></g></svg>