<?xml version="1.0" encoding="UTF-8" standalone="no"?><!-- Generator: Gravit.io --><svg xmlns="http://www.w3.org/2000/svg" xmlns:xlink="http://www.w3.org/1999/xlink" style="isolation:isolate" viewBox="0 0 64 64" width="64pt" height="64pt"><defs><clipPath id="_clipPath_Ycbpai5qNCY2dUYgU3jbOITSb73GxFpn"><rect width="64" height="64"/></clipPath></defs><g clip-path="url(#_clipPath_Ycbpai5qNCY2dUYgU3jbOITSb73GxFpn)"><g><g><g><path d=" M 8.629 52.081 L 55.371 52.081 L 55.371 51.448 C 55.132 51.214 54.854 50.942 54.457 50.554 C 52.462 48.606 51.582 47.725 50.53 46.593 C 49.824 45.829 49.468 44.661 49.457 43.557 C 49.428 40.872 49.423 38.728 49.427 33.904 C 49.428 31.81 49.428 30.88 49.427 29.716 C 49.417 20.678 45.133 14.701 36.581 11.782 C 36.355 11.705 36.168 11.631 35.815 11.487 L 34.764 11.068 L 34.764 9.936 C 34.764 9.749 34.765 9.599 34.77 9.282 C 34.777 8.726 34.778 8.492 34.768 8.209 C 34.764 8.115 34.764 8.115 34.759 8.016 C 34.677 6.413 33.553 5.328 32.02 5.339 C 30.446 5.328 29.319 6.415 29.237 8.015 C 29.233 8.108 29.233 8.108 29.23 8.203 C 29.221 8.482 29.222 8.712 29.23 9.259 C 29.235 9.587 29.236 9.742 29.236 9.936 L 29.236 11.073 L 28.179 11.49 C 27.834 11.629 27.64 11.706 27.462 11.768 C 18.868 14.7 14.582 20.677 14.57 29.716 C 14.569 30.812 14.57 31.689 14.572 33.663 C 14.579 38.607 14.575 40.805 14.543 43.557 C 14.531 44.668 14.177 45.833 13.467 46.597 C 12.418 47.725 11.538 48.606 9.603 50.495 C 9.146 50.942 8.868 51.214 8.629 51.448 L 8.629 52.081 Z  M 52.765 29.712 C 52.767 30.878 52.767 31.81 52.765 33.906 C 52.762 38.717 52.766 40.853 52.796 43.52 C 52.799 43.87 52.917 44.257 52.979 44.324 C 53.979 45.4 54.832 46.254 56.729 48.106 C 57.484 48.843 57.817 49.17 58.215 49.563 L 58.71 50.053 L 58.71 55.42 L 5.29 55.42 L 5.29 50.053 L 5.785 49.563 C 6.183 49.17 6.516 48.843 7.21 48.165 C 9.168 46.254 10.021 45.4 11.022 44.323 C 11.085 44.255 11.201 43.873 11.204 43.519 C 11.236 40.787 11.24 38.598 11.234 33.668 C 11.231 31.692 11.23 30.813 11.231 29.712 C 11.245 19.412 16.276 12.233 25.885 8.783 C 25.884 8.514 25.886 8.324 25.893 8.099 C 25.897 7.973 25.897 7.973 25.903 7.845 C 26.075 4.475 28.666 1.977 31.98 2 C 35.333 1.977 37.921 4.475 38.093 7.837 C 38.1 7.966 38.1 7.966 38.105 8.092 C 38.113 8.32 38.115 8.512 38.114 8.781 C 47.723 12.231 52.755 19.412 52.765 29.712 Z " fill="rgb(0,156,222)"/><path d=" M 36.598 53.752 L 40.154 53.752 C 40.154 58.306 36.46 62 31.906 62 C 27.349 62 23.654 58.307 23.654 53.752 L 27.21 53.752 C 27.21 55.723 28.426 57.411 30.151 58.106 C 30.693 58.324 31.285 58.444 31.906 58.444 C 34.496 58.444 36.598 56.342 36.598 53.752 Z " fill="rgb(0,156,222)"/></g></g></g></g></svg>