<?xml version="1.0" standalone="no"?><!-- Generator: Gravit.io --><svg xmlns="http://www.w3.org/2000/svg" xmlns:xlink="http://www.w3.org/1999/xlink" style="isolation:isolate" viewBox="0 0 64 64" width="64px" height="64px"><defs><clipPath id="_clipPath_cxe185Xo7mLDWFoYt38BeKNxZHjCyvL7"><rect width="64" height="64"/></clipPath></defs><g clip-path="url(#_clipPath_cxe185Xo7mLDWFoYt38BeKNxZHjCyvL7)"><g><g><path d=" M 40.517 56.981 L 60.49 56.981 L 60.49 51.256 L 59.962 50.734 C 59.538 50.314 59.183 49.966 58.378 49.18 C 56.355 47.205 55.444 46.293 54.378 45.146 C 54.311 45.074 54.186 44.662 54.182 44.288 C 54.166 42.866 54.157 41.585 54.153 40.018 C 54.148 38.452 54.148 36.599 54.15 34.033 C 54.151 31.797 54.152 30.803 54.15 29.56 L 54.15 29.56 L 54.15 29.56 C 54.139 18.572 48.772 10.913 38.522 7.233 C 38.523 6.946 38.52 6.741 38.512 6.499 C 38.506 6.364 38.506 6.364 38.499 6.227 C 38.316 2.64 35.556 -0.024 31.979 0 C 28.444 -0.024 25.68 2.64 25.497 6.235 C 25.49 6.372 25.49 6.372 25.486 6.506 C 25.478 6.746 25.476 6.948 25.478 7.235 C 15.228 10.915 9.862 18.573 9.847 29.56 C 9.846 30.733 9.847 31.671 9.849 33.779 C 9.856 39.038 9.852 41.372 9.818 44.287 C 9.814 44.665 9.691 45.072 9.623 45.145 C 8.556 46.293 7.645 47.205 5.558 49.243 C 4.817 49.966 4.462 50.314 4.038 50.734 L 3.51 51.256 L 3.51 56.981 L 23.278 56.981 C 24.101 60.987 27.648 64 31.899 64 C 36.148 64 39.694 60.986 40.517 56.981 Z " fill="none"/><path d=" M 36.579 56.981 L 27.216 56.981 C 27.934 58.867 29.76 60.207 31.899 60.207 C 34.036 60.207 35.861 58.867 36.579 56.981 Z " fill="rgb(0,156,222)"/><path d=" M 7.071 53.42 L 56.929 53.42 L 56.929 52.745 C 56.674 52.495 56.378 52.205 55.954 51.791 C 53.826 49.713 52.888 48.774 51.765 47.566 C 51.012 46.751 50.633 45.505 50.621 44.327 C 50.59 41.464 50.585 39.176 50.588 34.031 C 50.59 31.797 50.59 30.805 50.589 29.564 C 50.579 19.923 46.008 13.547 36.886 10.434 C 36.645 10.352 36.446 10.273 36.069 10.119 L 34.948 9.672 L 34.948 8.465 C 34.948 8.265 34.95 8.106 34.954 7.767 C 34.963 7.174 34.963 6.925 34.953 6.623 C 34.949 6.523 34.949 6.523 34.943 6.417 C 34.856 4.708 33.657 3.55 32.021 3.561 C 30.342 3.55 29.141 4.709 29.053 6.416 C 29.049 6.515 29.049 6.515 29.045 6.616 C 29.036 6.914 29.037 7.159 29.045 7.742 C 29.05 8.093 29.052 8.258 29.052 8.465 L 29.052 9.678 L 27.924 10.122 C 27.556 10.271 27.35 10.353 27.159 10.419 C 17.993 13.547 13.421 19.922 13.408 29.564 C 13.407 30.733 13.408 31.669 13.411 33.774 C 13.418 39.048 13.413 41.393 13.379 44.327 C 13.367 45.512 12.989 46.755 12.231 47.57 C 11.112 48.774 10.174 49.713 8.11 51.728 C 7.622 52.205 7.326 52.495 7.071 52.745 L 7.071 53.42 L 7.071 53.42 L 7.071 53.42 Z " fill="rgb(0,156,222)"/></g></g></g></svg>