<?xml version="1.0" encoding="UTF-8" standalone="no"?><!-- Generator: Gravit.io --><svg xmlns="http://www.w3.org/2000/svg" xmlns:xlink="http://www.w3.org/1999/xlink" style="isolation:isolate" viewBox="0 0 64 64" width="64pt" height="64pt"><defs><clipPath id="_clipPath_MatMaCIP52jhEtDOxcwVrxHl3nHgJnZz"><rect width="64" height="64"/></clipPath></defs><g clip-path="url(#_clipPath_MatMaCIP52jhEtDOxcwVrxHl3nHgJnZz)"><path d=" M 5.085 31.868 L 5.085 39.788 C 8.455 39.672 16.025 39.859 20.474 43.456 L 22.009 44.703 C 26.021 47.967 28.919 50.326 30.794 50.326 C 31.478 50.326 32.83 50.357 34.509 50.398 C 38.882 50.501 47.023 50.694 48.727 50.355 C 50.647 49.973 57.88 44.437 58.843 43.333 C 58.928 43.235 58.921 43.143 58.904 43.107 C 58.88 43.054 58.749 43.022 58.584 43.028 C 58.316 43.036 56.642 43.229 49.995 46.133 C 48.009 47.002 43.47 46.355 41.459 45.812 C 40.13 46.411 38.566 46.213 37.359 45.596 C 36.233 45.023 28.552 39.304 26.224 37.565 L 28.048 35.028 C 32.698 38.504 38.028 42.404 38.742 42.785 C 38.792 42.812 40.043 43.436 40.606 42.572 C 40.787 42.294 41.125 41.776 39.951 40.819 C 38.648 39.757 32.47 34.629 29.96 32.381 C 27.774 30.425 23.956 29.883 21.528 30.489 C 18.781 31.176 10.173 32.263 5.085 31.868 Z  M 2 43.188 L 2 28.151 L 3.854 28.541 C 7.637 29.335 17.936 28.149 20.795 27.435 C 24.025 26.628 28.909 27.257 31.994 30.018 C 34.427 32.197 40.631 37.347 41.878 38.363 C 43.544 39.722 44.199 41.45 43.736 43.093 C 45.547 43.391 48.011 43.58 48.78 43.243 C 56.297 39.958 57.941 39.902 58.482 39.884 C 59.906 39.836 61.138 40.558 61.696 41.771 C 62.25 42.973 62.035 44.406 61.149 45.422 C 60.081 46.646 52.326 52.842 49.318 53.441 C 47.441 53.815 41.208 53.702 34.438 53.542 C 32.791 53.503 31.465 53.47 30.794 53.47 C 27.839 53.47 24.755 50.961 20.085 47.16 L 18.557 45.92 C 13.796 42.07 3.792 43.011 3.692 43.021 L 2 43.188 Z " fill-rule="evenodd" fill="rgb(0,156,222)"/><path d=" M 48.159 26.747 L 52.182 28.903 L 51.414 24.336 L 54.668 21.101 L 50.17 20.435 L 48.159 16.28 L 46.147 20.435 L 41.65 21.101 L 44.905 24.336 L 44.136 28.903 L 48.159 26.747 Z  M 40.693 33.735 L 42.119 25.259 L 36.079 19.256 L 44.426 18.019 L 48.159 10.308 L 51.892 18.019 L 60.239 19.256 L 54.198 25.259 L 55.625 33.735 L 48.159 29.733 L 40.693 33.735 Z " fill-rule="evenodd" fill="rgb(0,156,222)"/></g></svg>