<?xml version="1.0" encoding="UTF-8" standalone="no"?><!-- Generator: Gravit.io --><svg xmlns="http://www.w3.org/2000/svg" xmlns:xlink="http://www.w3.org/1999/xlink" style="isolation:isolate" viewBox="0 0 64 64" width="64pt" height="64pt"><defs><clipPath id="_clipPath_A7e7x8KnRssRgquGGgy6S0cp6WhHQDKF"><rect width="64" height="64"/></clipPath></defs><g clip-path="url(#_clipPath_A7e7x8KnRssRgquGGgy6S0cp6WhHQDKF)"><path d=" M 46.755 42.799 C 40.94 42.799 36.226 37.964 36.226 32 C 36.226 26.036 40.94 21.2 46.755 21.2 C 52.57 21.2 57.284 26.036 57.284 32 C 57.284 37.964 52.57 42.799 46.755 42.799 Z  M 17.355 42.799 C 11.539 42.799 6.825 37.964 6.825 32 C 6.825 26.036 11.539 21.2 17.355 21.2 C 23.17 21.2 27.884 26.036 27.884 32 C 27.884 37.964 23.17 42.799 17.355 42.799 Z  M 57.883 25.376 C 57.004 24.335 55.334 22.987 54.333 22.216 C 54.076 22.005 53.813 21.804 53.539 21.616 C 53.529 21.608 53.521 21.602 53.521 21.602 L 53.522 21.604 C 51.586 20.275 49.26 19.5 46.755 19.5 C 43.383 19.5 40.329 20.905 38.123 23.176 C 37.054 24.2 36.133 25.321 35.181 26.419 C 33.975 27.812 33.261 27.129 32.054 27.129 C 30.849 27.129 30.135 27.812 28.929 26.419 C 27.977 25.321 27.056 24.2 25.987 23.176 C 23.78 20.905 20.691 19.5 17.317 19.5 C 14.813 19.5 12.338 20.275 10.513 21.604 L 10.513 21.602 C 10.513 21.602 10.543 21.608 10.532 21.616 C 10.258 21.804 10.012 22.005 9.755 22.216 C 8.755 22.987 7.042 24.335 6.163 25.376 C 4.856 26.922 2 27.025 2 27.025 L 2 30.222 C 2 30.222 3.709 30.118 4.262 30.788 C 4.589 31.184 4.94 33.088 5.515 35.08 C 5.69 35.79 5.941 36.474 6.229 37.13 C 6.498 37.781 6.812 38.385 7.171 38.88 L 7.175 38.877 C 9.356 42.264 13.1 44.5 17.353 44.5 C 22.291 44.5 26.541 41.485 28.456 37.155 C 28.459 37.15 28.462 37.147 28.466 37.142 C 28.475 37.127 28.485 37.11 28.494 37.094 C 29.369 35.571 30.249 31.4 30.647 30.737 C 31.05 30.066 32.054 30.015 32.054 30.015 C 32.054 30.015 33.06 30.066 33.462 30.737 C 33.86 31.4 34.74 35.571 35.615 37.094 C 35.624 37.11 35.634 37.127 35.644 37.142 C 35.647 37.147 35.65 37.15 35.652 37.155 C 37.567 41.485 41.817 44.5 46.755 44.5 C 51.009 44.5 54.75 42.264 56.931 38.877 L 56.932 38.88 C 57.291 38.385 57.599 37.781 57.868 37.13 C 58.157 36.474 58.394 35.79 58.569 35.08 C 59.143 33.088 59.466 31.184 59.793 30.788 C 60.346 30.118 62 30.222 62 30.222 L 62 27.025 C 62 27.025 59.189 26.922 57.883 25.376 Z " fill-rule="evenodd" fill="rgb(0,156,222)"/></g></svg>