<?xml version="1.0" encoding="UTF-8" standalone="no"?><!-- Generator: Gravit.io --><svg xmlns="http://www.w3.org/2000/svg" xmlns:xlink="http://www.w3.org/1999/xlink" style="isolation:isolate" viewBox="0 0 64 64" width="64pt" height="64pt"><defs><clipPath id="_clipPath_RhSWddUMhIG2sRLbCgsmkDy7YUOgrpJE"><rect width="64" height="64"/></clipPath></defs><g clip-path="url(#_clipPath_RhSWddUMhIG2sRLbCgsmkDy7YUOgrpJE)"><g><g><g><path d=" M 45.28 59.718 L 44.39 57.812 L 44.949 57.53 C 54.534 52.685 60.705 42.867 60.705 31.948 C 60.705 16.122 47.853 3.293 32 3.293 C 16.147 3.293 3.295 16.122 3.295 31.948 C 3.295 47.558 15.798 60.253 31.353 60.597 L 31.353 56.028 C 18.325 55.685 7.871 45.036 7.871 31.948 C 7.871 18.645 18.674 7.86 32 7.86 C 45.326 7.86 56.129 18.645 56.129 31.948 C 56.129 41.001 51.069 49.236 43.056 53.366 L 42.457 53.675 L 41.64 51.924 L 39.556 57.638 L 45.28 59.718 Z  M 47.775 62 L 37.896 58.411 L 41.492 48.549 L 43.057 51.9 C 50.296 47.897 54.835 40.289 54.835 31.948 C 54.835 19.359 44.611 9.153 32 9.153 C 19.389 9.153 9.165 19.359 9.165 31.948 C 9.165 44.538 19.389 54.744 32 54.744 L 32.647 54.744 L 32.647 61.897 L 32 61.897 C 15.431 61.897 2 48.488 2 31.948 C 2 15.408 15.431 2 32 2 C 48.569 2 62 15.408 62 31.948 C 62 43.146 55.789 53.237 46.091 58.394 L 47.775 62 Z " fill="rgb(26,116,186)"/><path d=" M 44.199 20.191 C 44.448 19.936 44.851 19.936 45.099 20.191 C 45.348 20.446 45.348 20.859 45.099 21.113 L 31.964 34.571 L 21.922 34.571 C 21.571 34.571 21.286 34.279 21.286 33.919 C 21.286 33.559 21.571 33.267 21.922 33.267 L 31.437 33.267 L 44.199 20.191 Z " fill="rgb(26,116,186)"/></g></g></g></g></svg>