<?xml version="1.0" encoding="UTF-8" standalone="no"?><!-- Generator: Gravit.io --><svg xmlns="http://www.w3.org/2000/svg" xmlns:xlink="http://www.w3.org/1999/xlink" style="isolation:isolate" viewBox="0 0 64 64" width="64pt" height="64pt"><defs><clipPath id="_clipPath_tGAQQYeUNpnp89xwe9iupaSoCstpDypA"><rect width="64" height="64"/></clipPath></defs><g clip-path="url(#_clipPath_tGAQQYeUNpnp89xwe9iupaSoCstpDypA)"><g><path d=" M 15 21 C 15 16.486 16.792 12.157 19.975 8.975 C 23.167 5.792 27.486 4 32 4 C 36.505 4 40.833 5.792 44.016 8.975 C 47.208 12.157 49 16.486 49 21 C 49 25.505 47.208 29.833 44.016 33.016 C 40.833 36.198 36.505 38 32 38 C 27.486 38 23.167 36.198 19.975 33.016 C 16.792 29.833 15 25.505 15 21 Z  M 16.959 21 C 16.959 17.005 18.545 13.176 21.365 10.355 C 24.176 7.545 28.005 5.959 32 5.959 C 35.986 5.959 39.815 7.545 42.635 10.355 C 45.455 13.176 47.041 17.005 47.041 21 C 47.041 24.986 45.455 28.815 42.635 31.635 C 39.815 34.455 35.986 36.041 32 36.041 C 28.005 36.041 24.176 34.455 21.365 31.635 C 18.545 28.815 16.959 24.986 16.959 21 Z " fill-rule="evenodd" fill="rgb(26,116,186)"/><g><path d=" M 2 43 C 2 38.486 3.792 34.157 6.984 30.975 C 10.167 27.792 14.495 26 19 26 C 23.505 26 27.833 27.792 31.016 30.975 C 34.208 34.157 36 38.486 36 43 C 36 47.505 34.208 51.833 31.016 55.016 C 27.833 58.198 23.505 59.99 19 59.99 C 14.495 59.99 10.167 58.198 6.984 55.016 C 3.792 51.833 2 47.505 2 43 Z  M 3.959 43 C 3.959 39.005 5.545 35.176 8.365 32.355 C 11.185 29.545 15.014 27.959 19 27.959 C 22.986 27.959 26.815 29.545 29.635 32.355 C 32.455 35.176 34.041 39.005 34.041 43 C 34.041 46.986 32.455 50.815 29.635 53.635 C 26.815 56.455 22.986 58.032 19 58.032 C 15.014 58.032 11.185 56.455 8.365 53.635 C 5.545 50.815 3.959 46.986 3.959 43 Z " fill-rule="evenodd" fill="rgb(26,116,186)"/><path d=" M 28 43 C 28 38.486 29.792 34.157 32.984 30.975 C 36.167 27.792 40.495 26 45 26 C 49.505 26 53.833 27.792 57.025 30.975 C 60.208 34.157 62 38.486 62 43 C 62 47.505 60.208 51.833 57.025 55.016 C 53.833 58.198 49.505 59.99 45 59.99 C 40.495 59.99 36.167 58.198 32.984 55.016 C 29.792 51.833 28 47.505 28 43 Z  M 29.959 43 C 29.959 39.005 31.545 35.176 34.365 32.355 C 37.185 29.545 41.014 27.959 45 27.959 C 48.986 27.959 52.815 29.545 55.635 32.355 C 58.455 35.176 60.041 39.005 60.041 43 C 60.041 46.986 58.455 50.815 55.635 53.635 C 52.815 56.455 48.986 58.032 45 58.032 C 41.014 58.032 37.185 56.455 34.365 53.635 C 31.545 50.815 29.959 46.986 29.959 43 Z " fill-rule="evenodd" fill="rgb(26,116,186)"/></g></g></g></svg>