<?xml version="1.0" encoding="UTF-8" standalone="no"?><!-- Generator: Gravit.io --><svg xmlns="http://www.w3.org/2000/svg" xmlns:xlink="http://www.w3.org/1999/xlink" style="isolation:isolate" viewBox="0 0 64 64" width="64pt" height="64pt"><defs><clipPath id="_clipPath_9Ovt68FKk78BGyUUJ0Jsh2xuM1A1rX9s"><rect width="64" height="64"/></clipPath></defs><g clip-path="url(#_clipPath_9Ovt68FKk78BGyUUJ0Jsh2xuM1A1rX9s)"><g><path d=" M 2 62 L 18.8 62 L 18.8 21.2 L 2 21.2 L 2 62 Z  M 6.8 57.2 L 14.001 57.2 L 14.001 26 L 6.8 26 L 6.8 57.2 Z " fill-rule="evenodd" fill="rgb(0,156,222)"/><path d=" M 23.6 62 L 40.4 62 L 40.4 6.8 L 23.6 6.8 L 23.6 62 Z  M 28.401 57.2 L 35.6 57.2 L 35.6 11.599 L 28.401 11.599 L 28.401 57.2 Z " fill-rule="evenodd" fill="rgb(0,156,222)"/><path d=" M 45.201 62 L 62 62 L 62 13.999 L 45.201 13.999 L 45.201 62 Z  M 50.001 57.2 L 57.2 57.2 L 57.2 18.8 L 50.001 18.8 L 50.001 57.2 Z " fill-rule="evenodd" fill="rgb(0,156,222)"/></g></g></svg>