<?xml version="1.0" standalone="no"?><!-- Generator: Gravit.io --><svg xmlns="http://www.w3.org/2000/svg" xmlns:xlink="http://www.w3.org/1999/xlink" style="isolation:isolate" viewBox="0 0 30 40" width="30" height="40"><defs><clipPath id="_clipPath_CEgL2BsGCWogHjo8bma8jjVFYYILdAFY"><rect width="30" height="40"/></clipPath></defs><g clip-path="url(#_clipPath_CEgL2BsGCWogHjo8bma8jjVFYYILdAFY)"><clipPath id="_clipPath_dZF5GgdI0R98skRRtrPaHi1NGAqo90ca"><rect x="0" y="0" width="30" height="40" transform="matrix(1,0,0,1,0,0)" fill="rgb(255,255,255)"/></clipPath><g clip-path="url(#_clipPath_dZF5GgdI0R98skRRtrPaHi1NGAqo90ca)"><g><g><g><g><path d=" M 28.667 1.333 L 28.667 0 L 30 1.333 L 28.667 1.333 L 28.667 1.333 L 28.667 1.333 Z  M 28.667 1.333 L 10.658 1.333 L 10.658 0 L 30 0 L 30 40 L 0 40 L 0 10.639 L 1.333 10.639 L 1.333 38.667 L 28.667 38.667 L 28.667 1.333 L 28.667 1.333 L 28.667 1.333 Z  M 28.667 38.667 L 30 38.667 L 28.667 40 L 28.667 38.667 L 28.667 38.667 L 28.667 38.667 Z  M 1.333 38.667 L 1.333 40 L 0 38.667 L 1.333 38.667 L 1.333 38.667 L 1.333 38.667 Z  M 1.333 38.667 L 1.333 40 L 0 38.667 L 1.333 38.667 L 1.333 38.667 L 1.333 38.667 Z  M 1.333 38.667 L 28.667 38.667 L 28.667 1.333 L 10.658 1.333 L 10.658 0 L 30 0 L 30 40 L 0 40 L 0 10.639 L 1.333 10.639 L 1.333 38.667 L 1.333 38.667 L 1.333 38.667 Z  M 28.667 38.667 L 30 38.667 L 28.667 40 L 28.667 38.667 L 28.667 38.667 L 28.667 38.667 Z  M 28.667 1.333 L 28.667 0 L 30 1.333 L 28.667 1.333 L 28.667 1.333 L 28.667 1.333 Z " fill="rgb(0,0,0)"/><path d=" M 3.219 9.333 L 9.333 9.333 L 9.333 3.219 L 3.219 9.333 L 3.219 9.333 L 3.219 9.333 Z  M 10.667 0 L 10.667 10.667 L 0 10.667 L 10.667 0 L 10.667 0 L 10.667 0 Z " fill="rgb(0,0,0)"/></g><g><path d=" M 22.667 31.615 L 22.667 24.692 C 22.667 24.31 22.965 24 23.333 24 C 23.702 24 24 24.31 24 24.692 L 24 33 L 6 33 L 6 24.692 C 6 24.31 6.298 24 6.667 24 C 7.035 24 7.333 24.31 7.333 24.692 L 7.333 31.615 L 22.667 31.615 L 22.667 31.615 Z " fill="rgb(0,0,0)"/><g><path d=" M 18.231 25.128 C 18.42 24.944 18.711 24.96 18.882 25.166 C 19.052 25.371 19.037 25.687 18.847 25.872 L 15.308 29.326 C 15.133 29.497 14.867 29.497 14.692 29.326 L 11.153 25.872 C 10.963 25.687 10.948 25.371 11.118 25.166 C 11.289 24.96 11.58 24.944 11.769 25.128 L 15 28.282 L 18.231 25.128 L 18.231 25.128 Z " fill="rgb(0,0,0)"/><path d=" M 14.5 16.5 C 14.5 16.224 14.724 16 15 16 C 15.276 16 15.5 16.224 15.5 16.5 L 15.5 28.015 C 15.5 28.291 15.276 28.515 15 28.515 C 14.724 28.515 14.5 28.291 14.5 28.015 L 14.5 16.5 L 14.5 16.5 Z " fill="rgb(0,0,0)"/></g></g></g></g></g></g></g></svg>