<?xml version="1.0" encoding="UTF-8" standalone="no"?><!-- Generator: Gravit.io --><svg xmlns="http://www.w3.org/2000/svg" xmlns:xlink="http://www.w3.org/1999/xlink" style="isolation:isolate" viewBox="0 0 64 64" width="64pt" height="64pt"><defs><clipPath id="_clipPath_LXlg54aWpgAwGLXJFlM2pS6Zw9A7xdMD"><rect width="64" height="64"/></clipPath></defs><g clip-path="url(#_clipPath_LXlg54aWpgAwGLXJFlM2pS6Zw9A7xdMD)"><path d=" M 47.974 53.338 L 59.211 53.338 L 59.211 42.621 L 47.974 42.621 L 47.974 53.338 Z  M 4.776 53.336 C 4.957 53.345 5.097 53.357 5.237 53.357 C 8.671 53.358 12.105 53.351 15.54 53.368 C 15.962 53.37 16.075 53.263 16.073 52.859 C 16.056 49.587 16.063 46.314 16.063 43.041 L 16.063 42.616 L 4.776 42.616 L 4.776 53.336 Z  M 26.373 53.322 L 37.643 53.322 L 37.643 42.621 L 26.373 42.621 L 26.373 53.322 Z  M 23.469 26.91 L 40.518 26.91 L 40.518 10.619 L 23.469 10.619 L 23.469 26.91 Z  M 30.464 29.569 C 30.018 29.559 29.573 29.542 29.127 29.541 C 26.492 29.539 23.857 29.54 21.222 29.54 L 20.718 29.54 L 20.718 8 L 43.285 8 L 43.285 29.529 L 33.397 29.529 L 33.397 33.125 L 55.349 33.125 L 55.349 39.921 C 55.5 39.937 55.591 39.956 55.682 39.956 C 57.71 39.958 59.738 39.958 61.766 39.956 C 61.844 39.956 61.922 39.935 62 39.924 L 62 56 C 61.825 55.995 61.65 55.986 61.474 55.986 C 56.236 55.985 50.998 55.985 45.76 55.985 C 45.575 55.985 45.39 55.985 45.199 55.985 L 45.199 39.93 L 52.606 39.93 C 52.606 38.669 52.587 37.453 52.617 36.238 C 52.628 35.815 52.467 35.736 52.065 35.737 C 46.013 35.747 39.96 35.744 33.907 35.745 L 33.4 35.745 L 33.4 39.975 L 40.394 39.975 L 40.394 55.96 L 23.612 55.96 L 23.612 39.949 L 30.593 39.949 C 30.609 39.806 30.632 39.704 30.632 39.601 C 30.634 38.46 30.621 37.318 30.64 36.177 C 30.646 35.834 30.531 35.735 30.175 35.737 C 28.307 35.752 26.438 35.743 24.57 35.744 C 20.21 35.747 15.851 35.751 11.491 35.755 C 11.465 35.775 11.439 35.795 11.414 35.815 L 11.414 39.958 C 11.612 39.958 11.782 39.958 11.954 39.958 C 14.061 39.958 16.168 39.967 18.275 39.949 C 18.692 39.946 18.847 40.023 18.845 40.467 C 18.827 45.488 18.833 50.508 18.832 55.528 C 18.832 55.674 18.82 55.82 18.812 55.985 L 18.234 55.985 C 14.355 55.985 10.476 55.984 6.596 55.986 C 5.064 55.987 3.532 55.995 2 56 L 2 39.924 C 3.435 39.935 4.869 39.949 6.304 39.957 C 7.065 39.962 7.825 39.958 8.631 39.958 L 8.631 33.143 L 9.228 33.143 C 16.171 33.143 23.114 33.139 30.057 33.152 C 30.516 33.153 30.664 33.037 30.643 32.595 C 30.597 31.626 30.604 30.654 30.589 29.684 C 30.548 29.646 30.506 29.607 30.464 29.569 Z " fill-rule="evenodd" fill="rgb(0,156,222)"/></g></svg>