<?xml version="1.0" encoding="UTF-8" standalone="no"?><!-- Generator: Gravit.io --><svg xmlns="http://www.w3.org/2000/svg" xmlns:xlink="http://www.w3.org/1999/xlink" style="isolation:isolate" viewBox="0 0 64 64" width="64pt" height="64pt"><defs><clipPath id="_clipPath_TWNcCg3m9azLvFgphDVRcyo4APratAUt"><rect width="64" height="64"/></clipPath></defs><g clip-path="url(#_clipPath_TWNcCg3m9azLvFgphDVRcyo4APratAUt)"><path d=" M 8.293 54.286 L 55.707 54.286 L 55.707 28.286 L 8.293 28.286 L 8.293 54.286 Z  M 19.672 17.143 L 22.517 17.143 L 22.517 9.714 L 19.672 9.714 L 19.672 17.143 Z  M 41.483 17.143 L 44.328 17.143 L 44.328 9.714 L 41.483 9.714 L 41.483 17.143 Z  M 57.603 11.571 L 48.121 11.571 L 48.121 7.857 C 48.121 6.836 47.267 6 46.224 6 L 39.586 6 C 38.543 6 37.69 6.836 37.69 7.857 L 37.69 11.571 L 26.31 11.571 L 26.31 7.857 C 26.31 6.836 25.457 6 24.414 6 L 17.776 6 C 16.733 6 15.879 6.836 15.879 7.857 L 15.879 11.571 L 6.397 11.571 C 5.353 11.571 4.5 12.407 4.5 13.429 L 4.5 56.143 C 4.5 57.164 5.353 58 6.397 58 L 57.603 58 C 58.647 58 59.5 57.164 59.5 56.143 L 59.5 13.429 C 59.5 12.407 58.647 11.571 57.603 11.571 L 57.603 11.571 Z " fill-rule="evenodd" fill="rgb(0,156,222)"/></g></svg>