<?xml version="1.0" encoding="UTF-8" standalone="no"?><!-- Generator: Gravit.io --><svg xmlns="http://www.w3.org/2000/svg" xmlns:xlink="http://www.w3.org/1999/xlink" style="isolation:isolate" viewBox="0 0 64 64" width="64pt" height="64pt"><defs><clipPath id="_clipPath_TZlrzfLeW8f8IlTN2hfK53AQapxXqyxa"><rect width="64" height="64"/></clipPath></defs><g clip-path="url(#_clipPath_TZlrzfLeW8f8IlTN2hfK53AQapxXqyxa)"><g><path d=" M 14.083 52.795 L 49.62 52.795 L 49.62 23.4 L 14.083 23.4 L 14.083 52.795 Z  M 11.068 55.81 L 52.635 55.81 L 52.635 20.385 L 11.068 20.385 L 11.068 55.81 Z " fill-rule="evenodd" fill="rgb(22,32,44)"/><path d=" M 28.805 31.995 L 34.91 31.995 L 34.91 26.623 L 28.805 26.623 L 28.805 31.995 Z " fill-rule="evenodd" fill="rgb(22,32,44)"/><path d=" M 38.295 31.995 L 44.4 31.995 L 44.4 26.623 L 38.295 26.623 L 38.295 31.995 Z " fill-rule="evenodd" fill="rgb(22,32,44)"/><path d=" M 19.305 40.783 L 25.408 40.783 L 25.408 35.412 L 19.305 35.412 L 19.305 40.783 Z " fill-rule="evenodd" fill="rgb(22,32,44)"/><path d=" M 28.805 40.783 L 34.91 40.783 L 34.91 35.412 L 28.805 35.412 L 28.805 40.783 Z " fill-rule="evenodd" fill="rgb(22,32,44)"/><path d=" M 38.295 40.783 L 44.4 40.783 L 44.4 35.412 L 38.295 35.412 L 38.295 40.783 Z " fill-rule="evenodd" fill="rgb(22,32,44)"/><path d=" M 19.305 49.57 L 25.408 49.57 L 25.408 44.198 L 19.305 44.198 L 19.305 49.57 Z " fill-rule="evenodd" fill="rgb(22,32,44)"/><path d=" M 28.805 49.57 L 34.91 49.57 L 34.91 44.198 L 28.805 44.198 L 28.805 49.57 Z " fill-rule="evenodd" fill="rgb(22,32,44)"/><path d=" M 38.295 49.57 L 44.4 49.57 L 44.4 44.198 L 38.295 44.198 L 38.295 49.57 Z " fill-rule="evenodd" fill="rgb(22,32,44)"/><path d=" M 21.718 11.222 L 41.942 11.222 L 41.942 8.207 L 21.718 8.207 L 21.718 11.222 Z " fill-rule="evenodd" fill="rgb(22,32,44)"/><path d=" M 50.14 8.207 L 50.14 11.215 L 58.972 11.215 L 58.972 58.991 L 5.03 58.991 L 5.03 11.215 L 13.557 11.215 L 13.557 8.207 L 2 8.207 L 2 62 L 62 62 L 62 8.207 L 50.14 8.207 Z " fill-rule="evenodd" fill="rgb(22,32,44)"/><g><path d=" M 17.738 5.015 C 16.375 5.015 15.267 6.125 15.267 7.487 L 15.267 11.713 C 15.267 13.077 16.375 14.185 17.738 14.185 C 19.102 14.185 20.21 13.077 20.21 11.713 L 20.21 7.487 C 20.21 6.125 19.102 5.015 17.738 5.015 Z  M 17.738 17.202 C 14.713 17.202 12.252 14.738 12.252 11.713 L 12.252 7.487 C 12.252 4.462 14.713 2 17.738 2 C 20.763 2 23.225 4.462 23.225 7.487 L 23.225 11.713 C 23.225 14.738 20.763 17.202 17.738 17.202 Z " fill-rule="evenodd" fill="rgb(22,32,44)"/><path d=" M 45.922 5.015 C 44.559 5.015 43.449 6.125 43.449 7.487 L 43.449 11.713 C 43.449 13.077 44.559 14.185 45.922 14.185 C 47.285 14.185 48.394 13.077 48.394 11.713 L 48.394 7.487 C 48.394 6.125 47.285 5.015 45.922 5.015 Z  M 45.922 17.202 C 42.897 17.202 40.435 14.738 40.435 11.713 L 40.435 7.487 C 40.435 4.462 42.897 2 45.922 2 C 48.947 2 51.409 4.462 51.409 7.487 L 51.409 11.713 C 51.409 14.738 48.947 17.202 45.922 17.202 Z " fill-rule="evenodd" fill="rgb(22,32,44)"/></g></g></g></svg>