<?xml version="1.0" encoding="UTF-8" standalone="no"?><!-- Generator: Gravit.io --><svg xmlns="http://www.w3.org/2000/svg" xmlns:xlink="http://www.w3.org/1999/xlink" style="isolation:isolate" viewBox="0 0 64 64" width="64pt" height="64pt"><defs><clipPath id="_clipPath_jTAEqJxi4kCBCCEY3ZLH4Xu5DiCUyxpe"><rect width="64" height="64"/></clipPath></defs><g clip-path="url(#_clipPath_jTAEqJxi4kCBCCEY3ZLH4Xu5DiCUyxpe)"><g><path d=" M 43.099 5.137 L 48.991 10.812 L 37.423 21.96 L 26.63 11.557 L 2 35.296 L 7.215 40.321 L 26.63 21.612 L 37.423 32.014 L 54.205 15.838 L 60.095 21.516 L 62 3.3 L 43.099 5.137 Z  M 53.092 10.812 L 49.476 7.325 L 58.758 6.425 L 57.823 15.37 L 54.205 11.885 L 37.423 28.06 L 26.63 17.658 L 7.215 36.367 L 6.1 35.296 L 26.63 15.512 L 37.423 25.914 L 53.092 10.812 Z " fill-rule="evenodd" fill="rgb(0,156,222)"/><path d=" M 10.936 62.023 L 19.872 62.023 L 19.872 40.321 L 10.936 40.321 L 10.936 62.023 Z  M 13.489 59.47 L 17.319 59.47 L 17.319 42.874 L 13.489 42.874 L 13.489 59.47 Z " fill-rule="evenodd" fill="rgb(0,156,222)"/><path d=" M 22.426 62.023 L 31.362 62.023 L 31.362 32.662 L 22.426 32.662 L 22.426 62.023 Z  M 24.979 59.47 L 28.809 59.47 L 28.809 35.215 L 24.979 35.215 L 24.979 59.47 Z " fill-rule="evenodd" fill="rgb(0,156,222)"/><path d=" M 44.128 62.023 L 53.064 62.023 L 53.064 27.555 L 44.128 27.555 L 44.128 62.023 Z  M 46.681 59.47 L 50.511 59.47 L 50.511 30.109 L 46.681 30.109 L 46.681 59.47 Z " fill-rule="evenodd" fill="rgb(0,156,222)"/><path d=" M 33.915 62.023 L 42.851 62.023 L 42.851 36.491 L 33.915 36.491 L 33.915 62.023 Z  M 36.468 59.47 L 40.298 59.47 L 40.298 39.045 L 36.468 39.045 L 36.468 59.47 Z " fill-rule="evenodd" fill="rgb(0,156,222)"/></g></g></svg>