<?xml version="1.0" encoding="UTF-8" standalone="no"?><!-- Generator: Gravit.io --><svg xmlns="http://www.w3.org/2000/svg" xmlns:xlink="http://www.w3.org/1999/xlink" style="isolation:isolate" viewBox="0 0 64 64" width="64pt" height="64pt"><defs><clipPath id="_clipPath_0nPvVQA2l5GGoooD81O8oT1Oqvi95Rks"><rect width="64" height="64"/></clipPath></defs><g clip-path="url(#_clipPath_0nPvVQA2l5GGoooD81O8oT1Oqvi95Rks)"><g><path d=" M 53.57 56.667 L 3.312 56.667 C 2.587 56.667 2 56.068 2 55.331 L 2 12.78 C 2 12.042 2.587 11.444 3.312 11.444 C 4.036 11.444 4.624 12.042 4.624 12.78 L 4.624 53.995 L 53.57 53.995 C 54.294 53.995 54.881 54.593 54.881 55.331 C 54.881 56.068 54.294 56.667 53.57 56.667 Z " fill-rule="evenodd" fill="#001eff"/><clipPath id="_clipPath_hVmRxTjKgsiMQVdZxjYhws6Ax5Ds2mFA"><path d=" M 2 56.667 L 62 56.667 L 62 7.333 L 2 7.333 L 2 56.667 Z " fill="rgb(255,255,255)"/></clipPath><g clip-path="url(#_clipPath_hVmRxTjKgsiMQVdZxjYhws6Ax5Ds2mFA)"><path d=" M 10.716 53.958 L 19.725 53.958 L 19.725 20.32 L 10.716 20.32 L 10.716 53.958 Z  M 21.032 56.667 L 9.409 56.667 C 8.687 56.667 8.102 56.06 8.102 55.312 L 8.102 18.966 C 8.102 18.218 8.687 17.611 9.409 17.611 L 21.032 17.611 C 21.754 17.611 22.339 18.218 22.339 18.966 L 22.339 55.312 C 22.339 56.06 21.754 56.667 21.032 56.667 Z " fill-rule="evenodd" fill="#001eff"/></g><clipPath id="_clipPath_F34PvXb8XOAYlcv1HXjzjtYte2THhg9o"><path d=" M 2 56.667 L 62 56.667 L 62 7.333 L 2 7.333 L 2 56.667 Z " fill="rgb(255,255,255)"/></clipPath><g clip-path="url(#_clipPath_F34PvXb8XOAYlcv1HXjzjtYte2THhg9o)"><path d=" M 9.119 55.639 L 13.186 55.639 L 13.186 19.667 L 9.119 19.667 L 9.119 55.639 Z " fill-rule="evenodd" fill="#001eff"/></g><clipPath id="_clipPath_UCr8nCIiQ5zUnet4Tj8uXZ4XA6rMHR3E"><path d=" M 2 56.667 L 62 56.667 L 62 7.333 L 2 7.333 L 2 56.667 Z " fill="rgb(255,255,255)"/></clipPath><g clip-path="url(#_clipPath_UCr8nCIiQ5zUnet4Tj8uXZ4XA6rMHR3E)"><path d=" M 29.021 53.992 L 38.03 53.992 L 38.03 33.646 L 29.021 33.646 L 29.021 53.992 Z  M 39.337 56.667 L 27.714 56.667 C 26.992 56.667 26.407 56.068 26.407 55.33 L 26.407 32.309 C 26.407 31.571 26.992 30.972 27.714 30.972 L 39.337 30.972 C 40.059 30.972 40.644 31.571 40.644 32.309 L 40.644 55.33 C 40.644 56.068 40.059 56.667 39.337 56.667 Z " fill-rule="evenodd" fill="#001eff"/></g><clipPath id="_clipPath_yxLhC95FRvXkxgIUit0RkW4y79xgWnqM"><path d=" M 2 56.667 L 62 56.667 L 62 7.333 L 2 7.333 L 2 56.667 Z " fill="rgb(255,255,255)"/></clipPath><g clip-path="url(#_clipPath_yxLhC95FRvXkxgIUit0RkW4y79xgWnqM)"><path d=" M 28.441 55.639 L 32.508 55.639 L 32.508 32 L 28.441 32 L 28.441 55.639 Z " fill-rule="evenodd" fill="#001eff"/></g><clipPath id="_clipPath_GinCRXVnoM8tRXAWlBaRerzrXFSiZKXh"><path d=" M 2 56.667 L 62 56.667 L 62 7.333 L 2 7.333 L 2 56.667 Z " fill="rgb(255,255,255)"/></clipPath><g clip-path="url(#_clipPath_GinCRXVnoM8tRXAWlBaRerzrXFSiZKXh)"><path d=" M 50.377 54.014 L 59.386 54.014 L 59.386 27.458 L 50.377 27.458 L 50.377 54.014 Z  M 60.693 56.667 L 49.07 56.667 C 48.348 56.667 47.763 56.073 47.763 55.34 L 47.763 26.132 C 47.763 25.399 48.348 24.806 49.07 24.806 L 60.693 24.806 C 61.415 24.806 62 25.399 62 26.132 L 62 55.34 C 62 56.073 61.415 56.667 60.693 56.667 Z " fill-rule="evenodd" fill="#001eff"/></g><clipPath id="_clipPath_Q5N1v2PBOCsIgpHz7LWBoWq4QsHeUqu4"><path d=" M 2 56.667 L 62 56.667 L 62 7.333 L 2 7.333 L 2 56.667 Z " fill="rgb(255,255,255)"/></clipPath><g clip-path="url(#_clipPath_Q5N1v2PBOCsIgpHz7LWBoWq4QsHeUqu4)"><path d=" M 48.78 55.639 L 53.864 55.639 L 53.864 25.833 L 48.78 25.833 L 48.78 55.639 Z " fill-rule="evenodd" fill="#001eff"/></g><clipPath id="_clipPath_q2a4MOAYtFWrw0VjgKr9BANpKHCVZj1J"><path d=" M 2 56.667 L 62 56.667 L 62 7.333 L 2 7.333 L 2 56.667 Z " fill="rgb(255,255,255)"/></clipPath><g clip-path="url(#_clipPath_q2a4MOAYtFWrw0VjgKr9BANpKHCVZj1J)"><path d=" M 33.786 20.694 C 33.546 20.694 33.306 20.631 33.094 20.507 L 14.856 9.781 C 14.219 9.406 14.013 8.597 14.395 7.973 C 14.777 7.349 15.604 7.147 16.241 7.522 L 33.844 17.875 L 47.848 10.992 C 48.512 10.664 49.32 10.928 49.654 11.578 C 49.987 12.229 49.718 13.021 49.054 13.347 L 34.389 20.555 C 34.199 20.648 33.992 20.694 33.786 20.694 Z " fill-rule="evenodd" fill="#001eff"/></g><clipPath id="_clipPath_9khaikHuZuo9Uti4JtVkLxIlQKDEirVp"><path d=" M 2 56.667 L 62 56.667 L 62 7.333 L 2 7.333 L 2 56.667 Z " fill="rgb(255,255,255)"/></clipPath><g clip-path="url(#_clipPath_9khaikHuZuo9Uti4JtVkLxIlQKDEirVp)"><path d=" M 47.807 17.611 L 52.847 8.967 L 43.695 8.361 L 47.807 17.611 Z " fill-rule="evenodd" fill="#001eff"/></g></g></g></svg>
