<?xml version="1.0" standalone="no"?><!-- Generator: Gravit.io --><svg xmlns="http://www.w3.org/2000/svg" xmlns:xlink="http://www.w3.org/1999/xlink" style="isolation:isolate" viewBox="0 0 21 21" width="21" height="21"><defs><clipPath id="_clipPath_Q7Le4eDejyyuhigGq9OvJ3F7lSln1rSf"><rect width="21" height="21"/></clipPath></defs><g clip-path="url(#_clipPath_Q7Le4eDejyyuhigGq9OvJ3F7lSln1rSf)"><clipPath id="_clipPath_D6eUbF3q12qk3leE761v0JAjLtwTPFoz"><path d="M 1 0 L 20 0 C 20.552 0 21 0.448 21 1 L 21 20 C 21 20.552 20.552 21 20 21 L 1 21 C 0.448 21 0 20.552 0 20 L 0 1 C 0 0.448 0.448 0 1 0 Z" style="stroke:none;fill:#FFFFFF;stroke-miterlimit:10;"/></clipPath><g clip-path="url(#_clipPath_D6eUbF3q12qk3leE761v0JAjLtwTPFoz)"><g><clipPath id="_clipPath_XawTjntnjeE01bDazNYLQOBIBlq8sUAh"><rect x="0" y="0" width="21" height="21" transform="matrix(1,0,0,1,0,0)" fill="rgb(255,255,255)"/></clipPath><g clip-path="url(#_clipPath_XawTjntnjeE01bDazNYLQOBIBlq8sUAh)"><g><g><clipPath id="_clipPath_Z9yOAEcssAEW8CBJkBis5Rl8LKf8KwdR"><rect x="0" y="0" width="21" height="21" transform="matrix(1,0,0,1,0,0)" fill="rgb(255,255,255)"/></clipPath><g clip-path="url(#_clipPath_Z9yOAEcssAEW8CBJkBis5Rl8LKf8KwdR)"><g><g><g><clipPath id="_clipPath_Ys063fRC1p9Vf12ievzNo0yejWlqws7w"><rect x="0" y="0" width="21" height="21" transform="matrix(1,0,0,1,0,0)" fill="rgb(255,255,255)"/></clipPath><g clip-path="url(#_clipPath_Ys063fRC1p9Vf12ievzNo0yejWlqws7w)"><g><g><g><g><rect x="0" y="0" width="21" height="21" transform="matrix(1,0,0,1,0,0)" fill="none"/></g></g></g></g></g></g></g></g></g></g><mask id="_mask_AhuoLUKzhvzCke06oPH4wbsI5EQd1WLE"><rect x="0" y="0" width="21" height="21" fill="white" stroke="none"/></mask><rect x="0" y="0" width="21" height="21" transform="matrix(1,0,0,1,0,0)" fill="none" mask="url(#_mask_AhuoLUKzhvzCke06oPH4wbsI5EQd1WLE)" vector-effect="non-scaling-stroke" stroke-width="2" stroke="rgb(216,216,216)" stroke-opacity="100" stroke-linejoin="miter" stroke-linecap="butt" stroke-miterlimit="2"/></g></g></g></g></g></svg>