<?xml version="1.0" standalone="no"?><!-- Generator: Gravit.io --><svg xmlns="http://www.w3.org/2000/svg" xmlns:xlink="http://www.w3.org/1999/xlink" style="isolation:isolate" viewBox="0 0 21 21" width="21" height="21"><defs><clipPath id="_clipPath_lpJwqeqvLo1H8wUFDllABFBYwOWNyKpy"><rect width="21" height="21"/></clipPath></defs><g clip-path="url(#_clipPath_lpJwqeqvLo1H8wUFDllABFBYwOWNyKpy)"><path d="M 1.05 0 L 19.95 0 C 20.53 0 21 0.47 21 1.05 L 21 19.95 C 21 20.53 20.53 21 19.95 21 L 1.05 21 C 0.47 21 0 20.53 0 19.95 L 0 1.05 C 0 0.47 0.47 0 1.05 0 Z" style="stroke:none;fill:#2C74BE;stroke-miterlimit:10;"/><clipPath id="_clipPath_lZr09iJnPosuN2qfUvSjLlIAJyJmIHyh"><path d="M 1.05 0 L 19.95 0 C 20.53 0 21 0.47 21 1.05 L 21 19.95 C 21 20.53 20.53 21 19.95 21 L 1.05 21 C 0.47 21 0 20.53 0 19.95 L 0 1.05 C 0 0.47 0.47 0 1.05 0 Z" style="stroke:none;fill:#2C74BE;stroke-miterlimit:10;"/></clipPath><g clip-path="url(#_clipPath_lZr09iJnPosuN2qfUvSjLlIAJyJmIHyh)"><g><clipPath id="_clipPath_wRhagxbeFcatJDQT7op2WeIsZTrI1tjn"><rect x="0" y="0" width="21" height="21" transform="matrix(1,0,0,1,0,0)" fill="rgb(255,255,255)"/></clipPath><g clip-path="url(#_clipPath_wRhagxbeFcatJDQT7op2WeIsZTrI1tjn)"><g><g><clipPath id="_clipPath_x5xTzPW9UKVRmfktuaqnXJO4TRYqQcKb"><rect x="0" y="0" width="21" height="21" transform="matrix(1,0,0,1,0,0)" fill="rgb(255,255,255)"/></clipPath><g clip-path="url(#_clipPath_x5xTzPW9UKVRmfktuaqnXJO4TRYqQcKb)"><g><g><g><rect x="0" y="0" width="21" height="21" transform="matrix(1,0,0,1,0,0)" fill="none"/></g></g></g></g></g></g></g></g><mask id="_mask_Qsi7TZZZdHyEpwniSobzzsw30KIAIW9m"><rect x="0" y="0" width="21" height="21" fill="white" stroke="none"/></mask><rect x="0" y="0" width="21" height="21" transform="matrix(1,0,0,1,0,0)" fill="none" mask="url(#_mask_Qsi7TZZZdHyEpwniSobzzsw30KIAIW9m)" vector-effect="non-scaling-stroke" stroke-width="2" stroke="rgb(44,116,190)" stroke-linejoin="miter" stroke-linecap="butt" stroke-miterlimit="2"/></g><g><path d=" M 17.466 4.5 L 19.5 6.378 L 8.139 16.5 L 1.5 10.585 L 3.534 8.707 L 8.139 12.809 L 17.466 4.5 Z " fill="rgb(255,255,255)"/></g></g></svg>