<?xml version="1.0" standalone="no"?><!-- Generator: Gravit.io --><svg xmlns="http://www.w3.org/2000/svg" xmlns:xlink="http://www.w3.org/1999/xlink" style="isolation:isolate" viewBox="0 0 21 21" width="21" height="21"><defs><clipPath id="_clipPath_KBmBgEIfmGE3T1l3aNnORSZ5IaieR2dH"><rect width="21" height="21"/></clipPath></defs><g clip-path="url(#_clipPath_KBmBgEIfmGE3T1l3aNnORSZ5IaieR2dH)"><clipPath id="_clipPath_XJCmzi7ysChkjOV8QAI6StTCtSBKG6sl"><path d="M 1 0 L 20 0 C 20.552 0 21 0.448 21 1 L 21 20 C 21 20.552 20.552 21 20 21 L 1 21 C 0.448 21 0 20.552 0 20 L 0 1 C 0 0.448 0.448 0 1 0 Z" style="stroke:none;fill:#FFFFFF;stroke-miterlimit:10;"/></clipPath><g clip-path="url(#_clipPath_XJCmzi7ysChkjOV8QAI6StTCtSBKG6sl)"><g><clipPath id="_clipPath_TWkPofPSIHioXv4uZWc5msPFyHfxgJpr"><rect x="0" y="0" width="21" height="21" transform="matrix(1,0,0,1,0,0)" fill="rgb(255,255,255)"/></clipPath><g clip-path="url(#_clipPath_TWkPofPSIHioXv4uZWc5msPFyHfxgJpr)"><g><g><clipPath id="_clipPath_bRHYbERh0nfaVt9CLbJM9ueNC1HTuCnQ"><rect x="0" y="0" width="21" height="21" transform="matrix(1,0,0,1,0,0)" fill="rgb(255,255,255)"/></clipPath><g clip-path="url(#_clipPath_bRHYbERh0nfaVt9CLbJM9ueNC1HTuCnQ)"><g><g><g><clipPath id="_clipPath_NV5VFqeGv4fNwiR2gRbC12aFv6iuVfmu"><rect x="0" y="0" width="21" height="21" transform="matrix(1,0,0,1,0,0)" fill="rgb(255,255,255)"/></clipPath><g clip-path="url(#_clipPath_NV5VFqeGv4fNwiR2gRbC12aFv6iuVfmu)"><g><g><g><g><rect x="0" y="0" width="21" height="21" transform="matrix(1,0,0,1,0,0)" fill="none"/></g></g></g></g></g></g></g></g></g></g><mask id="_mask_6fNA6ARbsLaZuyae1aLUfyV6U4ogHMVz"><rect x="0" y="0" width="21" height="21" fill="white" stroke="none"/></mask><rect x="0" y="0" width="21" height="21" transform="matrix(1,0,0,1,0,0)" fill="none" mask="url(#_mask_6fNA6ARbsLaZuyae1aLUfyV6U4ogHMVz)" vector-effect="non-scaling-stroke" stroke-width="2" stroke="rgb(44,116,190)" stroke-opacity="100" stroke-linejoin="miter" stroke-linecap="butt" stroke-miterlimit="2"/></g></g></g></g></g></svg>