<?xml version="1.0" encoding="UTF-8" standalone="no"?><!-- Generator: Gravit.io --><svg xmlns="http://www.w3.org/2000/svg" xmlns:xlink="http://www.w3.org/1999/xlink" style="isolation:isolate" viewBox="0 0 64 64" width="64pt" height="64pt"><defs><clipPath id="_clipPath_5yTP0ApbFQt9ozbY42f2IADWcmqAGdYz"><rect width="64" height="64"/></clipPath></defs><g clip-path="url(#_clipPath_5yTP0ApbFQt9ozbY42f2IADWcmqAGdYz)"><path d=" M 32 5.158 C 17.199 5.158 5.158 17.199 5.158 32 C 5.158 46.801 17.199 58.842 32 58.842 C 46.801 58.842 58.842 46.801 58.842 32 C 58.842 17.199 46.801 5.158 32 5.158 Z  M 32 62 C 15.457 62 2 48.543 2 32 C 2 15.457 15.457 2 32 2 C 48.543 2 62 15.457 62 32 C 62 48.543 48.543 62 32 62 Z " fill-rule="evenodd" fill="rgb(0,156,222)"/><path d=" M 44.035 32.579 C 43.687 37.238 39.986 39.198 36.809 39.771 C 36.977 38.611 38.452 30.634 46.886 25.611 C 45.787 27.013 44.265 29.473 44.035 32.579 Z  M 45.8 24.956 C 38.804 29.356 36.595 35.721 35.944 38.459 C 35.516 35.423 35.696 28.248 45.8 24.956 Z  M 48.037 24.326 L 48.037 24.324 L 48.037 24.326 Z  M 47.655 22.703 C 41.884 24.061 37.886 26.648 35.775 30.394 C 33.041 35.238 34.585 40.167 34.651 40.374 L 35.077 41.696 L 36.454 41.514 C 40.646 40.962 45.274 38.356 45.697 32.704 C 46.012 28.471 49.128 25.586 49.16 25.557 L 53.905 21.233 L 47.655 22.703 Z " fill-rule="evenodd" fill="rgb(0,156,222)"/><path d=" M 23.137 42.063 C 21.901 39.205 19.658 37.378 18.162 36.415 C 27.722 38.39 31.75 45.404 32.314 46.477 C 31.73 46.569 31.128 46.635 30.5 46.635 C 27.697 46.635 24.653 45.568 23.137 42.063 Z  M 16.652 35.576 L 16.651 35.576 L 16.652 35.576 Z  M 32.702 44.958 C 31.185 42.582 27.012 37.301 18.965 35.439 C 19.123 35.436 19.289 35.426 19.444 35.426 C 29.685 35.426 32.121 41.998 32.702 44.958 Z  M 19.444 33.761 C 18.498 33.761 17.502 33.813 16.48 33.918 L 10.093 34.577 L 15.994 37.108 C 16.027 37.122 19.941 38.87 21.607 42.724 C 23.164 46.321 26.322 48.303 30.5 48.303 C 31.398 48.303 32.315 48.208 33.226 48.02 L 34.587 47.741 L 34.556 46.353 C 34.554 46.226 34.115 33.761 19.444 33.761 Z " fill-rule="evenodd" fill="rgb(0,156,222)"/><path d=" M 31.431 31.188 C 31.458 29.14 31.005 25.281 27.948 21.56 C 32.738 25.142 32.187 29.14 31.431 31.188 Z  M 27.07 26.39 C 27.45 24.563 27.075 22.897 26.669 21.762 C 30.746 26.339 30.36 31.378 30.248 32.306 C 28.347 31.314 26.446 29.388 27.07 26.39 Z  M 25.439 26.052 C 24.594 30.114 27.297 32.871 30.108 34.095 L 31.382 34.649 L 32.156 33.497 C 32.244 33.367 34.289 30.266 33.364 26.385 C 32.653 23.409 30.454 20.868 26.824 18.836 L 21.223 15.699 L 24.588 21.157 C 24.634 21.236 25.963 23.527 25.439 26.052 Z " fill-rule="evenodd" fill="rgb(0,156,222)"/></g></svg>