<?xml version="1.0" encoding="UTF-8" standalone="no"?>
<svg width="36px" height="38px" viewBox="0 0 36 38" version="1.1" xmlns="http://www.w3.org/2000/svg" xmlns:xlink="http://www.w3.org/1999/xlink">
    <!-- Generator: Sketch 49.1 (51147) - http://www.bohemiancoding.com/sketch -->
    <title>calendar/clapping_hands</title>
    <desc>Created with Sketch.</desc>
    <defs></defs>
    <g id="Assets---Explore" stroke="none" stroke-width="1" fill="none" fill-rule="evenodd">
        <g id="calendar/clapping_hands" transform="translate(-1.000000, -1.000000)" fill="#FFFFFF">
            <g transform="translate(1.000000, 1.000000)">
                <path d="M13.0610303,18.1786544 C13.235806,18.1350031 13.3564092,18.1406544 13.4202696,18.0841415 C15.332127,16.3965518 17.2467522,14.71208 19.1386408,13.0032492 C19.5821047,12.6029826 19.3462365,11.9369108 18.7226586,11.9063159 C18.3513589,11.8883877 17.8865423,12.0772185 17.5986763,12.3252903 C16.186828,13.5412903 14.8679035,14.8662236 13.418688,16.0352595 C12.5991793,16.6962646 12.6215206,17.3181005 13.0610303,18.1786544 Z M10.2446489,34.8561723 C8.70863862,33.17248 7.21217036,31.5439364 5.72954181,29.9027262 C4.81038724,28.8851056 4.88274916,27.93608 5.75326703,26.8789005 C6.18921795,26.3494338 6.64830096,25.6666031 6.69041323,25.0272287 C6.80686452,23.2505826 6.71334761,21.4604903 6.69298346,19.6758544 C6.69120407,19.5232697 6.62319177,19.3701005 6.57672988,19.2202441 C6.23548213,18.1199979 5.81851139,17.0359262 5.57611872,15.9152185 C5.43060404,15.2417415 5.2860779,14.6413415 4.50492503,14.6731056 C3.71645688,14.7050646 3.56184753,15.3023467 3.58063,16.0052492 C3.64547893,18.4380287 3.61582241,20.8747056 3.73484393,23.3045621 C3.82618602,25.1702646 3.51637419,26.8481108 2.01812654,28.2129928 C4.37245922,30.7835467 6.67874833,33.30168 9.00678555,35.8437826 C9.43285097,35.5039262 9.8106751,35.2024595 10.2446489,34.8561723 Z M13.8801435,35.9550544 C14.8188714,35.4727467 15.6911686,35.0430544 16.5454743,34.5812082 C17.9763027,33.8075672 19.5649039,33.21048 20.7875436,32.1901313 C24.1780753,29.3607877 27.4122182,26.3494338 30.7133849,23.4154441 C31.2381077,22.9491159 31.3944964,22.4348492 30.8826248,21.9040185 C30.3648219,21.3673415 29.8448441,21.5425313 29.3387061,22.0034031 C28.1057855,23.126839 26.8465694,24.2220185 25.6110786,25.3427262 C25.1021726,25.8043774 24.5472002,26.1237723 23.9819468,25.5459774 C23.3751743,24.9251159 23.7385656,24.3851262 24.2897815,23.8975569 C26.0784654,22.3153928 27.847576,20.7112082 29.6364576,19.1288492 C30.1825331,18.6459569 30.5704404,18.1055774 29.9899634,17.472439 C29.419965,16.8507979 28.8871361,17.2459979 28.3861385,17.6994646 C26.64016,19.2800697 24.8748059,20.8398236 23.1242801,22.4157518 C22.588881,22.8978646 22.0095902,23.4097928 21.3583329,22.7146851 C20.7242764,22.0382851 21.2126205,21.4949826 21.7735242,21.0007877 C22.8783286,20.0277928 23.958617,19.0275159 25.0481977,18.0375672 C26.1615037,17.0257928 27.2823226,16.0218133 28.3827774,14.9963979 C28.8286139,14.5811262 28.8847635,14.0773826 28.4596867,13.6178749 C28.0575442,13.182921 27.5873894,13.2369005 27.1437278,13.5882544 C26.9389001,13.7507774 26.7487029,13.9318133 26.5539584,14.1066133 C24.6292499,15.8314236 22.7069139,17.5587672 20.7798329,19.2808492 C19.8656211,20.0979467 19.2914708,20.2213005 18.8563107,19.6522749 C18.2224519,18.8230954 18.8940733,18.3745005 19.440742,17.890439 C20.93464,16.5674544 22.4129189,15.2269313 23.9113643,13.9086236 C24.4226428,13.4586646 24.6678034,12.9629108 24.1749119,12.4026544 C23.6677853,11.8264185 23.1250709,12.0407774 22.6311909,12.4848903 C21.8775198,13.163239 21.1218715,13.8392492 20.3676072,14.5170133 C18.5425447,16.1568595 16.7362646,17.8175569 14.8870814,19.4309005 C13.3595726,20.763239 11.4326893,20.1501723 10.9413795,18.2016492 C10.7671969,17.5108287 10.6080402,16.8092903 10.534492,16.1030749 C10.4607461,15.3947159 10.2205283,14.8514133 9.42889676,14.915721 C8.68313401,14.9761313 8.55402927,15.5486646 8.57043921,16.2063569 C8.62579806,18.445239 8.60938812,20.6862646 8.69638059,22.9237826 C8.77586008,24.9722749 8.74442416,26.9599672 7.00931973,28.4600903 C9.37689899,31.0427262 11.6679644,33.5419569 13.8801435,35.9550544 Z M-9.88550839e-05,27.6718338 C0.341939735,27.2495467 0.765039495,26.8675979 1.00644361,26.3954236 C1.33543333,25.7519569 1.7257132,25.0443774 1.74113459,24.3566749 C1.80420414,21.5361005 1.73579642,18.7126031 1.71424601,15.89008 C1.7023834,14.3270133 2.29847956,13.3337518 3.53199329,12.8666441 C4.80247883,12.3853108 5.93100847,12.7335467 7.0184144,13.938439 C7.05993353,13.9848185 7.12557331,14.0097621 7.18053673,14.0440595 C9.0328833,12.46248 10.7403083,12.57648 12.2120628,14.4620595 C13.5207064,13.2889313 14.8206508,12.1165826 16.1288989,10.9528082 C17.8746797,9.39987487 19.4201801,9.45794667 20.8563468,10.9586544 C21.8959068,10.6564082 22.8154568,10.2380185 23.7658496,10.1522749 C24.8750036,10.0523056 25.6322336,10.8101621 26.1771228,11.7065723 C29.4903498,10.8809005 31.1752358,12.2697518 30.6609917,15.3715262 C32.533307,16.8884082 32.778863,17.9492903 31.7244747,19.9669928 C33.6750832,21.7089518 33.6893183,23.4039467 31.7458274,25.133239 C28.6431617,27.8937928 25.6049496,30.7317108 22.3887983,33.3574133 C20.9251499,34.5519774 19.1020644,35.3187979 17.4403105,36.2767877 C16.4395016,36.8539979 15.4355294,37.4259467 14.4327434,38.000039 L13.4441926,38.000039 C12.8214055,37.4586851 12.1986185,36.9171364 11.5457795,36.3498646 C11.2328043,36.5879979 10.9431589,36.7963159 10.6667601,37.0204185 C9.39390206,38.0526544 8.40376954,37.9782133 7.27346051,36.7557826 C6.21235004,35.6083774 5.13878383,34.47208 4.09724666,33.3079159 C2.71802053,31.7658954 1.36449672,30.2010749 -9.88550839e-05,28.6461928 L-9.88550839e-05,27.6718338 Z" id="Fill-4"></path>
                <path d="M35.1691499,5.49801627 C33.7051443,6.22388519 32.2465729,6.96219758 30.7743154,7.66919391 C30.2033251,7.94336497 29.7053941,7.76397165 29.4304654,7.17975087 C29.1499012,6.583294 29.3654566,6.07539315 29.9189369,5.80163687 C31.1784566,5.17884134 32.4625308,4.60851576 33.7319126,4.00687412 C34.4655255,3.6592866 34.7933871,4.21073959 35.1691499,4.66845179 L35.1691499,5.49801627 Z" id="Fill-9"></path>
                <path d="M30.2845457,0.807233379 C29.7610103,2.48707129 29.3214316,4.02296983 28.7799785,5.50509557 C28.6929501,5.74288178 28.0555952,5.94120733 27.8390481,5.79767688 C27.5771097,5.62429536 27.2934996,5.00253452 27.3649994,4.68725822 C27.6825676,3.28507609 28.0760725,1.89843286 28.5550699,0.564540145 C28.6702545,0.244152364 29.2221168,-0.0120351855 29.565623,0.000436834116 C29.8106676,0.00943304495 30.0427433,0.517514498 30.2845457,0.807233379" id="Fill-11"></path>
                <path d="M22.4691791,0.771490839 C22.6213611,0.5828131 22.8250854,0.095909668 23.1206893,0.024650319 C23.4731323,-0.0604354708 24.1138451,0.0812323692 24.2662309,0.349678036 C25.0393645,1.71190153 25.7450654,3.12432564 26.3499227,4.57588922 C26.4717498,4.86879705 26.1580145,5.60457641 25.8575212,5.77474799 C25.5625284,5.94194157 24.7891911,5.7968703 24.63925,5.53289164 C23.865709,4.17130629 23.2235701,2.728464 22.5421124,1.31050932 C22.4991266,1.22095652 22.5115537,1.10268728 22.4691791,0.771490839" id="Fill-13"></path>
            </g>
        </g>
    </g>
</svg>