<?xml version="1.0" encoding="UTF-8" standalone="no"?><!-- Generator: Gravit.io --><svg xmlns="http://www.w3.org/2000/svg" xmlns:xlink="http://www.w3.org/1999/xlink" style="isolation:isolate" viewBox="0 0 64 64" width="64pt" height="64pt"><defs><clipPath id="_clipPath_3EYWwjZndKpOha3l2tX4eqDVIdCChptZ"><rect width="64" height="64"/></clipPath></defs><g clip-path="url(#_clipPath_3EYWwjZndKpOha3l2tX4eqDVIdCChptZ)"><g><path d=" M 56.545 32 C 56.545 18.444 45.556 7.455 32 7.455 C 18.443 7.455 7.455 18.444 7.455 32 C 7.455 45.556 18.443 56.545 32 56.545 C 45.556 56.545 56.545 45.556 56.545 32 Z  M 62 32 C 62 48.568 48.568 62 32 62 C 15.431 62 2 48.569 2 32 C 2 15.431 15.431 2 32 2 C 48.568 2 62 15.432 62 32 Z " fill="rgb(26,116,186)"/><path d=" M 45.224 45.781 C 43.479 45.323 41.922 44.675 40.36 44.034 C 39.288 42.9 38.164 41.821 37.068 40.712 L 30.456 34.1 L 29.818 33.461 L 29.818 32.557 L 29.818 23.206 L 29.818 18.53 C 30.482 16.971 31.124 15.414 32 13.855 C 32.875 15.414 33.519 16.971 34.182 18.53 L 34.182 23.206 L 34.182 32.557 L 33.543 31.015 L 40.156 37.627 C 41.263 38.722 42.343 39.846 43.475 40.917 C 44.118 42.479 44.765 44.036 45.224 45.781 Z " fill="rgb(26,116,186)"/></g></g></svg>