<?xml version="1.0" encoding="UTF-8" standalone="no"?><!-- Generator: Gravit.io --><svg xmlns="http://www.w3.org/2000/svg" xmlns:xlink="http://www.w3.org/1999/xlink" style="isolation:isolate" viewBox="0 0 64 64" width="64pt" height="64pt"><defs><clipPath id="_clipPath_IuNIDhPkiJ6AV1LxnsNUxGLtzMRp6cmk"><rect width="64" height="64"/></clipPath></defs><g clip-path="url(#_clipPath_IuNIDhPkiJ6AV1LxnsNUxGLtzMRp6cmk)"><path d=" M 28.766 20.713 C 35.015 18.921 41.499 22.516 43.29 28.764 C 45.082 35.013 41.488 41.496 35.239 43.288 C 28.99 45.08 22.507 41.486 20.715 35.237 C 18.923 28.989 22.517 22.505 28.766 20.713 Z  M 28.047 18.205 C 20.443 20.385 16.026 28.353 18.207 35.957 C 20.387 43.561 28.355 47.977 35.959 45.797 C 43.563 43.616 47.979 35.649 45.799 28.045 C 43.618 20.441 35.651 16.024 28.047 18.205 Z  M 21.55 6.495 L 27.351 4.831 L 30.674 10.135 C 30.908 10.51 31.342 10.75 31.783 10.75 C 33.551 10.731 35.295 10.949 36.984 11.358 C 37.42 11.462 37.905 11.323 38.219 11.004 L 42.647 6.553 L 47.923 9.493 L 46.514 15.603 C 46.416 16.031 46.552 16.506 46.863 16.817 C 48.106 18.033 49.214 19.398 50.135 20.906 C 50.365 21.289 50.803 21.539 51.25 21.54 L 57.503 21.529 L 59.172 27.349 L 53.863 30.653 C 53.485 30.891 53.245 31.335 53.253 31.781 C 53.272 33.549 53.055 35.294 52.645 36.983 C 52.547 37.411 52.683 37.886 52.993 38.197 L 57.425 42.631 L 54.509 47.921 L 48.395 46.493 C 47.958 46.396 47.475 46.543 47.166 46.867 C 45.951 48.109 44.581 49.198 43.072 50.119 C 42.694 50.357 42.455 50.801 42.463 51.248 L 42.455 57.507 L 36.655 59.17 L 33.331 53.866 C 33.101 53.483 32.663 53.233 32.216 53.232 C 30.449 53.25 28.709 53.053 27.021 52.644 C 26.588 52.532 26.1 52.664 25.781 52.977 L 21.353 57.429 L 16.076 54.488 L 17.485 48.379 C 17.584 47.95 17.447 47.475 17.137 47.164 C 15.894 45.95 14.785 44.584 13.865 43.076 C 13.635 42.693 13.197 42.443 12.75 42.441 L 6.497 42.453 L 4.828 36.633 L 10.137 33.329 C 10.515 33.091 10.754 32.647 10.746 32.2 C 10.728 30.434 10.944 28.688 11.355 26.999 C 11.453 26.571 11.317 26.096 11.006 25.785 L 6.574 21.35 L 9.491 16.061 L 15.605 17.488 C 16.04 17.593 16.525 17.454 16.839 17.134 C 18.054 15.893 19.419 14.783 20.927 13.863 C 21.302 13.629 21.543 13.195 21.542 12.753 L 21.55 6.495 Z  M 19.871 4.262 C 19.242 4.465 19.05 4.994 18.934 5.506 L 18.926 12.061 C 17.697 12.87 16.573 13.794 15.532 14.794 L 9.124 13.302 C 8.578 13.181 7.967 13.456 7.696 13.945 L 3.805 20.936 C 3.525 21.431 3.618 22.107 4.022 22.507 L 8.683 27.151 C 8.387 28.561 8.216 30.004 8.183 31.472 L 2.602 34.938 C 2.127 35.239 1.89 35.872 2.05 36.412 L 4.264 44.132 C 4.421 44.666 4.952 45.066 5.508 45.07 L 12.083 45.072 C 12.886 46.293 13.797 47.417 14.791 48.452 L 13.299 54.86 C 13.168 55.413 13.448 56.037 13.947 56.308 L 20.952 60.173 C 21.441 60.446 22.105 60.355 22.503 59.962 L 27.147 55.3 C 28.557 55.598 30 55.766 31.468 55.801 L 34.954 61.375 C 35.247 61.855 35.872 62.103 36.414 61.954 L 44.134 59.74 C 44.673 59.579 45.072 59.037 45.066 58.476 L 45.068 51.901 C 46.295 51.094 47.43 50.186 48.468 49.187 L 54.876 50.679 C 55.422 50.802 56.033 50.527 56.303 50.037 L 60.195 43.046 C 60.475 42.552 60.382 41.875 59.978 41.475 L 55.317 36.831 C 55.611 35.427 55.788 33.991 55.822 32.53 L 61.397 29.044 C 61.867 28.746 62.105 28.126 61.955 27.59 L 59.742 19.869 C 59.591 19.326 59.055 18.915 58.492 18.912 L 51.922 18.93 C 51.116 17.702 50.207 16.569 49.209 15.53 L 50.701 9.122 C 50.831 8.569 50.552 7.946 50.052 7.674 L 43.048 3.808 C 42.559 3.537 41.895 3.627 41.496 4.02 L 36.853 8.681 C 35.441 8.384 33.997 8.196 32.526 8.162 L 29.046 2.607 C 28.748 2.136 28.128 1.898 27.592 2.048 L 19.871 4.262 Z " fill-rule="evenodd" fill="rgb(26,116,186)"/></g></svg>