<?xml version="1.0" encoding="UTF-8" standalone="no"?>
<svg width="52px" height="52px" viewBox="0 0 52 52" version="1.1" xmlns="http://www.w3.org/2000/svg" xmlns:xlink="http://www.w3.org/1999/xlink">
    <!-- Generator: Sketch 49.1 (51147) - http://www.bohemiancoding.com/sketch -->
    <title>v2/block_05_icon</title>
    <desc>Created with Sketch.</desc>
    <defs></defs>
    <g id="Assets---HP" stroke="none" stroke-width="1" fill="none" fill-rule="evenodd">
        <g id="v2/block_05_icon" transform="translate(-1.000000, -1.000000)">
            <g transform="translate(1.000000, 1.000000)">
                <path d="M26,51.75 C11.7786677,51.75 0.25,40.2213323 0.25,26 C0.25,11.7786677 11.7786677,0.25 26,0.25 C40.2213323,0.25 51.75,11.7786677 51.75,26 C51.75,40.2213323 40.2213323,51.75 26,51.75 Z M26,50.25 C39.3929052,50.25 50.25,39.3929052 50.25,26 C50.25,12.6070948 39.3929052,1.75 26,1.75 C12.6070948,1.75 1.75,12.6070948 1.75,26 C1.75,39.3929052 12.6070948,50.25 26,50.25 Z" id="Oval-2" fill="#16202C" fill-rule="nonzero"></path>
                <g id="Group-2" transform="translate(25.711183, 25.711183) rotate(-45.000000) translate(-25.711183, -25.711183) translate(9.970442, 10.433405)">
                    <path d="M6.53466486,5.84226973 L12.1264987,18.6729976 L24.9572265,24.2648314 L19.4426519,11.3568443 L6.53466486,5.84226973 Z" id="Rectangle" stroke="#16202C" stroke-width="1.5" transform="translate(15.740741, 15.058756) rotate(-315.000000) translate(-15.740741, -15.058756) "></path>
                    <circle id="Oval" fill="#16202C" cx="15.7407407" cy="14.8148148" r="1"></circle>
                </g>
                <g id="Group" transform="translate(5.166667, 25.074074)" stroke="#16202C" stroke-linecap="round" stroke-width="1.5">
                    <path d="M0,0.925925926 L2.77777778,0.925925926" id="Line"></path>
                    <path d="M38.8888889,0.925925926 L41.6666667,0.925925926" id="Line"></path>
                </g>
                <g id="Group" transform="translate(26.000000, 26.000000) rotate(-270.000000) translate(-26.000000, -26.000000) translate(5.166667, 25.074074)" stroke="#16202C" stroke-linecap="round" stroke-width="1.5">
                    <path d="M0,0.925925926 L2.77777778,0.925925926" id="Line"></path>
                    <path d="M38.8888889,0.925925926 L41.6666667,0.925925926" id="Line"></path>
                </g>
            </g>
        </g>
    </g>
</svg>