<?xml version="1.0" encoding="UTF-8" standalone="no"?>
<svg width="32px" height="33px" viewBox="0 0 32 33" version="1.1" xmlns="http://www.w3.org/2000/svg" xmlns:xlink="http://www.w3.org/1999/xlink">
    <!-- Generator: Sketch 49.1 (51147) - http://www.bohemiancoding.com/sketch -->
    <title>calendar/conference_icon</title>
    <desc>Created with Sketch.</desc>
    <defs></defs>
    <g id="Assets---Explore" stroke="none" stroke-width="1" fill="none" fill-rule="evenodd">
        <g id="calendar/conference_icon" transform="translate(-1.000000, -1.000000)" fill="#FFFFFF">
            <g transform="translate(1.000000, 1.000000)">
                <path d="M28.8868174,27.6581033 C28.9754009,27.6681168 29.0639844,27.6778735 29.1525679,27.6878871 C29.4654931,26.9301973 29.7781561,26.1722507 30.1345868,25.3090338 L27.8657484,25.3090338 C28.2449801,26.181494 28.5660298,26.9196702 28.8868174,27.6581033 Z M29.9238734,9.80502165 C29.9954216,9.08071027 30.1917205,8.40569622 29.4374503,8.05291216 C29.1816589,7.93326342 28.7235407,7.95970938 28.4913366,8.11325005 C27.8379678,8.54511525 28.0452741,9.18366981 28.1362164,9.80502165 L29.9238734,9.80502165 Z M28.0856347,13.6337814 L29.9094589,13.6337814 L29.9094589,11.8149151 L28.0856347,11.8149151 L28.0856347,13.6337814 Z M28.1086978,23.1846268 L29.9015964,23.1846268 L29.9015964,15.6043911 L28.1086978,15.6043911 L28.1086978,23.1846268 Z M31.9814742,17.4794871 C31.9814742,19.9150837 31.945307,22.3514504 31.9979853,24.7860199 C32.0215726,25.886737 31.8417848,26.881927 31.2607504,27.8368061 C30.7722308,28.6396851 30.4338837,29.5298615 29.9495573,30.3355648 C29.4306362,31.1990385 28.589093,31.2347277 28.1204915,30.3614973 C27.0380954,28.3436443 25.9014485,26.4110347 26.0068052,23.9120192 C26.2031042,19.2624075 26.0586974,14.5991876 26.0689185,9.94187311 C26.0699669,9.38958889 26.1040374,8.82960196 26.2017938,8.28681775 C26.4347841,6.99635728 27.4990966,6.09257278 28.81789,6.00681596 C30.1466425,5.92054562 31.3506443,6.65897863 31.7482218,7.89500663 C31.9151676,8.41314217 31.9670597,8.98416965 31.9717772,9.53183224 C31.9935299,12.1810505 31.9814742,14.8302688 31.9814742,17.4794871 Z" id="Fill-6"></path>
                <g id="Group-2">
                    <g id="Group-3">
                        <path d="M20.874408,5.95295937 C20.2444421,5.28140118 19.5912918,4.58560631 18.9264248,3.8769357 L18.9264248,5.95295937 L20.874408,5.95295937 Z M1.951249,30.5506714 L22.4743769,30.5506714 L22.4743769,7.86841499 C21.0927896,7.86841499 19.810172,7.87598895 18.5275544,7.86639527 C17.1407319,7.85604418 16.9814331,7.68663984 16.9752007,6.24051755 C16.9694669,4.90245049 16.9739542,3.5646359 16.9739542,2.24247416 L1.951249,2.24247416 L1.951249,30.5506714 Z M18.4757012,0.244209862 C20.1250303,1.98798895 21.7399568,3.76711321 23.4391446,5.45938935 C24.1743126,6.19153925 24.4944061,6.93202051 24.4881737,7.9941428 C24.4445473,15.6011803 24.4659866,23.2087227 24.4639922,30.8160126 C24.4634936,32.4242178 24.3296227,32.5640836 22.7747761,32.564841 C15.7195069,32.5673657 9.16282559,32.5769594 2.10755633,32.5438864 C1.52370981,32.5597917 0.0279458565,32.5597917 0.0279458565,31.2974643 L0.0279458565,0.749140828 C0.194224949,0.580998817 0.360504041,0.412604339 0.52653384,0.244209862 L18.4757012,0.244209862 Z" id="Fill-1"></path>
                    </g>
                    <g id="Group" transform="translate(4.000000, 5.000000)">
                        <path d="M2.96772424,19.7996978 C3.91138191,18.7796019 4.79152179,17.8306456 5.66821497,16.8786075 C6.14262883,16.3634231 6.66726606,16.061144 7.24015711,16.676232 C7.78055069,17.2571627 7.4368653,17.771063 7.00775095,18.2230692 C5.94345872,19.3435824 4.86734923,20.4517681 3.80379558,21.5730517 C3.21047051,22.1986694 2.63314798,22.2782842 2.01643458,21.604384 C1.50878467,21.0499059 0.965190581,20.531126 0.460741176,19.9735661 C0.0855430832,19.558799 -0.0429696494,19.0726355 0.365464495,18.6029085 C0.813781902,18.0872105 1.30739882,18.1866005 1.76384059,18.6054768 C2.12992954,18.9413996 2.47213778,19.3055728 2.96772424,19.7996978" id="Fill-8"></path>
                        <path d="M2.94970713,4.18638046 C3.89149217,3.18009483 4.74931677,2.26804416 5.60147835,1.3506013 C6.05919819,0.85785771 6.56837766,0.451132412 7.17826042,1.02193439 C7.80636334,1.60942649 7.45550224,2.16636283 6.98399417,2.65987674 C5.91639157,3.77657391 4.84411082,4.8886492 3.77847797,6.00740054 C3.17228848,6.64367913 2.59318301,6.65677445 1.99167168,5.98865626 C1.48864766,5.42992251 0.941796794,4.91406953 0.439265219,4.35507902 C0.0586117082,3.9316636 -0.0258411729,3.44482575 0.386820718,2.98700302 C0.798005299,2.53072091 1.26778984,2.58541314 1.69448617,2.95721758 C2.09877664,3.30976419 2.46588815,3.70878636 2.94970713,4.18638046" id="Fill-10"></path>
                        <path d="M2.82866961,11.7347235 C3.8755464,10.6030607 4.74736923,9.66324848 5.61549895,8.72011085 C6.07443082,8.22206665 6.59023676,7.84066763 7.19073828,8.41903328 C7.81265991,9.01760721 7.43694637,9.56450936 6.97112067,10.0502751 C5.93286117,11.13308 4.90346516,12.2256053 3.84698626,13.2892251 C3.0596128,14.0819519 2.70778144,14.0630226 1.89455613,13.2485528 C1.39475372,12.7482064 0.900860296,12.2399302 0.428879394,11.7111899 C0.0465182355,11.2827235 -0.017495867,10.7974693 0.399088216,10.3495621 C0.818134379,9.89935264 1.30119464,9.95844263 1.70349866,10.3493063 C2.05951555,10.6954048 2.34043898,11.1243828 2.82866961,11.7347235" id="Fill-12"></path>
                        <path d="M12.9121885,4.85030122 C13.7642251,4.85118611 14.6162617,4.85583181 15.4680535,4.84963755 C16.0735382,4.84521308 16.5477896,5.0500661 16.5661524,5.63210531 C16.5867188,6.28515729 16.0777004,6.48735563 15.4252068,6.48558584 C13.7211336,6.48094015 12.0170604,6.47850669 10.313232,6.48713441 C9.66122809,6.49045276 9.14951644,6.31148289 9.16298254,5.64803341 C9.17693831,4.97706232 9.71925472,4.83769148 10.3563235,4.84654042 C11.2081153,4.85804404 12.0603967,4.84941632 12.9121885,4.85030122" id="Fill-14"></path>
                        <path d="M12.8834715,21.2552469 C11.9909914,21.2552469 11.0985113,21.2521407 10.206276,21.2561344 C9.58403666,21.2590187 9.15786883,21.0160695 9.1627645,20.4285539 C9.16766017,19.8385977 9.60508803,19.6136201 10.2234108,19.615395 C11.9674922,19.6204981 13.7115736,19.6211637 15.455655,19.6156169 C16.0575773,19.6138419 16.5390662,19.8046514 16.5655028,20.3897264 C16.5951216,21.0433597 16.0955187,21.26035 15.438765,21.2563563 C14.5869189,21.2514751 13.7350728,21.2552469 12.8834715,21.2552469" id="Fill-16"></path>
                        <path d="M12.8834715,13.0501187 C11.9909914,13.0501187 11.0985113,13.0470125 10.206276,13.0510062 C9.58403666,13.0538905 9.15786883,12.8109413 9.1627645,12.2234257 C9.16766017,11.6334695 9.60508803,11.4084919 10.2234108,11.4102668 C11.9674922,11.4153699 13.7115736,11.4160355 15.455655,11.4104887 C16.0575773,11.4087137 16.5390662,11.5995232 16.5655028,12.1845982 C16.5951216,12.8382315 16.0955187,13.0552218 15.438765,13.0512281 C14.5869189,13.0463469 13.7350728,13.0501187 12.8834715,13.0501187" id="Fill-18"></path>
                    </g>
                </g>
            </g>
        </g>
    </g>
</svg>