<?xml version="1.0" encoding="UTF-8" standalone="no"?>
<svg width="41px" height="41px" viewBox="0 0 41 41" version="1.1" xmlns="http://www.w3.org/2000/svg" xmlns:xlink="http://www.w3.org/1999/xlink">
    <!-- Generator: Sketch 50.2 (55047) - http://www.bohemiancoding.com/sketch -->
    <title>others/equity-banner/connect</title>
    <desc>Created with Sketch.</desc>
    <defs></defs>
    <g id="Assets---Raise-Finance,-Equity,-Debt" stroke="none" stroke-width="1" fill="none" fill-rule="evenodd">
        <g id="AIM/go_public" fill="#009cde">
            <g id="others/equity-banner/connect" transform="translate(-4.000000, -4.000000)">
                <path d="M35.6119238,27.6034627 L41.8183039,27.6034627 L41.8183039,21.3970827 L35.6119238,21.3970827 L35.6119238,27.6034627 Z M37.6239931,36.5336904 C37.6239931,37.1352931 37.1347477,37.6245385 36.533145,37.6245385 L29.7846134,37.6245385 L29.7846134,33.4302277 L19.2148411,33.4302277 L19.2148411,37.6245385 L12.4663096,37.6245385 C11.8652523,37.6245385 11.3754615,37.1352931 11.3754615,36.5336904 L11.3754615,29.7851589 L15.5697723,29.7851589 L15.5697723,19.2153866 L11.3754615,19.2153866 L11.3754615,12.466855 C11.3754615,11.8652523 11.8652523,11.3760069 12.4663096,11.3760069 L19.2148411,11.3760069 L19.2148411,15.5697723 L29.7846134,15.5697723 L29.7846134,11.3760069 L36.533145,11.3760069 C37.1347477,11.3760069 37.6239931,11.8652523 37.6239931,12.466855 L37.6239931,19.2153866 L33.4302277,19.2153866 L33.4302277,29.7851589 L37.6239931,29.7851589 L37.6239931,36.5336904 Z M21.3965373,41.8183039 L27.6029173,41.8183039 L27.6029173,35.6119238 L21.3965373,35.6119238 L21.3965373,41.8183039 Z M7.18169613,27.6034627 L13.3880762,27.6034627 L13.3880762,21.3970827 L7.18169613,21.3970827 L7.18169613,27.6034627 Z M21.3965373,13.3880762 L27.6029173,13.3880762 L27.6029173,7.18169613 L21.3965373,7.18169613 L21.3965373,13.3880762 Z M44,19.2153866 L39.8056892,19.2153866 L39.8056892,12.466855 C39.8056892,10.6620469 38.3379531,9.19431081 36.533145,9.19431081 L29.7846134,9.19431081 L29.7846134,5 L19.2148411,5 L19.2148411,9.19431081 L12.4663096,9.19431081 C10.6620469,9.19431081 9.19376538,10.6620469 9.19376538,12.466855 L9.19376538,19.2153866 L5,19.2153866 L5,29.7851589 L9.19376538,29.7851589 L9.19376538,36.5336904 C9.19376538,38.3379531 10.6620469,39.8062346 12.4663096,39.8062346 L19.2148411,39.8062346 L19.2148411,44 L29.7846134,44 L29.7846134,39.8062346 L36.533145,39.8062346 C38.3379531,39.8062346 39.8056892,38.3379531 39.8056892,36.5336904 L39.8056892,29.7851589 L44,29.7851589 L44,19.2153866 Z" id="assessment_tool/connect" transform="translate(24.500000, 24.500000) rotate(-16.000000) translate(-24.500000, -24.500000) "></path>
            </g>
        </g>
    </g>
</svg>