<?xml version="1.0" encoding="UTF-8"?>
<svg width="32px" height="40px" viewBox="0 0 32 40" version="1.1" xmlns="http://www.w3.org/2000/svg" xmlns:xlink="http://www.w3.org/1999/xlink">
    <!-- Generator: Sketch 55.2 (78181) - https://sketchapp.com -->
    <title>CSV</title>
    <desc>Created with Sketch.</desc>
    <g id="SEARCH" stroke="none" stroke-width="1" fill="none" fill-rule="evenodd">
        <g id="CSV">
            <g id="Group-83" stroke="#A2A6AB">
                <path d="M9.7056632,0.5 L0.5,9.69408187 L0.5,39.5 L31.0789474,39.5 L31.0789474,0.5 L9.7056632,0.5 Z" id="Rectangle"></path>
                <polyline id="Rectangle-2" points="10.5263158 1.05263158 10.5263158 10.5263158 1.05263158 10.5263158"></polyline>
            </g>
            <path d="M11.192,26.08 C11.0613327,25.6506645 10.8723346,25.307668 10.625,25.051 C10.3776654,24.7943321 10.0113358,24.666 9.526,24.666 C8.76066284,24.666 8.17966865,24.9739969 7.783,25.59 C7.38633135,26.2060031 7.188,27.0926609 7.188,28.25 C7.188,28.791336 7.22766627,29.2929977 7.307,29.755 C7.38633373,30.2170023 7.52633233,30.6159983 7.727,30.952 C7.92766767,31.2880017 8.19599832,31.5516657 8.532,31.743 C8.86800168,31.9343343 9.2926641,32.03 9.806,32.03 C10.2073353,32.03 10.6156646,31.9693339 11.031,31.848 C11.4463354,31.7266661 11.7939986,31.5726676 12.074,31.386 L12.032,32.31 C11.7333318,32.4966676 11.3646689,32.6459994 10.926,32.758 C10.4873311,32.8700006 10.0533355,32.926 9.624,32.926 C8.39199384,32.926 7.47500301,32.527004 6.873,31.729 C6.27099699,30.930996 5.97,29.7853408 5.97,28.292 C5.97,27.5919965 6.04933254,26.9666694 6.208,26.416 C6.36666746,25.8653306 6.59766515,25.3963353 6.901,25.009 C7.20433485,24.6216647 7.57766445,24.3253344 8.021,24.12 C8.46433555,23.9146656 8.97533044,23.812 9.554,23.812 C10.2446701,23.812 10.8279976,23.9799983 11.304,24.316 C11.7800024,24.6520017 12.0973325,25.1559966 12.256,25.828 L11.192,26.08 Z M19.34,30.49 C19.34,30.9380022 19.2583342,31.3159985 19.095,31.624 C18.9316659,31.9320015 18.7100014,32.1816657 18.43,32.373 C18.1499986,32.5643343 17.8280018,32.7043329 17.464,32.793 C17.0999982,32.8816671 16.7173353,32.926 16.316,32.926 C15.8866645,32.926 15.4666687,32.8840004 15.056,32.8 C14.6453313,32.7159996 14.2673351,32.5993341 13.922,32.45 L13.964,31.498 C14.3186684,31.6846676 14.6966647,31.8293328 15.098,31.932 C15.4993353,32.0346672 15.9006647,32.086 16.302,32.086 C16.9180031,32.086 17.4009983,31.9553346 17.751,31.694 C18.1010018,31.4326654 18.276,31.0640024 18.276,30.588 C18.276,30.195998 18.1663344,29.8880011 17.947,29.664 C17.7276656,29.4399989 17.4570016,29.2510008 17.135,29.097 C16.8129984,28.9429992 16.4606686,28.8006673 16.078,28.67 C15.6953314,28.5393327 15.3430016,28.376001 15.021,28.18 C14.6989984,27.983999 14.4283344,27.7320015 14.209,27.424 C13.9896656,27.1159985 13.88,26.7006693 13.88,26.178 C13.88,25.8326649 13.9383328,25.5270013 14.055,25.261 C14.1716673,24.9949987 14.3326656,24.764001 14.538,24.568 C14.8180014,24.297332 15.1563314,24.1036673 15.553,23.987 C15.9496687,23.8703328 16.3906642,23.812 16.876,23.812 C17.1840015,23.812 17.5106649,23.842333 17.856,23.903 C18.2013351,23.963667 18.509332,24.0406662 18.78,24.134 L18.738,25.016 C18.4486652,24.9133328 18.138335,24.8270004 17.807,24.757 C17.475665,24.6869997 17.1466683,24.652 16.82,24.652 C16.2133303,24.652 15.7490016,24.7756654 15.427,25.023 C15.1049984,25.2703346 14.944,25.6133311 14.944,26.052 C14.944,26.4346686 15.0536656,26.7356656 15.273,26.955 C15.4923344,27.1743344 15.7629984,27.3586659 16.085,27.508 C16.4070016,27.6573341 16.7593314,27.7973327 17.142,27.928 C17.5246686,28.0586673 17.8769984,28.2243323 18.199,28.425 C18.5210016,28.6256677 18.7916656,28.8869984 19.011,29.209 C19.2303344,29.5310016 19.34,29.9579973 19.34,30.49 Z M27.166,23.938 L24.296,32.8 L23.092,32.8 L20.348,23.938 L21.524,23.938 L23.526,30.588 C23.5726669,30.7653342 23.6193331,30.9473324 23.666,31.134 C23.7126669,31.3206676 23.736,31.4746661 23.736,31.596 L23.75,31.596 C23.75,31.4746661 23.7686665,31.3206676 23.806,31.134 C23.8433335,30.9473324 23.8899997,30.7653342 23.946,30.588 L26.046,23.938 L27.166,23.938 Z" fill="#A2A6AB" fill-rule="nonzero"></path>
        </g>
    </g>
</svg>