<?xml version="1.0" encoding="UTF-8"?>
<svg width="32px" height="40px" viewBox="0 0 32 40" version="1.1" xmlns="http://www.w3.org/2000/svg" xmlns:xlink="http://www.w3.org/1999/xlink">
    <!-- Generator: Sketch 55.2 (78181) - https://sketchapp.com -->
    <title>DOC</title>
    <desc>Created with Sketch.</desc>
    <g id="SEARCH" stroke="none" stroke-width="1" fill="none" fill-rule="evenodd">
        <g id="DOC">
            <g id="Group-83" stroke="#A2A6AB">
                <path d="M9.7056632,0.5 L0.5,9.69408187 L0.5,39.5 L31.0789474,39.5 L31.0789474,0.5 L9.7056632,0.5 Z" id="Rectangle"></path>
                <polyline id="Rectangle-2" points="10.5263158 1.05263158 10.5263158 10.5263158 1.05263158 10.5263158"></polyline>
            </g>
            <path d="M11.039,28.306 C11.039,30.172676 10.5443383,31.4419966 9.555,32.114 C9.2283317,32.3380011 8.84333555,32.5083328 8.4,32.625 C7.95666445,32.7416673 7.42700308,32.8 6.811,32.8 L4.333,32.8 L4.333,24.764 L3.563,24.764 L3.563,23.938 L6.545,23.938 C7.1050028,23.938 7.57399811,23.9729997 7.952,24.043 C8.33000189,24.1130004 8.69166494,24.2273325 9.037,24.386 C9.69966998,24.6846682 10.1989983,25.1419969 10.535,25.758 C10.8710017,26.3740031 11.039,27.2233279 11.039,28.306 Z M9.821,28.264 C9.821,27.405329 9.71133443,26.7216692 9.492,26.213 C9.27266557,25.7043308 8.89700266,25.3286679 8.365,25.086 C8.14099888,24.9833328 7.87500154,24.9040003 7.567,24.848 C7.25899846,24.7919997 6.88566886,24.764 6.447,24.764 L5.495,24.764 L5.495,31.974 L6.643,31.974 C7.17500266,31.974 7.63466473,31.9156673 8.022,31.799 C8.40933527,31.6823328 8.73833198,31.4840014 9.009,31.204 C9.30766816,30.8959985 9.51766606,30.4970025 9.639,30.007 C9.76033394,29.5169976 9.821,28.9360034 9.821,28.264 Z M19.383,28.362 C19.383,29.8086739 19.0773364,30.930996 18.466,31.729 C17.8546636,32.527004 16.9890056,32.926 15.869,32.926 C14.739661,32.926 13.8716697,32.527004 13.265,31.729 C12.6583303,30.930996 12.355,29.8086739 12.355,28.362 C12.355,26.9153261 12.6583303,25.7953373 13.265,25.002 C13.8716697,24.2086627 14.739661,23.812 15.869,23.812 C16.9890056,23.812 17.8546636,24.2086627 18.466,25.002 C19.0773364,25.7953373 19.383,26.9153261 19.383,28.362 Z M18.165,28.362 C18.165,27.0739936 17.9666687,26.1383363 17.57,25.555 C17.1733314,24.9716638 16.606337,24.68 15.869,24.68 C15.131663,24.68 14.5646687,24.9716638 14.168,25.555 C13.7713314,26.1383363 13.573,27.0739936 13.573,28.362 C13.573,29.6500064 13.7713314,30.5879971 14.168,31.176 C14.5646687,31.7640029 15.131663,32.058 15.869,32.058 C16.606337,32.058 17.1733314,31.7640029 17.57,31.176 C17.9666687,30.5879971 18.165,29.6500064 18.165,28.362 Z M25.921,26.08 C25.7903327,25.6506645 25.6013346,25.307668 25.354,25.051 C25.1066654,24.7943321 24.7403358,24.666 24.255,24.666 C23.4896628,24.666 22.9086687,24.9739969 22.512,25.59 C22.1153314,26.2060031 21.917,27.0926609 21.917,28.25 C21.917,28.791336 21.9566663,29.2929977 22.036,29.755 C22.1153337,30.2170023 22.2553323,30.6159983 22.456,30.952 C22.6566677,31.2880017 22.9249983,31.5516657 23.261,31.743 C23.5970017,31.9343343 24.0216641,32.03 24.535,32.03 C24.9363353,32.03 25.3446646,31.9693339 25.76,31.848 C26.1753354,31.7266661 26.5229986,31.5726676 26.803,31.386 L26.761,32.31 C26.4623318,32.4966676 26.0936689,32.6459994 25.655,32.758 C25.2163311,32.8700006 24.7823355,32.926 24.353,32.926 C23.1209938,32.926 22.204003,32.527004 21.602,31.729 C20.999997,30.930996 20.699,29.7853408 20.699,28.292 C20.699,27.5919965 20.7783325,26.9666694 20.937,26.416 C21.0956675,25.8653306 21.3266652,25.3963353 21.63,25.009 C21.9333349,24.6216647 22.3066645,24.3253344 22.75,24.12 C23.1933356,23.9146656 23.7043304,23.812 24.283,23.812 C24.9736701,23.812 25.5569976,23.9799983 26.033,24.316 C26.5090024,24.6520017 26.8263325,25.1559966 26.985,25.828 L25.921,26.08 Z" fill="#A2A6AB" fill-rule="nonzero"></path>
        </g>
    </g>
</svg>