<?xml version="1.0" encoding="UTF-8"?>
<svg width="32px" height="40px" viewBox="0 0 32 40" version="1.1" xmlns="http://www.w3.org/2000/svg" xmlns:xlink="http://www.w3.org/1999/xlink">
    <!-- Generator: Sketch 55.2 (78181) - https://sketchapp.com -->
    <title>DOCX</title>
    <desc>Created with Sketch.</desc>
    <g id="SEARCH" stroke="none" stroke-width="1" fill="none" fill-rule="evenodd">
        <g id="DOCX">
            <g id="Group-83" stroke="#A2A6AB">
                <path d="M9.7056632,0.5 L0.5,9.69408187 L0.5,39.5 L31.0789474,39.5 L31.0789474,0.5 L9.7056632,0.5 Z" id="Rectangle"></path>
                <polyline id="Rectangle-2" points="10.5263158 1.05263158 10.5263158 10.5263158 1.05263158 10.5263158"></polyline>
            </g>
            <path d="M8.416,28.948 C8.416,30.548008 7.99200424,31.6359971 7.144,32.212 C6.8639986,32.404001 6.5340019,32.5499995 6.154,32.65 C5.7739981,32.7500005 5.32000264,32.8 4.792,32.8 L2.668,32.8 L2.668,25.912 L2.008,25.912 L2.008,25.204 L4.564,25.204 C5.0440024,25.204 5.44599838,25.2339997 5.77,25.294 C6.09400162,25.3540003 6.40399852,25.4519993 6.7,25.588 C7.26800284,25.8440013 7.69599856,26.2359974 7.984,26.764 C8.27200144,27.2920026 8.416,28.0199954 8.416,28.948 Z M7.372,28.912 C7.372,28.1759963 7.27800094,27.5900022 7.09,27.154 C6.90199906,26.7179978 6.58000228,26.396001 6.124,26.188 C5.93199904,26.0999996 5.70400132,26.0320002 5.44,25.984 C5.17599868,25.9359998 4.85600188,25.912 4.48,25.912 L3.664,25.912 L3.664,32.092 L4.648,32.092 C5.10400228,32.092 5.49799834,32.0420005 5.83,31.942 C6.16200166,31.8419995 6.44399884,31.6720012 6.676,31.432 C6.93200128,31.1679987 7.11199948,30.8260021 7.216,30.406 C7.32000052,29.9859979 7.372,29.4880029 7.372,28.912 Z M15.568,28.996 C15.568,30.2360062 15.3060026,31.1979966 14.782,31.882 C14.2579974,32.5660034 13.5160048,32.908 12.556,32.908 C11.5879952,32.908 10.8440026,32.5660034 10.324,31.882 C9.8039974,31.1979966 9.544,30.2360062 9.544,28.996 C9.544,27.7559938 9.8039974,26.7960034 10.324,26.116 C10.8440026,25.4359966 11.5879952,25.096 12.556,25.096 C13.5160048,25.096 14.2579974,25.4359966 14.782,26.116 C15.3060026,26.7960034 15.568,27.7559938 15.568,28.996 Z M14.524,28.996 C14.524,27.8919945 14.3540017,27.0900025 14.014,26.59 C13.6739983,26.0899975 13.1880032,25.84 12.556,25.84 C11.9239968,25.84 11.4380017,26.0899975 11.098,26.59 C10.7579983,27.0900025 10.588,27.8919945 10.588,28.996 C10.588,30.1000055 10.7579983,30.9039975 11.098,31.408 C11.4380017,31.9120025 11.9239968,32.164 12.556,32.164 C13.1880032,32.164 13.6739983,31.9120025 14.014,31.408 C14.3540017,30.9039975 14.524,30.1000055 14.524,28.996 Z M21.172,27.04 C21.0599994,26.6719982 20.8980011,26.3780011 20.686,26.158 C20.4739989,25.9379989 20.1600021,25.828 19.744,25.828 C19.0879967,25.828 18.5900017,26.0919974 18.25,26.62 C17.9099983,27.1480026 17.74,27.907995 17.74,28.9 C17.74,29.3640023 17.7739997,29.793998 17.842,30.19 C17.9100003,30.586002 18.0299991,30.9279986 18.202,31.216 C18.3740009,31.5040014 18.6039986,31.7299992 18.892,31.894 C19.1800014,32.0580008 19.5439978,32.14 19.984,32.14 C20.3280017,32.14 20.6779982,32.0880005 21.034,31.984 C21.3900018,31.8799995 21.6879988,31.7480008 21.928,31.588 L21.892,32.38 C21.6359987,32.5400008 21.3200019,32.6679995 20.944,32.764 C20.5679981,32.8600005 20.196,32.908 19.828,32.908 C18.7719947,32.908 17.9860026,32.5660034 17.47,31.882 C16.9539974,31.1979966 16.696,30.2160064 16.696,28.936 C16.696,28.335997 16.7639993,27.8000024 16.9,27.328 C17.0360007,26.8559976 17.2339987,26.4540017 17.494,26.122 C17.7540013,25.7899983 18.0739981,25.5360009 18.454,25.36 C18.8340019,25.1839991 19.2719975,25.096 19.768,25.096 C20.360003,25.096 20.859998,25.2399986 21.268,25.528 C21.676002,25.8160014 21.9479993,26.2479971 22.084,26.824 L21.172,27.04 Z M28.78,32.668 C28.7079996,32.7240003 28.6180005,32.7699998 28.51,32.806 C28.4019995,32.8420002 28.2880006,32.86 28.168,32.86 C27.9359988,32.86 27.7380008,32.8040006 27.574,32.692 C27.4099992,32.5799994 27.2480008,32.3760015 27.088,32.08 L25.756,29.68 L24.052,32.8 L23.02,32.8 L25.276,28.864 L23.2,25.204 L24.292,25.204 L25.924,28.144 L27.496,25.204 L28.504,25.204 L26.392,28.972 L27.952,31.792 C28.0400004,31.9360007 28.1139997,32.0339997 28.174,32.086 C28.2340003,32.1380003 28.3199994,32.164 28.432,32.164 C28.4960003,32.164 28.5639996,32.1520001 28.636,32.128 C28.7080004,32.1039999 28.7679998,32.0720002 28.816,32.032 L28.78,32.668 Z" fill="#A2A6AB" fill-rule="nonzero"></path>
        </g>
    </g>
</svg>