<?xml version="1.0" standalone="no"?><!-- Generator: Gravit.io --><svg xmlns="http://www.w3.org/2000/svg" xmlns:xlink="http://www.w3.org/1999/xlink" style="isolation:isolate" viewBox="0 0 9 15" width="9" height="15"><defs><clipPath id="_clipPath_tfOUPmOc4JUFbXWfEa8I7DlHy7LkAKLh"><rect width="9" height="15"/></clipPath></defs><g clip-path="url(#_clipPath_tfOUPmOc4JUFbXWfEa8I7DlHy7LkAKLh)"><g><g><path d=" M 4.947 11.193 L 8.278 8.356 C 8.553 8.121 8.576 7.721 8.327 7.461 C 8.08 7.201 7.657 7.179 7.382 7.413 L 5.17 9.297 L 5.17 0.634 C 5.17 0.283 4.87 0 4.499 0 C 4.13 0 3.83 0.283 3.83 0.634 L 3.83 9.297 L 1.617 7.413 C 1.343 7.179 0.919 7.201 0.672 7.461 C 0.556 7.582 0.5 7.734 0.5 7.885 C 0.5 8.059 0.575 8.231 0.722 8.356 L 4.052 11.193 C 4.307 11.41 4.693 11.41 4.947 11.193 Z " fill-rule="evenodd" fill="rgb(255,255,255)"/><path d=" M 8.31 14.986 L 0.69 14.986 C 0.309 14.986 0 14.65 0 14.236 C 0 13.822 0.309 13.486 0.69 13.486 L 8.31 13.486 C 8.691 13.486 9 13.822 9 14.236 C 9 14.65 8.691 14.986 8.31 14.986 Z " fill-rule="evenodd" fill="rgb(255,255,255)"/></g></g></g></svg>