<?xml version="1.0" encoding="UTF-8" standalone="no"?>
<svg width="30px" height="40px" viewBox="0 0 30 40" version="1.1" xmlns="http://www.w3.org/2000/svg" xmlns:xlink="http://www.w3.org/1999/xlink">
    <!-- Generator: Sketch 49.1 (51147) - http://www.bohemiancoding.com/sketch -->
    <title>others/download_document_gold</title>
    <desc>Created with Sketch.</desc>
    <defs></defs>
    <g id="library" stroke="none" stroke-width="1" fill="none" fill-rule="evenodd">
        <g id="others/download_document_gold" transform="translate(-1.000000, -1.000000)" fill="#806734" fill-rule="nonzero">
            <g transform="translate(1.000000, 1.000000)">
                <g id="Group-3">
                    <path d="M28.6666667,1.33333333 L28.6666667,0 L30,1.33333333 L28.6666667,1.33333333 Z M28.6666667,1.33333333 L10.6575521,1.33333333 L10.6575521,0 L30,0 L30,40 L0,40 L0,10.638916 L1.33333333,10.638916 L1.33333333,38.6666667 L28.6666667,38.6666667 L28.6666667,1.33333333 Z M28.6666667,38.6666667 L30,38.6666667 L28.6666667,40 L28.6666667,38.6666667 Z M1.33333333,38.6666667 L1.33333333,40 L0,38.6666667 L1.33333333,38.6666667 Z M1.33333333,38.6666667 L1.33333333,40 L0,38.6666667 L1.33333333,38.6666667 Z M1.33333333,38.6666667 L28.6666667,38.6666667 L28.6666667,1.33333333 L10.6575521,1.33333333 L10.6575521,0 L30,0 L30,40 L0,40 L0,10.638916 L1.33333333,10.638916 L1.33333333,38.6666667 Z M28.6666667,38.6666667 L30,38.6666667 L28.6666667,40 L28.6666667,38.6666667 Z M28.6666667,1.33333333 L28.6666667,0 L30,1.33333333 L28.6666667,1.33333333 Z" id="Rectangle-22"></path>
                    <path d="M3.21895142,9.33333333 L9.33333333,9.33333333 L9.33333333,3.21895142 L3.21895142,9.33333333 Z M10.6666667,0 L10.6666667,10.6666667 L0,10.6666667 L10.6666667,0 Z" id="Rectangle-22"></path>
                </g>
                <g id="Group-2" transform="translate(6.000000, 16.000000)">
                    <path d="M16.6666667,15.6153846 L16.6666667,8.69230769 C16.6666667,8.30995671 16.9651435,8 17.3333333,8 C17.7015232,8 18,8.30995671 18,8.69230769 L18,17 L0,17 L0,8.69230769 C0,8.30995671 0.298476833,8 0.666666667,8 C1.0348565,8 1.33333333,8.30995671 1.33333333,8.69230769 L1.33333333,15.6153846 L16.6666667,15.6153846 Z" id="Rectangle-23"></path>
                    <g id="Group" transform="translate(4.500000, 0.000000)">
                        <path d="M1.26939789,13.3261925 C1.08015248,13.510922 0.788666414,13.4942828 0.618345545,13.2890278 C0.448024675,13.0837728 0.463366047,12.7676279 0.652611457,12.5828984 L4.19160679,9.12835293 C4.36692765,8.95721569 4.63307235,8.95721569 4.80839321,9.12835293 L8.34738854,12.5828984 C8.53663395,12.7676279 8.55197532,13.0837728 8.38165446,13.2890278 C8.21133359,13.4942828 7.91984752,13.510922 7.73060211,13.3261925 L4.5,10.1726812 L1.26939789,13.3261925 Z" id="Triangle" transform="translate(4.500000, 11.227275) rotate(-180.000000) translate(-4.500000, -11.227275) "></path>
                        <path d="M-1.25757576,6.75757576 C-1.53371813,6.75757576 -1.75757576,6.53371813 -1.75757576,6.25757576 C-1.75757576,5.98143338 -1.53371813,5.75757576 -1.25757576,5.75757576 L10.2575758,5.75757576 C10.5337181,5.75757576 10.7575758,5.98143338 10.7575758,6.25757576 C10.7575758,6.53371813 10.5337181,6.75757576 10.2575758,6.75757576 L-1.25757576,6.75757576 Z" id="Line" transform="translate(4.500000, 6.257576) rotate(-270.000000) translate(-4.500000, -6.257576) "></path>
                    </g>
                </g>
            </g>
        </g>
    </g>
</svg>