<?xml version="1.0" encoding="UTF-8" standalone="no"?>
<svg
   xmlns:dc="http://purl.org/dc/elements/1.1/"
   xmlns:cc="http://creativecommons.org/ns#"
   xmlns:rdf="http://www.w3.org/1999/02/22-rdf-syntax-ns#"
   xmlns:svg="http://www.w3.org/2000/svg"
   xmlns="http://www.w3.org/2000/svg"
   xmlns:sodipodi="http://sodipodi.sourceforge.net/DTD/sodipodi-0.dtd"
   xmlns:inkscape="http://www.inkscape.org/namespaces/inkscape"
   width="8"
   height="11.4"
   viewBox="0 0 8 11.399999"
   version="1.1"
   id="svg3440"
   inkscape:version="0.91 r13725"
   sodipodi:docname="download_icon.svg">
  <metadata
     id="metadata3456">
    <rdf:RDF>
      <cc:Work
         rdf:about="">
        <dc:format>image/svg+xml</dc:format>
        <dc:type
           rdf:resource="http://purl.org/dc/dcmitype/StillImage" />
        <dc:title>others/download_icon</dc:title>
      </cc:Work>
    </rdf:RDF>
  </metadata>
  <sodipodi:namedview
     pagecolor="#ffffff"
     bordercolor="#666666"
     borderopacity="1"
     objecttolerance="10"
     gridtolerance="10"
     guidetolerance="10"
     inkscape:pageopacity="0"
     inkscape:pageshadow="2"
     inkscape:window-width="1855"
     inkscape:window-height="1056"
     id="namedview3454"
     showgrid="false"
     inkscape:zoom="65.656842"
     inkscape:cx="6.8087682"
     inkscape:cy="6.680896"
     inkscape:window-x="65"
     inkscape:window-y="24"
     inkscape:window-maximized="1"
     inkscape:current-layer="svg3440"
     fit-margin-bottom="-0.1"
     inkscape:snap-page="true" />
  <!-- Generator: Sketch 49.1 (51147) - http://www.bohemiancoding.com/sketch -->
  <title
     id="title3442">others/download_icon</title>
  <desc
     id="desc3444">Created with Sketch.</desc>
  <defs
     id="defs3446" />
  <g
     id="library"
     style="fill:none;fill-rule:evenodd;stroke:none;stroke-width:1"
     transform="translate(0.014729,-1.9703146)">
    <g
       id="others/download_icon"
       transform="translate(-1,-1)"
       style="fill:#001eff">
      <g
         transform="translate(1,1)"
         id="g3450">
        <path
           d="M 4.432749,13.185669 7.762805,10.349097 C 8.038539,10.114126 8.061235,9.7141262 7.812545,9.4535547 7.5653,9.1938976 7.1418,9.1724119 6.867032,9.406469 l -2.21215,1.883885 0,-8.6633135 c 0,-0.3506286 -0.299879,-0.6340572 -0.670261,-0.6340572 -0.369416,0 -0.669295,0.2834286 -0.669295,0.6340572 l 0,8.6633135 L 1.102694,9.406469 C 0.827926,9.1724119 0.404425,9.1938976 0.157182,9.453555 c -0.115412,0.1216 -0.171911,0.2733715 -0.171911,0.4242286 0,0.1737134 0.07485,0.3460564 0.22165,0.4713134 l 3.330055,2.836572 c 0.254969,0.2176 0.641287,0.2176 0.895773,0"
           id="Fill-1"
           inkscape:connector-curvature="0" />
      </g>
    </g>
  </g>
</svg>
