<?xml version="1.0" encoding="UTF-8" standalone="no"?>
<svg width="26px" height="26px" viewBox="0 0 26 26" version="1.1" xmlns="http://www.w3.org/2000/svg" xmlns:xlink="http://www.w3.org/1999/xlink">
    <!-- Generator: Sketch 49.1 (51147) - http://www.bohemiancoding.com/sketch -->
    <title>contact_card/email_icon</title>
    <desc>Created with Sketch.</desc>
    <defs></defs>
    <g id="Assets---Raise-Finance,-Equity,-Debt" stroke="none" stroke-width="1" fill="none" fill-rule="evenodd">
        <g id="contact_card/email_icon" transform="translate(-1.000000, -1.000000)" fill="#009cde">
            <g transform="translate(1.000000, 1.000000)" id="@">
                <path d="M26,11.6221198 C26,12.9267858 25.8498703,14.1249305 25.5496063,15.2165899 C25.2493423,16.3082492 24.8126013,17.2467959 24.2393701,18.0322581 C23.6661389,18.8177203 22.9769069,19.4301053 22.1716535,19.8694316 C21.3664002,20.308758 20.4587977,20.5284178 19.4488189,20.5284178 C18.5753237,20.5284178 17.8519714,20.3686652 17.2787402,20.0491551 C16.7055089,19.7296451 16.3097124,19.2903254 16.0913386,18.7311828 C15.5999975,19.2903254 14.9858305,19.709676 14.2488189,19.9892473 C13.5118073,20.2688186 12.788455,20.4086022 12.0787402,20.4086022 C10.5501236,20.4086022 9.33543757,20.0025642 8.43464567,19.1904762 C7.53385376,18.3783882 7.08346457,17.2135253 7.08346457,15.6958525 C7.08346457,14.2048057 7.56797416,13.0465991 8.53700787,12.2211982 C9.50604159,11.3957972 10.8913296,10.9831029 12.6929134,10.9831029 C13.129661,10.9831029 13.6414669,11.0163847 14.2283465,11.0829493 C14.815226,11.1495139 15.2860875,11.2094211 15.6409449,11.2626728 L15.6409449,10.4639017 C15.6409449,9.47874571 15.3816299,8.76651525 14.8629921,8.32718894 C14.3443544,7.88786263 13.5664094,7.66820276 12.5291339,7.66820276 C11.7648256,7.66820276 11.0278251,7.75473544 10.3181102,7.92780338 C9.6083954,8.10087132 8.91233937,8.3338439 8.22992126,8.62672811 L8.18897638,6.58986175 C8.81680104,6.32360338 9.51968115,6.10394352 10.2976378,5.93087558 C11.0755944,5.75780763 11.901308,5.67127496 12.7748031,5.67127496 C13.8120787,5.67127496 14.706033,5.79108943 15.4566929,6.03072197 C16.2073528,6.2703545 16.828344,6.65642335 17.319685,7.18894009 C18.0293999,7.96108937 18.384252,9.09267048 18.384252,10.5837174 L18.384252,16.7741935 C18.384252,17.9457304 18.902882,18.53149 19.9401575,18.53149 C20.4587952,18.53149 20.9364808,18.365081 21.3732283,18.0322581 C21.8099759,17.6994351 22.1716521,17.2401463 22.4582677,16.6543779 C22.7448833,16.0686095 22.9700779,15.3630354 23.1338583,14.5376344 C23.2976386,13.7122335 23.3795276,12.8069686 23.3795276,11.8218126 C23.3795276,10.3041399 23.1338607,8.93958619 22.6425197,7.7281106 C22.1511786,6.51663501 21.4551226,5.48489929 20.5543307,4.6328725 C19.6535388,3.78084571 18.5889825,3.12186613 17.3606299,2.65591398 C16.1322773,2.18996183 14.7811097,1.95698925 13.3070866,1.95698925 C11.587393,1.95698925 10.0656234,2.22324363 8.74173228,2.75576037 C7.41784115,3.28827711 6.29869224,4.03378937 5.38425197,4.99231951 C4.4698117,5.95084965 3.78057975,7.10239983 3.31653543,8.44700461 C2.85249112,9.79160939 2.62047244,11.2759775 2.62047244,12.9001536 C2.62047244,16.5478933 3.62361202,19.3369079 5.62992126,21.2672811 C7.6362305,23.1976543 10.454575,24.1628264 14.0850394,24.1628264 C15.0677214,24.1628264 16.0503888,24.0962628 17.0330709,23.9631336 C18.0157529,23.8300045 18.971124,23.6436264 19.8992126,23.4039939 C20.8273012,23.1643613 21.6871351,22.8981069 22.4787402,22.6052227 C23.2703452,22.3123385 23.9800494,22.006146 24.607874,21.6866359 L24.4850394,23.5238095 C23.8572147,23.8433196 23.1270383,24.1561685 22.2944882,24.4623656 C21.4619381,24.7685627 20.5816319,25.0348171 19.6535433,25.2611367 C18.7254547,25.4874563 17.7700837,25.667178 16.7874016,25.8003072 C15.8047195,25.9334364 14.8493485,26 13.9212598,26 C11.8194121,26 9.90867002,25.7137765 8.18897638,25.141321 C6.46928274,24.5688655 5.00210581,23.7301643 3.78740157,22.625192 C2.57269734,21.5202198 1.63779855,20.1490097 0.982677165,18.5115207 C0.32755578,16.8740318 0,14.990282 0,12.8602151 C0,10.9431548 0.320731701,9.19253224 0.962204724,7.60829493 C1.60367775,6.02405762 2.50445614,4.66616029 3.66456693,3.53456221 C4.82467772,2.40296413 6.21678978,1.53098104 7.84094488,0.91858679 C9.46509998,0.306192535 11.2598327,0 13.2251969,0 C15.1359676,0 16.8761076,0.286223456 18.4456693,0.858678955 C20.0152309,1.43113445 21.3595745,2.22324123 22.4787402,3.23502304 C23.5979059,4.24680485 24.4645639,5.47157499 25.0787402,6.9093702 C25.6929165,8.34716541 26,9.91806624 26,11.6221198 Z M15.6409449,13.0199693 C15.3679776,12.9400918 14.9994774,12.8735282 14.5354331,12.8202765 C14.0713888,12.7670248 13.6073514,12.7403994 13.1433071,12.7403994 C12.0787348,12.7403994 11.2530213,12.9800283 10.6661417,13.4592934 C10.0792622,13.9385585 9.78582677,14.6574453 9.78582677,15.6159754 C9.78582677,16.5478797 10.0519658,17.2601102 10.584252,17.7526882 C11.1165381,18.2452662 11.7784737,18.4915515 12.5700787,18.4915515 C13.634651,18.4915515 14.412596,18.1920153 14.903937,17.5929339 C15.395278,16.9938526 15.6409449,16.0952441 15.6409449,14.8970814 L15.6409449,13.0199693 Z"></path>
            </g>
        </g>
    </g>
</svg>