<?xml version="1.0" encoding="UTF-8" standalone="no"?>
<svg width="66px" height="66px" viewBox="0 0 66 66" version="1.1" xmlns="http://www.w3.org/2000/svg" xmlns:xlink="http://www.w3.org/1999/xlink">
    <!-- Generator: Sketch 49.1 (51147) - http://www.bohemiancoding.com/sketch -->
    <title>contact/faq_help</title>
    <desc>Created with Sketch.</desc>
    <defs></defs>
    <g id="Assets---Trade" stroke="none" stroke-width="1" fill="none" fill-rule="evenodd">
        <g id="contact/faq_help" transform="translate(-1.000000, -1.000000)">
            <g transform="translate(1.000000, 1.000000)">
                <circle id="Oval-2" fill="#009cde" cx="33" cy="33" r="33"></circle>
                <path d="M43.7142857,23.4954876 C43.7142857,26.3482423 42.9060036,28.7056918 41.2894152,30.5679067 C39.6728269,32.4301216 37.2287358,33.6187516 33.9570688,34.1338323 L33.2642487,39.7798811 L30.3774981,39.7798811 L29.800148,31.2810918 C32.5714424,31.0037406 34.649882,30.2905626 36.0355292,29.1415364 C37.4211764,27.9925102 38.1139896,26.2095652 38.1139896,23.792648 C38.1139896,21.8908115 37.6136245,20.3554978 36.6128793,19.1866608 C35.6121342,18.0178238 34.1880181,17.433414 32.3404885,17.433414 C29.1842921,17.433414 27.1443421,19.1569275 26.2205774,22.6040062 L21.4285714,21.5936606 C21.9674342,18.820149 23.2375918,16.6707098 25.2390822,15.1452785 C27.2405726,13.6198471 29.6654188,12.8571429 32.5136936,12.8571429 C36.0547919,12.8571429 38.8068,13.8278573 40.7698001,15.7693154 C42.7328003,17.7107735 43.7142857,20.2861385 43.7142857,23.4954876 Z M35.1117691,48.1003742 C35.1117691,49.0116709 34.7942297,49.7941856 34.1591414,50.4479419 C33.5240531,51.1016982 32.763883,51.4285714 31.8786084,51.4285714 C30.9933338,51.4285714 30.2331638,51.1016982 29.5980755,50.4479419 C28.9629872,49.7941856 28.6454478,49.0116709 28.6454478,48.1003742 C28.6454478,47.1890775 28.9629872,46.4065628 29.5980755,45.7528065 C30.2331638,45.0990502 30.9933338,44.772177 31.8786084,44.772177 C32.763883,44.772177 33.5240531,45.0990502 34.1591414,45.7528065 C34.7942297,46.4065628 35.1117691,47.1890775 35.1117691,48.1003742 Z" id="?" fill="#FFFFFF"></path>
            </g>
        </g>
    </g>
</svg>