<?xml version="1.0" encoding="UTF-8" standalone="no"?><!-- Generator: Gravit.io --><svg xmlns="http://www.w3.org/2000/svg" xmlns:xlink="http://www.w3.org/1999/xlink" style="isolation:isolate" viewBox="0 0 64 64" width="64pt" height="64pt"><defs><clipPath id="_clipPath_vghkvHtkW4uKceP697yw8kU70QfG5P6l"><rect width="64" height="64"/></clipPath></defs><g clip-path="url(#_clipPath_vghkvHtkW4uKceP697yw8kU70QfG5P6l)"><g><g><path d=" M 7.59 6.774 C 5.886 6.774 4.5 8.158 4.5 9.864 L 4.5 44.58 C 4.5 46.284 5.886 47.67 7.59 47.67 L 13.009 47.67 L 13.009 55.133 L 24.54 47.67 L 56.41 47.67 C 58.114 47.67 59.5 46.284 59.5 44.58 L 59.5 9.864 C 59.5 8.158 58.114 6.774 56.41 6.774 L 7.59 6.774 Z  M 10.509 59.726 L 10.509 50.17 L 7.59 50.17 C 4.508 50.17 2 47.662 2 44.58 L 2 9.864 C 2 6.781 4.508 4.274 7.59 4.274 L 56.41 4.274 C 59.492 4.274 62 6.781 62 9.864 L 62 44.58 C 62 47.662 59.492 50.17 56.41 50.17 L 25.279 50.17 L 10.509 59.726 Z " fill-rule="evenodd" fill="rgb(0,156,222)" vector-effect="non-scaling-stroke" stroke-width="1" stroke="rgb(0,156,222)" stroke-linejoin="miter" stroke-linecap="butt" stroke-miterlimit="4"/><path d=" M 39.573 20.742 C 39.573 22.589 39.085 24.115 38.111 25.32 C 37.136 26.526 35.648 27.321 33.647 27.706 L 32.839 27.86 L 32.378 31.169 L 30.03 31.169 L 29.607 25.705 L 31.146 25.436 C 33.378 25.051 34.494 23.679 34.494 21.319 C 34.494 20.344 34.237 19.536 33.724 18.895 C 33.211 18.254 32.442 17.933 31.416 17.933 C 30.543 17.933 29.838 18.183 29.299 18.683 C 28.761 19.183 28.35 19.921 28.068 20.896 L 23.643 20.011 C 24.054 18.061 24.964 16.554 26.375 15.49 C 27.786 14.425 29.582 13.893 31.762 13.893 C 32.942 13.893 34.013 14.053 34.975 14.374 C 35.937 14.694 36.758 15.15 37.437 15.74 C 38.117 16.33 38.643 17.048 39.015 17.894 C 39.387 18.741 39.573 19.69 39.573 20.742 Z  M 33.84 36.363 C 33.84 37.082 33.583 37.697 33.07 38.21 C 32.557 38.723 31.941 38.98 31.223 38.98 C 30.505 38.98 29.896 38.723 29.396 38.21 C 28.895 37.697 28.645 37.082 28.645 36.363 C 28.645 35.645 28.895 35.036 29.396 34.536 C 29.896 34.035 30.505 33.785 31.223 33.785 C 31.941 33.785 32.557 34.035 33.07 34.536 C 33.583 35.036 33.84 35.645 33.84 36.363 Z " fill-rule="evenodd" fill="rgb(0,156,222)"/></g></g></g></svg>