<?xml version="1.0" encoding="UTF-8" standalone="no"?>
<svg width="52px" height="52px" viewBox="0 0 52 52" version="1.1" xmlns="http://www.w3.org/2000/svg" xmlns:xlink="http://www.w3.org/1999/xlink">
    <!-- Generator: Sketch 49.1 (51147) - http://www.bohemiancoding.com/sketch -->
    <title>v2/block_04_icon</title>
    <desc>Created with Sketch.</desc>
    <defs></defs>
    <g id="Assets---HP" stroke="none" stroke-width="1" fill="none" fill-rule="evenodd">
        <g id="v2/block_04_icon" transform="translate(-1.000000, -1.000000)" fill="#16202C" fill-rule="nonzero">
            <g transform="translate(1.000000, 1.000000)">
                <path d="M26,52 C11.6405965,52 0,40.3594035 0,26 C0,11.6405965 11.6405965,0 26,0 C40.3594035,0 52,11.6405965 52,26 C52,40.3594035 40.3594035,52 26,52 Z M26,50.4854369 C39.5229334,50.4854369 50.4854369,39.5229334 50.4854369,26 C50.4854369,12.4770666 39.5229334,1.51456311 26,1.51456311 C12.4770666,1.51456311 1.51456311,12.4770666 1.51456311,26 C1.51456311,39.5229334 12.4770666,50.4854369 26,50.4854369 Z" id="Oval-2"></path>
                <path d="M25.1789077,1 L25.8774536,2.33814278 C17.1032195,7.02717207 11.4956948,16.2435463 11.4956948,26.4656476 C11.4956948,36.7378283 17.1585664,45.9920657 26,50.6582345 L25.3082755,52 C15.9774296,47.0755382 10,37.3072516 10,26.4656476 C10,15.6769195 15.9190319,5.94856054 25.1789077,1 Z" id="Oval-2"></path>
                <path d="M40.1789077,1 L40.8774536,2.33814278 C32.1032195,7.02717207 26.4956948,16.2435463 26.4956948,26.4656476 C26.4956948,36.7378283 32.1585664,45.9920657 41,50.6582345 L40.3082755,52 C30.9774296,47.0755382 25,37.3072516 25,26.4656476 C25,15.6769195 30.9190319,5.94856054 40.1789077,1 Z" id="Oval-2" transform="translate(33.000000, 26.500000) rotate(-180.000000) translate(-33.000000, -26.500000) "></path>
                <path d="M27.8957775,-7 L28.9551015,-5.91339138 C25.6608179,-2.68593191 23.515609,3.77781853 23.515609,10.9748321 C23.515609,18.206648 25.6817684,24.6962853 29,27.9067695 L27.9474774,29 C24.2974056,25.4684508 22,18.5856107 22,10.9748321 C22,3.40162688 24.2747399,-3.45241465 27.8957775,-7 Z" id="Oval-2" transform="translate(25.500000, 11.000000) rotate(-90.000000) translate(-25.500000, -11.000000) "></path>
                <path d="M27.8957775,23 L28.9551015,24.0866086 C25.6608179,27.3140681 23.515609,33.7778185 23.515609,40.9748321 C23.515609,48.206648 25.6817684,54.6962853 29,57.9067695 L27.9474774,59 C24.2974056,55.4684508 22,48.5856107 22,40.9748321 C22,33.4016269 24.2747399,26.5475853 27.8957775,23 Z" id="Oval-2" transform="translate(25.500000, 41.000000) rotate(-270.000000) translate(-25.500000, -41.000000) "></path>
                <polygon id="Line" points="25 1 27 1 27 52 25 52"></polygon>
                <polygon id="Line" points="52 25 52 27 1 27 1 25"></polygon>
            </g>
        </g>
    </g>
</svg>