<?xml version="1.0" encoding="UTF-8" standalone="no"?>
<svg width="59px" height="59px" viewBox="0 0 59 59" version="1.1" xmlns="http://www.w3.org/2000/svg" xmlns:xlink="http://www.w3.org/1999/xlink">
    <!-- Generator: Sketch 49.1 (51147) - http://www.bohemiancoding.com/sketch -->
    <title>general/global</title>
    <desc>Created with Sketch.</desc>
    <defs></defs>
    <g id="library" stroke="none" stroke-width="1" fill="none" fill-rule="evenodd">
        <g id="general/global" transform="translate(-1.000000, -1.000000)" fill="#297DBF">
            <g transform="translate(1.000000, 1.000000)">
                <path d="M36.7267248,54.5131839 C39.8446913,51.9572614 42.4481504,48.8595896 44.4082604,45.382436 C45.9869994,45.7430297 47.5528542,46.1534197 49.102389,46.6282014 C45.8564399,50.3328725 41.5814759,53.1094441 36.7267248,54.5131839 Z M9.89761097,46.6282014 C11.6550103,46.0890279 13.4313063,45.6245489 15.2247813,45.2339057 C17.2888235,48.91883 20.0795324,52.1770518 23.4362853,54.8196886 C18.1005256,53.5438737 13.4003843,50.6256403 9.89761097,46.6282014 Z M23.4397211,4.1528376 C20.084686,6.79633295 17.2982719,10.0571304 15.2342296,13.7411962 C13.4373189,13.3496944 11.6575871,12.8852154 9.89761097,12.3451834 C13.4012433,8.34774447 18.1031024,5.4286525 23.4397211,4.1528376 Z M49.102389,12.3451834 C47.5288037,12.8276921 45.9388985,13.244092 44.3343912,13.6081199 C42.3227445,10.0768772 39.6436984,6.9431461 36.4338249,4.37777939 C41.4105461,5.75318685 45.7911602,8.56667637 49.102389,12.3451834 Z M48.5165893,31.2042346 L55.5006624,31.2042346 C55.200032,35.8069558 53.698598,40.0860012 51.3055802,43.733149 C49.5421683,43.1570576 47.7598597,42.6522264 45.9603721,42.219514 C47.4360378,38.7732683 48.3198911,35.0548603 48.5165893,31.2042346 Z M31.2174584,40.2997817 L31.2174584,31.2042346 L45.0808135,31.2042346 C44.874667,34.8118888 44.001121,38.2916182 42.5434931,41.489741 C38.8216891,40.7900175 35.0389,40.3925058 31.2174584,40.2997817 Z M31.2174584,54.2144063 L31.2174584,43.7340076 C34.4591128,43.816429 37.67414,44.1194994 40.8410663,44.6612485 C38.4626505,48.5213184 35.1849204,51.8130239 31.2174584,54.2144063 Z M27.7816827,43.7340076 L27.7816827,53.7198778 C24.1062616,51.3536962 21.0647411,48.2045111 18.8228974,44.5556461 C21.7759467,44.0817229 24.7659305,43.8104191 27.7816827,43.7340076 Z M14.6089185,31.2042346 L27.7816827,31.2042346 L27.7816827,40.2997817 C24.1870023,40.3864959 20.6266797,40.7393626 17.1187526,41.3643917 C15.687752,38.2040454 14.8210776,34.768961 14.6089185,31.2042346 Z M11.1731427,31.2042346 C11.3749945,35.0016298 12.2451047,38.6668073 13.6898484,42.0675495 C11.6687534,42.5328871 9.66999083,43.0883731 7.69441978,43.733149 C5.30140197,40.0860012 3.79996797,35.8069558 3.49847865,31.2042346 L11.1731427,31.2042346 Z M11.1722838,27.7700087 L3.49847865,27.7700087 C3.79996797,23.166429 5.30140197,18.8882421 7.69356083,15.2410943 C9.67170872,15.8858702 11.6713302,16.4422148 13.6941432,16.9075524 C12.2476816,20.3091531 11.3758535,23.9743306 11.1722838,27.7700087 Z M27.7816827,18.6727445 L27.7816827,27.7700087 L14.6080595,27.7700087 C14.8219366,24.207858 15.688611,20.771915 17.1221884,17.6107101 C20.6283976,18.2348807 24.1878612,18.5868888 27.7816827,18.6727445 Z M27.7816827,15.2385186 C24.7676484,15.1629657 21.7793824,14.8925204 18.8280511,14.4185972 C21.0698947,10.7697322 24.1088384,7.61539581 27.7816827,5.25093132 L27.7816827,15.2385186 Z M31.2174584,15.2385186 L31.2174584,4.91094296 C35.1419732,7.28399302 38.3904992,10.5267608 40.7611845,14.3275902 C37.6191676,14.8607538 34.4316266,15.1578143 31.2174584,15.2385186 Z M45.0748009,27.7700087 L31.2174584,27.7700087 L31.2174584,18.6727445 C35.0191443,18.5817375 38.7830366,18.1876601 42.4859439,17.4956636 C43.9590327,20.6843423 44.8497576,24.1606374 45.0748009,27.7700087 Z M48.5105767,27.7700087 C48.2958407,23.9185244 47.3948085,20.2052678 45.9053997,16.7676077 C47.723784,16.331461 49.5232716,15.822337 51.3055802,15.2402357 C53.698598,18.8873836 55.200032,23.166429 55.5006624,27.7700087 L48.5105767,27.7700087 Z M59,29.4871217 C59,13.2277794 45.7653918,0 29.4995705,0 C13.2328903,0 0,13.2277794 0,29.4871217 C0,45.7456054 13.2328903,58.9733847 29.4995705,58.9733847 L29.50816,58.9733847 L29.5176084,58.9957072 C29.5339283,58.9879802 29.5502482,58.9793946 29.5657092,58.9716676 C29.7976241,58.9708091 30.0269621,58.9605064 30.258018,58.9544965 C30.2897989,58.9682334 30.319003,58.9854045 30.350784,59 L30.3722576,58.9519208 C46.2352342,58.4874418 59,45.4528376 59,29.4871217 Z"></path>
            </g>
        </g>
    </g>
</svg>