<?xml version="1.0" encoding="UTF-8" standalone="no"?><!-- Generator: Gravit.io --><svg xmlns="http://www.w3.org/2000/svg" xmlns:xlink="http://www.w3.org/1999/xlink" style="isolation:isolate" viewBox="0 0 64 64" width="64pt" height="64pt"><defs><clipPath id="_clipPath_IPsWH2xA4akApWKKJgFhnQueAXnVxV31"><rect width="64" height="64"/></clipPath></defs><g clip-path="url(#_clipPath_IPsWH2xA4akApWKKJgFhnQueAXnVxV31)"><g><path d=" M 2 54 L 32.667 54 L 32.667 10 L 2 10 L 2 54 Z  M 4.319 51.643 L 30.347 51.643 L 30.347 12.358 L 4.319 12.358 L 4.319 51.643 Z " fill-rule="evenodd" fill="rgb(26,116,186)"/><path d=" M 10 23.333 L 15.333 23.333 L 15.333 18 L 10 18 L 10 23.333 Z " fill-rule="evenodd" fill="rgb(26,116,186)"/><path d=" M 19.333 23.333 L 24.667 23.333 L 24.667 18 L 19.333 18 L 19.333 23.333 Z " fill-rule="evenodd" fill="rgb(26,116,186)"/><path d=" M 10 32.667 L 15.333 32.667 L 15.333 27.333 L 10 27.333 L 10 32.667 Z " fill-rule="evenodd" fill="rgb(26,116,186)"/><path d=" M 19.333 32.667 L 24.667 32.667 L 24.667 27.333 L 19.333 27.333 L 19.333 32.667 Z " fill-rule="evenodd" fill="rgb(26,116,186)"/><path d=" M 31.333 54 L 62 54 L 62 18 L 31.333 18 L 31.333 54 Z  M 33.653 51.689 L 59.68 51.689 L 59.68 20.311 L 33.653 20.311 L 33.653 51.689 Z " fill-rule="evenodd" fill="rgb(26,116,186)"/><g><path d=" M 38.667 30 L 44 30 L 44 24.667 L 38.667 24.667 L 38.667 30 Z " fill-rule="evenodd" fill="rgb(26,116,186)"/><path d=" M 49.333 30 L 54.667 30 L 54.667 24.667 L 49.333 24.667 L 49.333 30 Z " fill-rule="evenodd" fill="rgb(26,116,186)"/><path d=" M 38.667 39.333 L 44 39.333 L 44 34 L 38.667 34 L 38.667 39.333 Z " fill-rule="evenodd" fill="rgb(26,116,186)"/><path d=" M 49.333 39.333 L 54.667 39.333 L 54.667 34 L 49.333 34 L 49.333 39.333 Z " fill-rule="evenodd" fill="rgb(26,116,186)"/></g></g></g></svg>