<?xml version="1.0" encoding="UTF-8"?><svg id="Layer_1" xmlns="http://www.w3.org/2000/svg" viewBox="0 0 396.01 427.14"><defs><style>.cls-1{letter-spacing:-.01em;}.cls-2{letter-spacing:-.01em;}.cls-3{letter-spacing:-.02em;}.cls-4{letter-spacing:-.01em;}.cls-5{letter-spacing:-.04em;}.cls-6{letter-spacing:.01em;}.cls-7{letter-spacing:0em;}.cls-8{letter-spacing:-.07em;}.cls-9{letter-spacing:0em;}.cls-10{letter-spacing:0em;}.cls-11,.cls-12,.cls-13{fill:#246b3e;}.cls-14{letter-spacing:-.01em;}.cls-15{letter-spacing:.01em;}.cls-16{letter-spacing:0em;}.cls-12{font-family:LSEGMotto-Bold, 'LSEG Motto';font-size:14.66px;font-weight:700;}.cls-17{letter-spacing:0em;}.cls-18{letter-spacing:-.01em;}.cls-19{letter-spacing:0em;}.cls-20{letter-spacing:-.02em;}.cls-21{letter-spacing:-.01em;}.cls-22{letter-spacing:-.01em;}.cls-13{font-family:LSEGMotto-Semibold, 'LSEG Motto';font-size:15.56px;font-weight:600;}.cls-23{letter-spacing:0em;}.cls-24{letter-spacing:0em;}.cls-25{letter-spacing:-.01em;}.cls-26{letter-spacing:0em;}.cls-27{letter-spacing:0em;}.cls-28{letter-spacing:-.02em;}.cls-29{letter-spacing:0em;}.cls-30{letter-spacing:0em;}.cls-31{letter-spacing:0em;}.cls-32{letter-spacing:.02em;}.cls-33{letter-spacing:0em;}.cls-34{letter-spacing:-.01em;}.cls-35{letter-spacing:0em;}</style></defs><path class="cls-11" d="m304.06,208.66v-114.71H91.92l-.06,114.71c-.07,2.09-.81,30.82,11.33,62.83,7.29,19.21,17.73,35.57,31.03,48.61,16.18,15.87,36.61,26.8,60.75,32.53l2.98.73,2.99-.73c24.13-5.72,44.56-16.66,60.75-32.52,13.3-13.04,23.74-29.4,31.03-48.61,12.14-32.01,11.4-60.74,11.33-62.83ZM96.12,98.3h203.67v50.26H96.12v-50.26Zm101.86,250.6h0s-.01,0-.02,0c0,0-.01,0-.02,0h0c-106.29-23.68-101.81-140.12-101.81-140.12v-56.8h203.67v56.8s4.49,116.44-101.81,140.11Z"/><text class="cls-12" transform="translate(147.99 122.16) scale(1.06 1)"><tspan class="cls-17" x="0" y="0">S</tspan><tspan class="cls-26" x="7.93" y="0">U</tspan><tspan class="cls-20" x="18.27" y="0">S</tspan><tspan class="cls-8" x="25.98" y="0">T</tspan><tspan class="cls-35" x="34.1" y="0">A</tspan><tspan class="cls-16" x="44.08" y="0">I</tspan><tspan class="cls-9" x="48.76" y="0">N</tspan><tspan class="cls-24" x="59.3" y="0">A</tspan><tspan class="cls-10" x="69.26" y="0">B</tspan><tspan class="cls-23" x="78.85" y="0">L</tspan><tspan class="cls-1" x="86.7" y="0">E</tspan><tspan class="cls-25" x="-4.65" y="14">B</tspan><tspan class="cls-21" x="4.86" y="14">O</tspan><tspan class="cls-31" x="16.15" y="14">N</tspan><tspan class="cls-29" x="26.69" y="14">D </tspan><tspan class="cls-27" x="40.62" y="14">M</tspan><tspan class="cls-24" x="52.36" y="14">A</tspan><tspan class="cls-30" x="62.32" y="14">R</tspan><tspan class="cls-24" x="72.22" y="14">K</tspan><tspan class="cls-4" x="82.4" y="14">E</tspan><tspan class="cls-1" x="90.57" y="14">T</tspan></text><rect class="cls-11" x="196.1" y="327.59" width="3.81" height="3.81" transform="translate(290.98 -43.5) rotate(45)"/><text class="cls-13" transform="translate(163.47 278.87)"><tspan class="cls-3" x="0" y="0">L</tspan><tspan class="cls-22" x="7.86" y="0">O</tspan><tspan class="cls-19" x="19.82" y="0">N</tspan><tspan class="cls-18" x="31.02" y="0">D</tspan><tspan class="cls-22" x="42.38" y="0">O</tspan><tspan class="cls-2" x="54.33" y="0">N </tspan><tspan class="cls-28" x="-32.54" y="15.49">S</tspan><tspan class="cls-3" x="-24.56" y="15.49">T</tspan><tspan class="cls-14" x="-15.37" y="15.49">O</tspan><tspan class="cls-33" x="-3.38" y="15.49">C</tspan><tspan class="cls-2" x="6.69" y="15.49">K </tspan><tspan class="cls-32" x="20.41" y="15.49">E</tspan><tspan class="cls-5" x="29.44" y="15.49">X</tspan><tspan class="cls-33" x="39.14" y="15.49">C</tspan><tspan class="cls-6" x="49.2" y="15.49">H</tspan><tspan class="cls-15" x="60.81" y="15.49">A</tspan><tspan class="cls-34" x="71.15" y="15.49">N</tspan><tspan class="cls-7" x="82.21" y="15.49">G</tspan><tspan class="cls-2" x="93.04" y="15.49">E</tspan></text><path class="cls-11" d="m238.6,240.18c-1.86-.46-3.67-.77-5.42-.92l-.08.65c1.64.14,3.34.44,5.09.85v5.78c-2.71-.6-5.32-.97-7.76-.97-2.71,0-5.27.41-7.83,1.19-2.2.7-4.04,1.56-5.66,2.35-2.09.99-3.74,1.76-5.31,1.76-.4,0-.78-.05-1.16-.15v-5.79c.38.09.75.13,1.16.13,1.71,0,3.51-.83,5.59-1.83,2.3-1.1,5.02-2.38,8.55-3.04l-.13-.63c-1.02.19-2.03.45-3.04.75-2.21.69-4.04,1.55-5.66,2.32-1.88.89-3.4,1.61-4.82,1.76v-.79c0-.49-.17-1.26-2.01-1.26s-3.89,1.19-3.89,2.54v1.64c-2.24.65-5.93.99-8.23.99-1.18,0-3.13-.1-5.11-.4-1.26-.12-2.3-.35-3.12-.59v-1.65c0-1.35-2.04-2.54-3.88-2.54s-2.01.77-2.01,1.26v.79c-1.43-.14-2.95-.87-4.82-1.76-2.35-1.11-5.11-2.43-8.72-3.08l-.04.65c3.49.66,6.18,1.93,8.48,3.02,2.08.99,3.87,1.83,5.59,1.83.4,0,.77-.04,1.15-.13v5.79c-.37.1-.75.15-1.15.15-1.57,0-3.22-.77-5.31-1.76-3.29-1.55-7.38-3.54-13.49-3.54-2.44,0-5.05.37-7.76.97v-5.78c1.68-.4,3.32-.68,4.91-.83v-.65c-1.72.17-3.49.47-5.3.91l-.25.06v7.13l.4-.11c2.81-.71,5.5-1.04,8.01-1.04,5.96,0,9.98,1.9,13.21,3.45,2.08.99,3.87,1.85,5.59,1.85.55,0,1.06-.1,1.58-.26l.22-.08v-1.99c.6.03,1.21.2,1.75.43v3.11l.16.1c1.99,1.19,7.55,1.58,9.93,1.58s7.93-.39,9.93-1.58l.15-.1v-3.11c.54-.23,1.15-.4,1.75-.43v1.99l.22.08c.51.16,1.03.26,1.58.26,1.71,0,3.51-.85,5.59-1.85,3.23-1.55,7.25-3.45,13.21-3.45,2.51,0,5.21.33,8.02,1.04l.39.11v-7.13l-.25-.06Zm-31.15,9.75v2.42c-.82.42-2.3.78-4.32,1.05-1.98.25-3.95.35-5.11.35s-3.13-.1-5.11-.35c-2.02-.27-3.5-.63-4.32-1.05v-5.55c2.29,1,7.23,1.32,9.44,1.32s7.14-.32,9.44-1.32v3.13Z"/><path class="cls-11" d="m160.31,244.89l-.04.11.25-.04c.21-.03.41-.06.61-.08.98-.14,1.69-.9,1.69-1.82,0-.37-.11-.7-.33-.96-.3-.37-.7-.54-1.24-.54-.17,0-.34.02-.55.05-.14.03-.22.04-.33.07l-.07.02.02.08s.01.04.02.06c.03.16.1.38.1.75v1.33c0,.58-.06.77-.12.96m.74-2.36c0-.13,0-.33.02-.5.97.04,1.05.8,1.05,1.04,0,.75-.54,1.18-1.05,1.33-.01-.18-.01-.33-.01-.61v-1.26Z"/><path class="cls-11" d="m164.33,242.11v1.5c0,.5-.06.7-.12.87l-.04.11h.12c.27-.01.5-.02.71-.02h.11l-.03-.09c-.09-.31-.12-.49-.12-.85v-1.45c0-.46.06-.62.11-.8l.04-.12h-.11c-.29.01-.51.01-.71.02h-.11s.04.11.04.11c.07.17.12.36.12.71"/><path class="cls-11" d="m168.21,244.73c.08,0,.16.01.24.01.38,0,.62-.1.79-.18l.05-.02.04-.69-.14.09c-.15.09-.37.24-.74.24-.05,0-.1,0-.15,0-.76-.07-1.1-.65-1.1-1.2,0-.62.42-1.06,1.01-1.06h.12c.33.03.58.17.79.29l.12.09v-.7l-.04-.02c-.16-.07-.37-.17-.71-.2-.06,0-.14,0-.2,0-.86,0-1.74.61-1.74,1.64,0,.18.03.62.35,1.04.3.39.75.63,1.32.68"/><path class="cls-11" d="m172.93,242.86l.07.04.04-.08c.08-.15.16-.3.22-.44l.04-.09-.1-.02c-.79-.18-1.59-.34-2.39-.47h-.06s-.03.05-.03.05c-.03.1-.07.2-.1.29l-.12.34.14-.02c.28-.06.48-.08.64-.08.12,0,.2.01.29.03v1.97c0,.38-.05.58-.09.75l-.02.1.08.02c.24.05.45.1.65.14l.13.03-.03-.13c-.06-.25-.09-.47-.09-.77v-1.98c.29.07.41.13.71.32"/><path class="cls-11" d="m175.43,243.2l.03-.08-.08-.03c-.23-.08-.45-.15-.69-.23l-.15-.05.06.16c.05.14.09.27.09.73v1.24c0,.78.42,1.42,1.09,1.63.18.08.38.12.57.12.16,0,.29-.03.38-.04,0,.04-.01.1-.02.2v.08s.05.03.05.03c.18.06.37.1.55.19l.15.07-.03-.17c-.09-.45-.09-.58-.09-.83v-1.69c0-.41.04-.48.08-.57l.04-.08-.16-.06c-.2-.08-.4-.17-.59-.25l-.17-.07.06.18c.11.27.11.61.11.74v1.24c0,.22,0,.27-.01.29-.06.14-.22.26-.41.26-.07,0-.15-.02-.22-.05-.18-.07-.53-.26-.69-.7-.04-.11-.06-.25-.06-.44v-1.14c0-.43.03-.53.1-.69"/><path class="cls-11" d="m182.53,246.08l.1-.07-.12-.04c-.21-.09-.42-.2-.6-.28l-.07-.03-.03.06c-.09.13-.13.17-.21.23-.26.2-.52.44-.78.63l-.07.07-.2-.3c-.2-.34-.4-.68-.61-.98-.17-.3-.21-.41-.26-.53v-.04s-.05,0-.05,0c-.26-.12-.5-.21-.71-.27l-.23-.07.14.19c.1.17.2.3.3.43v1.95c0,.52-.08.63-.14.75l-.04.1.09.03c.26.1.51.18.74.24l.17.06-.06-.12c-.11-.33-.13-.61-.13-.74v-1.31c.3.49.61,1,.9,1.52l.05.04h.08c.31-.32.61-.55.9-.82v1.33c0,.32-.04.52-.12.67l-.04.09.08.04c.27.13.51.22.74.31l.18.08-.07-.17c-.13-.36-.13-.6-.13-.89v-1.55c0-.4.09-.49.21-.59"/><path class="cls-11" d="m193.36,249.07h-.05s-.03.03-.03.03c-.09.13-.13.17-.22.28-.3.33-.6.67-.87.93-.26-.35-.53-.74-.8-1.15-.16-.22-.21-.34-.26-.48v-.04s-.05,0-.05,0c-.24-.04-.47-.08-.71-.13l-.21-.06.13.17c.05.05.1.12.14.18.05.08.1.15.15.22v1.93c0,.47-.08.66-.13.78l-.05.08.11.02c.24.07.5.12.74.16l.15.03-.06-.14c-.12-.29-.13-.61-.13-.7v-1.33l.04.07c.29.4.58.84.87,1.25l.06.08.07-.07c.31-.34.61-.66.91-1v1.29c0,.33-.04.53-.13.73l-.05.1h.11c.25.05.5.09.75.13h.14s-.05-.12-.05-.12c-.12-.31-.14-.58-.14-.82v-1.55c0-.41.1-.54.23-.69l.11-.11-.16-.02c-.22-.02-.44-.04-.62-.06"/><path class="cls-11" d="m195.84,252.14v-.98c.18.03.31.06.62.16l.06.03.03-.06c.09-.14.18-.28.28-.44l.07-.12h-.13c-.31-.02-.62-.03-.92-.05v-.96c.26.01.44.07.76.25l.07.04.04-.08c.04-.09.08-.19.12-.26.04-.07.07-.13.11-.21l.06-.13h-.13c-.56-.03-1.13-.06-1.7-.12h-.13s.04.12.04.12c.07.24.11.52.11.79v1.54c0,.41-.06.62-.11.78l-.04.09h.11c.51.06,1.06.09,1.67.12h.05l.02-.05c.05-.11.1-.22.15-.33l.16-.35-.17.05c-.65.2-.86.19-1.2.16"/><path class="cls-11" d="m198.27,250.17v1.25c0,.78.42,1.27,1.07,1.27h.05c.38-.01.7-.18.91-.31,0,.04,0,.09-.02.14v.1s.11,0,.11,0c.18-.02.37-.03.55-.04h.09s-.02-.09-.02-.09c-.08-.41-.08-.59-.08-.81v-1.67c0-.4.03-.5.08-.63l.05-.14h-.13c-.22.04-.45.05-.68.07h-.12s.06.14.06.14c.1.21.1.54.1.68v1.24c0,.2,0,.24-.02.29-.07.25-.33.51-.65.54h-.02s-.46-.02-.62-.42c-.05-.11-.06-.22-.06-.41v-1.15c0-.45.03-.54.1-.73l.04-.13h-.12c-.18.01-.37.02-.55.03h-.24l.05.14c.05.11.09.21.09.66"/><path class="cls-11" d="m202.38,249.55v1.93c0,.47-.07.67-.13.83l-.06.13.14-.02c.22-.03.46-.06.75-.1h.11s-.04-.11-.04-.11c-.12-.25-.13-.56-.13-.65v-1.37c.32.36.63.67.92.99l.08.07.05-.08c.28-.39.56-.83.9-1.32v1.25c0,.32-.03.56-.13.78l-.06.14.32-.06c.19-.04.39-.09.58-.13l.1-.02-.05-.09c-.13-.27-.13-.56-.13-.76v-1.55c0-.43.11-.6.24-.77l.12-.17-.21.06c-.2.05-.4.08-.61.12h-.03s-.02.04-.02.04c-.08.18-.12.25-.2.38v.02c-.22.27-.43.58-.63.88l-.26.36c-.28-.27-.54-.58-.79-.85-.16-.2-.21-.27-.26-.37l-.03-.05h-.06c-.28.04-.5.07-.71.09h-.17s.11.12.11.12c.1.11.2.21.29.3"/><path class="cls-11" d="m215.75,245.99c0-.44-.34-.7-.84-.7-.16,0-.33.04-.49.1-.15.05-.43.15-.66.24-.11.05-.2.09-.27.12l-.08.04.04.09c.04.08.11.18.11.73v1.31c0,.48-.08.77-.13,1.03l-.04.18.14-.05c.18-.06.37-.14.55-.22l.23-.1-.02-.08c-.06-.2-.12-.58-.12-.8v-.3c.78-.26,1.57-.9,1.57-1.58m-1.57.22c0-.1,0-.21.02-.28.37-.19.58-.22.74-.09.11.09.16.17.16.34,0,.45-.61.83-.91.89v-.87Z"/><path class="cls-11" d="m222.03,243.03c.12-.04.25-.04.36-.04.17,0,.31.03.44.06l.11.03v-.12c-.03-.17-.04-.33-.06-.5v-.07h-.07c-.07,0-.14-.01-.22-.01-.16,0-.32.01-.49.07-.54.15-1.01.48-1.33.94-.29.42-.43.92-.39,1.36.06.62.48,1.22,1.25,1.22.17,0,.36-.03.56-.08.52-.16.8-.38.98-.5l.04-.03v-.05c0-.18-.01-.34-.02-.5v-.22s-.14.16-.14.16c-.16.17-.39.42-.85.57-.12.04-.23.05-.33.05-.46,0-.78-.35-.82-.86-.07-.67.36-1.3,1.01-1.48"/><path class="cls-11" d="m224.62,241.94l-.09.3c-.04.1-.07.21-.09.31l-.06.19.17-.09c.52-.29.73-.35.9-.38v1.94c0,.36-.05.62-.09.79l-.03.12.12-.02c.26-.04.46-.07.65-.09l.09-.02-.02-.08c-.06-.2-.08-.44-.08-.72v-2.01c.1-.02.18-.02.25-.02.14,0,.26.02.48.08h.07s.03-.05.03-.05c.04-.1.09-.19.13-.29.03-.08.07-.15.1-.22l.06-.13-.14.02c-.8.08-1.61.21-2.4.36h-.04Z"/><path class="cls-11" d="m228.61,242.22v1.24c0,.77.41,1.25,1.07,1.25.02,0,.03,0,.05,0,.39-.02.71-.19.92-.3,0,.03-.01.07-.02.12v.12s.74,0,.74,0l-.02-.1c-.08-.42-.08-.59-.08-.8v-1.69c0-.41.03-.5.07-.61l.04-.12h-.11c-.23,0-.46,0-.68,0h-.13l.05.13c.11.2.11.54.11.67v1.25c0,.19-.01.24-.02.29-.09.28-.37.5-.65.51h-.02s-.47-.01-.63-.41c-.05-.11-.06-.22-.06-.41v-1.15c0-.42.03-.53.1-.73l.05-.11h-.12c-.23.01-.46.03-.68.04h-.11s.04.12.04.12c.06.12.1.22.1.68"/><path class="cls-11" d="m232.89,241.68c.05.06.1.12.15.18v1.94c0,.5-.08.67-.13.78l-.05.12h.12c.21.03.44.04.74.07l.13.02-.05-.14c-.12-.27-.12-.59-.12-.67v-1.33c.3.4.61.81.91,1.22l.06.08.06-.08c.3-.35.59-.69.9-1.03v1.28c0,.32-.04.54-.13.74l-.05.09h.11c.25.04.49.07.74.11l.14.02-.05-.13c-.13-.33-.13-.61-.13-.82v-1.56c0-.43.1-.53.22-.66l.11-.12-.15-.03c-.09-.02-.18-.03-.27-.04-.11-.02-.22-.04-.33-.06h-.06s-.02.04-.02.04c-.09.16-.13.2-.22.29l-.19.21c-.22.26-.44.5-.66.76-.25-.34-.51-.7-.79-1.08-.16-.22-.21-.32-.26-.44l-.02-.04h-.05c-.23-.02-.47-.04-.71-.05l-.19-.02.12.15c.05.05.09.1.14.15"/><path class="cls-11" d="m218.64,246.33s0,0,0,0c.13.18.16.32.18.45v.12s.1-.04.1-.04c.27-.12.53-.22.74-.3l.14-.04-.11-.05c-.12-.12-.29-.28-.57-.66-.17-.27-.34-.48-.51-.74-.26-.37-.53-.74-.8-1.13l-.04-.06-.06.03h-.05s-.02.05-.02.05c-.29.91-.61,1.88-.92,2.85-.21.63-.28.75-.37.9l-.11.24.22-.11c.26-.14.51-.25.75-.3l.06-.03v-.07c-.04-.19,0-.43.04-.55l1.31-.57Zm-1.03-.37c.07-.22.13-.43.2-.62.02-.07.03-.15.06-.22.06.1.12.2.18.29.06.07.11.16.18.25l.13.23-.84.37.1-.31Z"/><path class="cls-11" d="m189.29,221.92c.03.28.1.64.15.93-.12.13-.19.3-.19.49,0,.4.33.72.73.72s.73-.32.73-.72c0-.2-.07-.37-.2-.5.05-.28.12-.65.16-.92.49-.06.95-.19,1.37-.39v-1.35c-.5.27-.88.4-1.33.46v-2.22c0-1.01-.15-2.37-.73-2.67-.58.3-.73,1.66-.73,2.67v2.22c-.45-.07-.83-.2-1.33-.46v1.35c.41.2.87.33,1.37.39"/><path class="cls-11" d="m190.29,211.85c1.32-.02,2.36-.22,2.36-.48h0s-.06-.1-.06-.1c-.24-.19-1.17-.35-2.3-.38v.95Z"/><path class="cls-11" d="m190.02,207.08c.29,0,.53-.24.53-.53s-.23-.53-.53-.53-.53.24-.53.53.24.53.53.53"/><path class="cls-11" d="m189.75,207.73s-.02,0-.03,0l-1.86,2.92c.51-.14,1.17-.2,1.9-.21v-2.7Z"/><path class="cls-11" d="m189.75,211.85v-.95c-1.13.03-2.04.17-2.3.37l-.07.11c0,.25,1.05.45,2.37.48"/><path class="cls-11" d="m206.26,207.73v2.7c.73.01,1.39.08,1.9.21l-1.86-2.92s-.02,0-.04,0"/><path class="cls-11" d="m190.29,207.73v2.7c.72.01,1.38.08,1.89.21l-1.86-2.92s-.03,0-.03,0"/><path class="cls-11" d="m206.26,211.85c1.34-.02,2.37-.22,2.37-.48h0s-.06-.1-.06-.1c-.24-.19-1.16-.35-2.31-.38v.95Z"/><path class="cls-11" d="m203.36,211.38c0,.25,1.05.45,2.38.48v-.96c-1.13.03-2.05.17-2.3.37l-.07.12Z"/><path class="cls-11" d="m206,207.08c.3,0,.53-.24.53-.53s-.23-.53-.53-.53-.53.24-.53.53.23.53.53.53"/><path class="cls-11" d="m203.84,210.63c.52-.13,1.17-.2,1.9-.21v-2.7s-.03,0-.03,0l-1.86,2.92Z"/><path class="cls-11" d="m213.04,202.32h-8.3c-1.6-.01-2.92.41-3.73.69-1.03.36-1.6.93-3.04,1.6-1.44.67-2.7.57-2.7.57-2.21-.19-3.28-1.89-3.28-1.89,0,0-.48-.69-.57-.97h-.44s-7.99,0-7.99,0v14.39l.65.67v-2.45h11.89v10.19h-11.87c-.62.57-.24.93-.44,1.41.21-.05.35-.1.63-.09.81-.51,2.62-1.34,3.73.63-.67.12-1.51.18-2.11.63.17.41.17,1.1.12,1.48h9.94v14.17c-3.18-1.15-5.86-3.17-7.85-5.91-1.29-1.78-2.26-3.82-2.94-6.1-.19.17-.38.31-.58.32.7,2.3,1.69,4.36,2.99,6.16,2.6,3.59,6.33,5.97,10.79,6.89h.07s.07,0,.07,0c4.46-.92,8.18-3.3,10.78-6.89,1.31-1.79,2.3-3.86,3-6.16-.19,0-.39-.15-.58-.32-.67,2.28-1.66,4.32-2.94,6.1-1.99,2.74-4.67,4.76-7.85,5.91v-14.17h9.94c-.06-.39-.06-1.07.12-1.48-.59-.46-1.44-.52-2.1-.63,1.1-1.97,2.91-1.14,3.72-.63.29,0,.42.04.63.09-.2-.48.19-.83-.44-1.41h-11.88v-10.19h11.9v2.45l.65-.67v-14.39Zm-7.03,11.34c-1.83,0-3.31-.85-3.31-1.91,0-.21.04-.4.15-.55l2.38-3.73c-.19-.16-.33-.37-.4-.62-1.6.02-2.32.19-3.25.87-.89-.66-1.6-.85-3.09-.87.17.67.47,1.35.85,1.81-.53.7-.88,1.12-1.34,2.14-.46-1.02-.82-1.44-1.35-2.14.39-.46.69-1.13.86-1.81-1.48.02-2.2.21-3.08.87-.93-.69-1.65-.86-3.25-.87-.06.25-.21.46-.39.62l2.38,3.72c.11.16.16.34.16.55,0,1.06-1.48,1.91-3.31,1.91s-3.31-.85-3.31-1.91c0-.21.05-.4.16-.55l2.38-3.72c-.27-.22-.44-.55-.44-.93,0-.66.54-1.21,1.21-1.21.53,0,.98.35,1.14.83h6.17c0-.38.3-.69.68-.69s.68.3.68.68h0s6.16,0,6.16,0c.16-.48.62-.83,1.15-.83.67,0,1.21.54,1.21,1.21,0,.38-.17.71-.44.93l2.38,3.72c.11.16.16.34.16.55,0,1.06-1.49,1.91-3.31,1.91"/><path class="cls-11" d="m188.5,201.86c-.35-.33-.73-.66-.86-.75-.27-.17-.18-.21-.91-.24-.73-.03-2.3-.12-2.3-.12,0,0-.76-.01-1.71.31-.96.33-1.46.71-1.85.94-.38.24-.63.42-.63.42,0,0,.82.86,1.33,1.65,0,0,.14-.48.94-.9v-1.31h5.99Z"/><path class="cls-11" d="m215.14,202c-.38-.23-.89-.61-1.85-.94-.95-.33-1.71-.32-1.71-.32,0,0-1.57.09-2.29.12-.73.04-.65.07-.91.24-.13.09-.51.42-.86.75h6v1.32c.79.42.93.9.93.9.52-.79,1.33-1.65,1.33-1.65,0,0-.25-.19-.63-.42"/><path class="cls-11" d="m170.03,192.69c-.22,0-.4-.18-.4-.4,0-.1.04-.19.11-.27.17-.03.37-.03.63.05.05.06.07.13.07.22,0,.22-.18.4-.41.4m11.58,28.67c-.48.74-1.37.97-1.37.97,0,0,1.15.74,2.16-.32,0,0,.06-.05.09-.23,0,0,.1-.49-.17-.68,0,0-.39-.24-.71.25m-4.26-2.27s.05-.65.62-1.14c0,0,.27-.28.27-.65s-.29-.88-.82-.48c-.56.42-.17,1.98-.15,2.03.02.06.08.23.08.23m5.12,4.4s1.14.28,1.74-.86c0,0,.26-.48-.25-.73,0,0-.2-.1-.48.03-.17.07-.26.11-.33.26-.06.13-.13.77-.58,1.2l-.1.09Zm2,.81s-1.29-1.1-2.51.27c0,0-.25.27-.09.48.17.21.37.4.82.52,0,0,.16.04.2-.04.03-.08.38-.83,1.46-1.19l.12-.04Zm2.58,2.54s-1.08-1.32-2.63-.32c0,0-.31.16-.23.45.09.3.3.57.57.74,0,0,.13.08.24-.04.11-.11.82-.89,1.96-.85l.1.02Zm-.03,4.19s-.66-1.45-1.89-1.35c0,0-.22.01-.31.28-.1.26-.14.53-.12.82,0,0,0,.1.15.05.14-.05.9-.22,2.06.16l.11.04Zm-16.5,7.63s.02-1.01-1.22-1.92c0,0-.38-.3-.61.27-.23.57-.06.66.1.7.17.04,1.21.32,1.63.82l.1.13Zm-.61,1.51s0-1.91-1.46-2.36c-.55-.17-.42,1.25-.05,1.35.22.07.9.23,1.4.86l.11.15Zm-2.33,1.26s.02-1.89-.86-2.35c-.87-.46-1.17.19-1.11.5.04.21.2.59.69.83.5.23.94.61,1.2.91l.08.1Zm0-37.33l-.42-.45c-.96-1.49-1.09-2.92-1.09-2.92,0,0-.27.75-.83,1.15,0,0-.68-1.15-.45-2.85,0,0,.12-1.02.36-1.47,0,0-.55.12-.93-.18,0,0,.24-1.76.77-2.63.53-.87,1.31-1.28,1.31-1.28,0,0-1.67.1-2.79-1.32,0,0-.52-.71-.5-1.21,0,0,.39.3,1.43.3,0,0-1.23-.36-1.82-1.38-.59-1-.36-2.31-.27-2.54,0,0,2.04,2.51,5.2,2.91,0,0-.83-.34-1.29-.78,0,0,.04-2.19,1.24-2.59,0,0-.23.64.24,1.41,0,0,.38.7,1.3,1.72,0,0,.23.24.3.41,0,0,.86,0,1.34-.11.48-.09,1.1-.36,1.58-.23,0,0,.58.15.83.72,0,0,1.73-.71,2.53.61.58.97.14,1.99.14,1.99,0,0-.1-.67-1.08-.82,0,0-.62-.13-1.05.41,0,0-.58.84-1.18,1.09,0,0-.2.08-.46.15-.25.07-.65.25-.89.45,0,0-.46.34-.69.72,0,0-.1.17-.13.21,0,0,.41-.15,1.24,0,.82.15.94.23,1.28.29.34.05.73.12,1.01.02,0,0,.42-.1.83-.49,0,0,.16,1.41-.95,1.9,0,0-.59.32-1.77.01,0,0-.53-.16-.62-.2,0,0-.98.42-1.55.42-.57,0-1.08-.09-1.58-.73,0,0-.36-.52-.25-1.08,0,0,.05-.3.09-.36,0,0-.57.57-.22,1.71,0,0,.34,1.11,1.89,1.03,0,0,.34,0,.89-.14,0,0,1.68.56,3.08,1.39-.08.04-.17.09-.25.14-.36.2-.7.41-1.04.63l-.14.09-.63-1c-.42.28-.85.58-1.29.91l.5.7c.22-.17.44-.33.65-.47l.18.27c-.24.17-.5.36-.77.56h0c-.31.24-.62.49-.94.75l-.13.11-.71-.95c-.41.33-.81.69-1.19,1.05l.56.65c.18-.17.35-.32.5-.46l.21.25c-.16.13-.32.28-.51.46l-.1.1h0c-.28.27-.57.55-.83.84l-.12.13Zm1.36-11.66c1.22,1.65,2.37-.17,2.37-.17v-.02s-.37.09-.56-.02c-.78-.43-1.27-.15-1.39-.08-.12.08-.42.29-.42.29m5.71,7.94l-.14-.29c-.26.12-.51.25-.77.38l-.29-.49-.28.16.28.48c-.41.23-.81.47-1.22.74l-.29-.44-.27.18.29.44c-.37.25-.74.52-1.1.81l-.32-.41-.26.2.33.42c-.37.29-.73.6-1.08.93l-.4-.43-.24.22.39.42c-.3.29-.61.58-.9.88l-.31-.31-.23.23.31.31c-.11.12-.23.25-.35.36l.24.22c.29-.31.58-.61.87-.9l.33.35.24-.22-.33-.36c.33-.31.65-.61.98-.89l.3.38.26-.2-.31-.4c.83-.7,1.68-1.31,2.53-1.84l.25.44.28-.17-.26-.44c.49-.29.98-.56,1.48-.78m1.41.67l-.17.07c-3.14,1.33-5.76,3.77-7.39,5.58l-.11.12-2.77-2.64.08-.12c.22-.34.55-.73.95-1.17l.12-.13.81.86c.2-.21.41-.41.62-.61l-.77-.9.11-.11c.48-.45.96-.87,1.45-1.27l.13-.11.72.94c.23-.18.46-.37.69-.54l-.69-.97.12-.1c.54-.4,1.07-.77,1.58-1.1l.14-.08.63.99c.26-.16.52-.32.79-.48l-.53-1.05.14-.07c.53-.29.99-.51,1.42-.68l.14-.05,1.78,3.62Zm-.45-.16l-1.5-3.05c-.34.14-.7.32-1.11.53l.38.76c.17-.09.35-.19.53-.28l.14.29c-.23.11-.45.22-.66.34-.36.2-.7.41-1.04.63l-.14.09-.63-1c-.42.28-.85.58-1.29.91l.5.7c.22-.17.44-.33.65-.47l.18.27c-.24.17-.5.36-.77.56h0c-.31.24-.62.49-.94.75l-.13.11-.71-.95c-.41.33-.81.69-1.19,1.05l.56.65c.18-.17.35-.32.5-.46l.21.25c-.16.13-.32.28-.51.46l-.1.1h0c-.28.27-.57.55-.83.84l-.12.13-.79-.87c-.31.34-.55.64-.74.9l.62.59c.09-.11.18-.23.3-.38l.25.21c-.12.15-.22.29-.3.4l1.47,1.4c1.64-1.79,4.17-4.13,7.23-5.46m-2.96-5.86c1.21-.42,2.12-.13,2.87.07.75.2,1.17.11,1.17.11,1.68-.4.89-2.18.89-2.18,0,0-.21,1.46-2.39.97-2.19-.5-2.73,1.11-2.73,1.11l.19-.07Z"/><path class="cls-11" d="m183.82,226.77c-.47-.19-1.14.26-1.14.26.59-.83.25-1.19.25-1.19-1.35.16-1.36-.84-1.36-.84-.57-.03-.75.38-.83.73-.08.36-.06,1.3.24,1.98.3.69-.03,1.51-.03,1.51-2.16-1.1-4-.95-4-.95l.29-1.13c-.85-1.23-.7-1.69-.7-1.69,1.23,1.75,2.55,1.61,2.55,1.61l.13-.03h.01c-1.11-.47-1.27-3.46-2.47-4.76-.28-.31-.55-.47-.81-.63l-.11-.06c-.82-.49-2.01-.69-2.01-.69-3.26-.65-3.44-2.44-3.44-2.44v-.02c1.18-1.71,3.95-3.6,3.95-3.6-.23-.25-.6-1.21-.6-1.21-1.13.08-1.66-.29-1.66-.29-1.58-.98-1.03-2.28-1.03-2.28.01.15.3,1.35,1.38,1.77,1.07.41,1.76-.08,1.76-.08,0,0-.1.14.2.92.3.78,1.47,2.22,1.47,2.22,1.09-1.06.73-2.85.73-2.85.42.39,3,2.6,3,2.6-.17,0-1.31.13-1.31.13-.97.18-.65.76-.65.76.25-.13.57-.14.77.25.19.38,0,.92,0,.92.26.36.51.24.93-.11.44-.36,1.18-.23,1.36-.16.19.07.19.24.25.36.06.12.27.34.27.34.19.24.1.39.1.39-.15.42-.15.79-.15.79,0,0-.24.25-.28.53-.04.29.13.57.41.9.28.33.65.12.65.12.09-.05.41-.29.67,0,.33.37.05.94.05.94.23.21.59-.05.67-.09.08-.05.39-.32.73-.23.33.09.38.69.38.69.47-.22.65-.61.65-.61.41-.8-.18-1.92-.36-2.16-.18-.25-.31-.36-.4-.59-.09-.24-.25-.78-.41-1.26-.22-.68-1.31-1.7-1.57-1.97-.26-.27-1.68-1.3-2.47-2.91-.79-1.61-2.35-3.17-2.35-3.17,1.96-.16,2.81,1.02,2.81,1.02.98-2.64-.51-4.52-.51-4.52,1.37.4,1.6,2.25,1.6,2.25,0,0,.77-1.31.27-2.68-.5-1.36-2.74-1.94-2.74-1.94.9-.18,1.61.07,1.61.07-1.03-1.56-2.94-2.26-3.31-2.39-.37-.13-1.12-.32-1.33-.37-.08-.02-.22-.1-.38-.2l.08.17c-2.89,1.26-5.32,3.42-6.96,5.17-.07.38-.23.79-.23.79-.94,2.3-2.82,1.5-3.49,1.23-.67-.27-2.48-1.99-1.63-3.63.85-1.64.61-2.59.41-3.33-.2-.73-1.75-3.21-1.75-3.21-3.8-6.02-3.56-10.6-3.56-10.6-.79.47-1.07,1.22-1.07,1.22-.62,1.38-.45,3.55-.45,3.55-.1-.15-.94-1.4-1.61-3-.66-1.61-.63-2.92-.63-2.92-.7.7-1.06,1.98-1.06,1.98-1.07,3.41.58,7.06.58,7.06-2.3-1.83-2.45-3.79-2.45-3.79-1.85,3.36,1.96,7.53,1.96,7.53-2.31-.25-3-1.12-3-1.12-.15,4.02,4.35,4.92,4.35,4.92-2.23.37-4.21-.18-4.21-.18.28.86,1.06,1.99,1.06,1.99,1.89,2.61,4.62,2.86,4.62,2.86-1.78,1.05-3.77,1.24-3.77,1.24.07.24.75,1.51,2.24,1.93,1.49.42,3.32-.12,3.32-.12-.38.22-.79.58-1.34,1.16-.55.56-.75.86-.75.86.26.3.75.54.75.54,1.28.67,2.64.26,2.64.26-.46,1.88.09,2.83.09,2.83,1.5.29,2.63-.45,2.63-.45,0,1.29.51,1.89.51,1.89,1.59-.16,2.62-1.53,2.62-1.53.17.92.74,1.78.74,1.78,1.86-.59,2-2.7,2-2.7.55,2.66-2.05,3.41-2.05,3.41-.75-.56-.94-1.44-.94-1.44,0,0-.28.3-.88.6-.6.28-1.29.33-1.29.33-.26.4-.69,1.35-.69,1.35-.54,1.12-1.31,4.2-1.31,4.2-.56,2.04-1.6,3.7-1.6,3.7-1.01,1.48-2.02,1.3-2.02,1.3-1.29-.22-1.68-1.56-1.71-3.03-.04-1.48.71-3.23.71-3.23.88-1.98,1.09-3.17,1.09-3.17.5-2.01-.78-3.5-.78-3.5-1.19-1.43-3.03-1.4-3.03-1.4-.58,0-1.11.12-1.58.37-.48.26-.77.59-.92.79-.15.19-.41.52-.57.64-.21.17-.37.23-.37.23-.31.14-.6,0-.6,0,.11.28.37.51.37.51.38.37,1.05.55,1.05.55,0,0-.18.29-.3.62-.13.34-.1.68-.02.92.08.23.38.51.38.51.36.29.2.77.2.77-.22.71-.79.8-.79.8.34.44.88.51.88.51-.02.36.04.75.04.75.18,1.54,1,1.84,1,1.84-.08-.26-.03-.73.1-1.16.13-.41.49-1.45.49-1.45.39-1.12.31-2.28.31-2.28l.17.32c.34.62.29,1.03.29,1.03.75-.34.87-1.4.87-1.4.27-1.99-.91-2.39-.91-2.39,0-.39.62-.98,1.3-.44.87.69.86,1.44.81,2.2-.07.89-1.36,4.13-1.36,4.13-.92,2.55-.65,3.95-.65,3.95.15,1.16,1.07,3.24,2.55,3.74,1.48.5,2.89.03,3.95-.94,1.07-.97,1.92-3.21,1.99-3.4.07-.2.17-.45.17-.45-.18.75.1,2.35.16,2.98.07.63-.43,1.49-.92,1.77-.49.29-1.07.17-1.07.17.15.31.2.65.2.65.17.99-.34,1.78-.58,2.05-.07.08-.23.23-.23.23-.1.11-.56.48-.73,1.38-.18.94.44,1.74.44,1.74-.08-1.08.53-1.99.53-1.99.16.6-.09.53-.09,1.93,0,1.4.73,2.05.73,2.05-.04-1.73.78-1.86.78-1.86-.08.3-.26,1.41.16,2.49.42,1.1,1.28,1.35,1.28,1.35-.02-.2,0-1.9.05-1.68.05.21.39.83.39.83.11.18.82,1.28,1.47,1.18.46-.07.61-.33.65-.44l-.02-.04c-.23-.41-.25-.69-.25-.69-.13-1.21.83-1.28,1.54-.71.77.64,1.03.23,1.03.23-.86-1.53.27-1.61.27-1.61-.02-1.29.65-1.1.65-1.1-.03-.32-.36-.62-.95-.64-.56-.02-1.71.74-1.91.84-.2.1-.52-.27-.52-.27-.87-1.16-.72-2.64-.72-2.64.82-1.04,1.26-2.24,1.26-2.24-.72-1-.53-2.12-.53-2.12,1.02,2.6,2.24,2.33,2.24,2.33-.51-2.45.54-4.37.94-5.1.26-.46-.1-1.46-.37-2.11,0,0-.51-1.21-.62-1.68-.11-.47-.19-1.18.5-2.07v.06c-.05.28-.05.59.02,1.15.06.57.37,1.31.58,1.71.21.4.4.67.4.67,2.37,1.05,4.26,1.24,4.26,1.24.27.88-.02,2.85-.11,3.34-.07.49-.14,1.14-.14,1.14-.04.37,0,1.37.59,1.44.59.07,1.05.47,1.33,1.24.28.76.91,1.04.91,1.04-.2-.41-.01-.86-.01-.86.59,1.68,3.46,1.55,3.46,1.55-.53-.46-.75-1.14-.75-1.14,1.61,1.52,3.29.22,3.29.22-.67-.34-.83-1.06-.83-1.06,2.18,1.25,2.86-.75,2.86-.75-.58-.1-.69-.58-.69-.58.77.24.96-.13.96-.13-.36-.87.21-1.31.21-1.31,1.05-.98.49-1.71.49-1.71-1.26.13-1.25-1.28-1.25-1.28m-16.47-14.97c-.1.04-.19.05-.29.05-.47,0-.85-.41-.94-.54-.11.07-.45.23-.83.23-.13,0-.24-.01-.35-.05-.5-.16-.78-.73-.85-.9-.08.03-.25.11-.48.11-.19,0-.38-.05-.55-.15-.54-.3-.65-.98-.61-1.25-.02,0-.05,0-.08,0-.2,0-.57-.06-.84-.45-.35-.49-.23-.99-.14-1.18-.17-.02-.59-.12-.79-.7-.21-.59.08-.99.2-1.12-.17-.1-.67-.42-.69-.98-.02-.59.25-1.07.51-1.31-.28-.24-1.86-1.68-1.99-3.83,0-.02,0-.11.01-.17h0s.03-.28.03-.28l.06.27s.58,2.62,2.45,3.93l.06.04-.06.04s-.61.32-.6,1.18c.02.84.62.91.64.92h.07s-.04.06-.04.06c0,.01-.34.59-.12,1.19.15.41.4.46.53.46.07,0,.11-.01.11-.01l.09-.02-.04.08s-.21.56.14,1.14c.2.34.44.41.61.41.11,0,.18-.03.18-.03l.07-.02v.07s-.03.54.39.95c.25.25.52.3.7.3s.31-.05.36-.08l.05-.02v.04s.22.61.7.73c.46.11.86.02,1.09-.24l.04-.05.03.06s.32.54.81.54.8,0,1.18-.69l.05-.09.03.1s.26.79-.89,1.23"/><path class="cls-11" d="m225.57,192.29c0-.09.02-.16.07-.22.26-.07.47-.07.63-.05.07.07.11.16.11.27,0,.22-.18.4-.41.4s-.4-.18-.4-.4m-11.89,28.82c-.26.18-.17.68-.17.68.03.18.09.23.09.23,1.01,1.06,2.16.32,2.16.32,0,0-.89-.23-1.37-.97-.32-.49-.71-.25-.71-.25m5.05-2.25c.03-.06.42-1.62-.14-2.03-.53-.4-.82.09-.82.48s.27.65.27.65c.58.49.62,1.14.62,1.14,0,0,.06-.17.08-.23m-5.3,4.54c-.45-.43-.52-1.07-.58-1.2-.07-.15-.16-.19-.33-.26-.29-.13-.48-.03-.48-.03-.51.25-.25.73-.25.73.6,1.14,1.74.86,1.74.86l-.1-.09Zm-1.78.94c1.08.36,1.43,1.11,1.46,1.19.03.09.2.04.2.04.46-.12.66-.31.82-.52.17-.21-.08-.48-.08-.48-1.23-1.37-2.51-.27-2.51-.27l.12.04Zm-2.6,2.49c1.13-.04,1.85.74,1.96.85.11.12.24.04.24.04.27-.17.48-.44.57-.74.08-.29-.23-.45-.23-.45-1.55-.99-2.63.32-2.63.32l.1-.02Zm.04,4.17c1.15-.38,1.92-.21,2.06-.16.15.05.15-.05.15-.05.02-.3-.02-.56-.11-.82-.09-.26-.31-.28-.31-.28-1.23-.1-1.89,1.35-1.89,1.35l.11-.05Zm16.49,7.55c.42-.5,1.46-.78,1.63-.82.16-.04.33-.13.1-.7-.23-.57-.61-.27-.61-.27-1.23.91-1.22,1.92-1.22,1.92l.11-.13Zm.62,1.49c.5-.63,1.18-.79,1.4-.86.37-.11.5-1.52-.06-1.35-1.46.45-1.46,2.36-1.46,2.36l.11-.15Zm2.29,1.31c.26-.3.7-.69,1.2-.91.5-.24.65-.63.69-.83.06-.31-.24-.97-1.11-.5-.87.46-.86,2.35-.86,2.35l.07-.1Zm-.19-37.36c-.27-.29-.56-.57-.83-.83h0s-.11-.11-.11-.11c-.18-.18-.35-.33-.5-.46l.21-.25c.15.14.32.29.5.46l.56-.65c-.4-.37-.79-.72-1.19-1.05l-.72.95-.13-.11c-.31-.26-.62-.51-.94-.74h0c-.27-.21-.53-.4-.77-.56l.18-.27c.21.14.42.3.65.47l.5-.7c-.44-.33-.87-.63-1.29-.91l-.63,1-.13-.09c-.34-.22-.69-.43-1.04-.63-.08-.05-.17-.09-.25-.14,1.4-.82,3.08-1.39,3.08-1.39.54.13.89.14.89.14,1.56.08,1.89-1.03,1.89-1.03.36-1.14-.22-1.71-.22-1.71.03.06.09.36.09.36.11.56-.25,1.08-.25,1.08-.49.64-1,.72-1.57.73-.57,0-1.55-.42-1.55-.42-.1.04-.62.2-.62.2-1.18.31-1.77-.01-1.77-.01-1.12-.5-.95-1.9-.95-1.9.41.38.83.49.83.49.29.1.67.03,1.01-.03.34-.05.46-.13,1.28-.28.83-.15,1.24,0,1.24,0-.02-.05-.13-.21-.13-.21-.22-.38-.69-.72-.69-.72-.24-.2-.64-.37-.89-.45-.26-.07-.46-.14-.46-.14-.61-.25-1.19-1.09-1.19-1.09-.43-.54-1.05-.41-1.05-.41-.99.15-1.08.82-1.08.82,0,0-.45-1.02.14-1.99.79-1.31,2.52-.61,2.52-.61.25-.57.82-.72.82-.72.48-.13,1.11.13,1.58.23.48.1,1.34.11,1.34.11.07-.17.3-.41.3-.41.92-1.02,1.3-1.72,1.3-1.72.47-.77.24-1.42.24-1.42,1.2.41,1.23,2.6,1.23,2.6-.46.45-1.29.78-1.29.78,3.16-.4,5.2-2.91,5.2-2.91.1.23.33,1.53-.28,2.54-.59,1.01-1.82,1.38-1.82,1.38,1.05,0,1.43-.3,1.43-.3.02.5-.5,1.21-.5,1.21-1.13,1.42-2.79,1.32-2.79,1.32,0,0,.78.41,1.31,1.28.53.87.77,2.63.77,2.63-.38.3-.93.18-.93.18.25.46.37,1.47.37,1.47.24,1.7-.44,2.85-.44,2.85-.57-.4-.83-1.15-.83-1.15,0,0-.13,1.43-1.09,2.92l-.42.45-.12-.12Zm-1.66-11.82c-.12-.07-.61-.35-1.38.08-.2.11-.58.02-.58.02l.02.02s1.14,1.82,2.36.17c0,0-.3-.21-.42-.29m-3.81,9.01l-.26.44.28.17.25-.44c.85.52,1.69,1.14,2.52,1.84l-.3.4.26.2.3-.38c.33.28.65.58.98.89l-.33.36.24.22.33-.35c.29.29.59.59.87.9l.24-.22c-.11-.12-.23-.24-.35-.37l.31-.31-.22-.23-.32.31c-.3-.3-.61-.59-.9-.88l.39-.42-.24-.22-.4.43c-.35-.33-.72-.63-1.09-.93l.33-.42-.26-.2-.32.41c-.37-.28-.74-.55-1.1-.81l.29-.44-.28-.18-.29.44c-.41-.28-.82-.52-1.22-.74l.28-.48-.28-.17-.28.49c-.26-.14-.51-.26-.78-.38l-.13.29c.49.22.98.49,1.47.78m-1.09-3.73l.14.05c.42.17.89.39,1.42.68l.14.07-.53,1.05c.27.16.53.32.78.48l.63-.99.14.08c.51.33,1.04.7,1.58,1.1l.12.1-.69.97c.23.17.46.36.69.54l.72-.94.13.11c.49.4.98.83,1.45,1.27l.12.11-.77.9c.21.2.42.41.62.61l.81-.86.12.13c.41.44.73.83.96,1.17l.08.11-2.77,2.64-.11-.12c-1.63-1.81-4.24-4.25-7.38-5.58l-.17-.07,1.79-3.62Zm5.89,8.93l1.47-1.4c-.08-.12-.18-.25-.31-.4l.25-.21c.12.15.21.27.3.38l.62-.59c-.19-.26-.43-.56-.74-.9l-.79.86-.12-.12c-.27-.29-.56-.57-.83-.83h0s-.11-.11-.11-.11c-.18-.18-.35-.33-.5-.46l.21-.25c.15.14.32.29.5.46l.56-.65c-.4-.37-.79-.72-1.19-1.05l-.72.95-.13-.11c-.31-.26-.62-.51-.94-.74h0c-.27-.21-.53-.4-.77-.56l.18-.27c.21.14.42.3.65.47l.5-.7c-.44-.33-.87-.63-1.29-.91l-.63,1-.13-.09c-.34-.22-.69-.43-1.04-.63-.21-.12-.43-.23-.66-.34l.14-.29c.18.09.36.18.53.28l.38-.76c-.41-.22-.77-.4-1.11-.53l-1.5,3.05c3.07,1.34,5.6,3.67,7.23,5.46m-4.07-11.25s-.54-1.61-2.73-1.11c-2.18.49-2.39-.97-2.39-.97,0,0-.79,1.79.89,2.18,0,0,.42.09,1.17-.11.75-.2,1.66-.49,2.87-.07l.19.07Z"/><path class="cls-11" d="m210.95,228.05s-.57.74.48,1.72c0,0,.57.44.21,1.31,0,0,.19.38.96.13,0,0-.1.48-.69.58,0,0,.68,1.99,2.86.75,0,0-.16.72-.83,1.06,0,0,1.69,1.3,3.29-.22,0,0-.22.67-.74,1.14,0,0,2.87.13,3.45-1.55,0,0,.19.45-.01.86,0,0,.63-.28.91-1.04.27-.76.74-1.17,1.32-1.24.59-.07.63-1.08.6-1.44,0,0-.07-.65-.16-1.14-.08-.49-.37-2.46-.1-3.34,0,0,1.89-.2,4.26-1.25,0,0,.18-.27.4-.67.21-.4.52-1.15.58-1.71.07-.56.07-.87.03-1.15v-.06c.7.89.61,1.6.5,2.07-.11.47-.62,1.68-.62,1.68-.27.66-.63,1.65-.37,2.11.41.73,1.45,2.65.94,5.1,0,0,1.22.27,2.24-2.33,0,0,.19,1.12-.53,2.12,0,0,.43,1.19,1.25,2.24,0,0,.16,1.49-.71,2.64,0,0-.33.37-.53.27-.2-.1-1.35-.86-1.91-.84-.58.03-.92.32-.95.64,0,0,.67-.19.65,1.1,0,0,1.13.08.27,1.61,0,0,.26.41,1.03-.23.7-.57,1.66-.5,1.54.71,0,0-.02.28-.25.69l-.02.03c.05.12.2.37.65.44.65.1,1.36-1,1.47-1.18,0,0,.34-.62.39-.83.04-.22.06,1.48.04,1.68,0,0,.87-.26,1.29-1.35.42-1.08.23-2.19.15-2.49,0,0,.82.13.78,1.86,0,0,.73-.65.73-2.05s-.25-1.32-.09-1.93c0,0,.61.9.53,1.99,0,0,.62-.8.44-1.74-.17-.9-.62-1.27-.72-1.38,0,0-.18-.15-.24-.23-.24-.27-.75-1.05-.57-2.05,0,0,.04-.34.2-.65,0,0-.57.12-1.07-.17-.49-.29-.99-1.14-.93-1.77.07-.63.36-2.23.17-2.98,0,0,.09.26.17.45.07.19.92,2.43,1.99,3.4,1.06.96,2.47,1.43,3.95.94,1.48-.5,2.4-2.58,2.55-3.74,0,0,.27-1.4-.65-3.95,0,0-1.29-3.25-1.36-4.13-.06-.76-.07-1.52.81-2.21.67-.54,1.29.05,1.3.44,0,0-1.19.4-.92,2.39,0,0,.12,1.06.87,1.4,0,0-.04-.41.3-1.03l.17-.32s-.09,1.15.3,2.28c0,0,.36,1.03.49,1.45.14.42.18.9.1,1.16,0,0,.82-.3,1-1.84,0,0,.05-.39.04-.75,0,0,.53-.07.87-.51,0,0-.57-.09-.78-.8,0,0-.17-.48.19-.77,0,0,.3-.28.38-.51.08-.24.11-.58-.02-.92-.12-.34-.3-.62-.3-.62,0,0,.67-.18,1.05-.56,0,0,.26-.23.37-.51,0,0-.29.14-.61,0,0,0-.15-.06-.37-.23-.16-.12-.42-.45-.57-.64-.14-.2-.45-.53-.92-.79-.48-.25-.99-.38-1.58-.37,0,0-1.84-.04-3.05,1.4,0,0-1.28,1.49-.79,3.5,0,0,.24,1.19,1.11,3.17,0,0,.75,1.75.72,3.23-.03,1.47-.43,2.8-1.71,3.03,0,0-1.01.18-2.02-1.3,0,0-1.04-1.65-1.6-3.7,0,0-.78-3.07-1.31-4.2,0,0-.43-.94-.69-1.35,0,0-.7-.05-1.29-.33-.6-.29-.88-.6-.88-.6,0,0-.19.87-.94,1.44,0,0-2.6-.74-2.05-3.41,0,0,.13,2.1,2,2.7,0,0,.57-.86.74-1.78,0,0,1.03,1.37,2.62,1.53,0,0,.5-.6.51-1.89,0,0,1.13.74,2.63.45,0,0,.55-.95.09-2.83,0,0,1.35.41,2.63-.26,0,0,.5-.25.77-.54,0,0-.21-.3-.76-.86-.55-.57-.94-.94-1.33-1.16,0,0,1.83.54,3.32.12,1.48-.42,2.16-1.69,2.24-1.93,0,0-1.99-.18-3.77-1.24,0,0,2.73-.25,4.62-2.86,0,0,.78-1.12,1.06-1.99,0,0-1.98.55-4.2.18,0,0,4.49-.9,4.34-4.92,0,0-.69.86-3,1.11,0,0,3.81-4.18,1.96-7.53,0,0-.15,1.96-2.45,3.79,0,0,1.66-3.66.59-7.06,0,0-.37-1.28-1.06-1.98,0,0,.03,1.31-.62,2.92-.67,1.61-1.5,2.85-1.62,3,0,0,.17-2.17-.44-3.55,0,0-.29-.75-1.07-1.22,0,0,.24,4.58-3.57,10.6,0,0-1.55,2.48-1.74,3.21-.21.74-.45,1.7.4,3.33.85,1.64-.96,3.36-1.63,3.63-.67.27-2.55,1.07-3.49-1.23,0,0-.16-.41-.23-.79-1.64-1.74-4.06-3.9-6.96-5.17l.08-.17c-.16.1-.31.19-.38.2-.2.05-.96.24-1.33.37-.37.13-2.28.84-3.32,2.39,0,0,.71-.25,1.62-.07,0,0-2.25.58-2.75,1.94-.5,1.37.27,2.68.27,2.68,0,0,.23-1.85,1.6-2.25,0,0-1.49,1.88-.51,4.52,0,0,.85-1.18,2.81-1.02,0,0-1.56,1.55-2.35,3.17-.8,1.61-2.22,2.64-2.47,2.91-.26.27-1.35,1.29-1.57,1.97-.15.49-.32,1.03-.41,1.26-.09.23-.22.34-.4.59-.18.24-.77,1.36-.36,2.16,0,0,.18.39.65.61,0,0,.05-.6.38-.69.33-.08.65.19.73.24.08.04.44.3.67.09,0,0-.28-.57.05-.94.26-.3.59-.05.67,0,0,0,.37.21.65-.12.28-.33.45-.61.41-.9-.04-.28-.28-.53-.28-.53,0,0,.01-.37-.15-.79,0,0-.09-.15.1-.39,0,0,.21-.22.28-.34.06-.12.06-.29.25-.36.18-.07.93-.2,1.36.16.42.36.67.48.93.11,0,0-.2-.53,0-.91.19-.39.51-.38.76-.25,0,0,.32-.58-.65-.76,0,0-1.14-.14-1.32-.13,0,0,2.57-2.21,3-2.6,0,0-.36,1.79.73,2.85,0,0,1.18-1.44,1.47-2.22.3-.78.2-.92.2-.92,0,0,.68.49,1.76.08,1.07-.42,1.37-1.62,1.38-1.77,0,0,.56,1.3-1.03,2.28,0,0-.54.37-1.66.29,0,0-.37.96-.6,1.21,0,0,2.78,1.89,3.95,3.6v.02s-.17,1.79-3.43,2.44c0,0-1.19.2-2.01.69l-.1.06c-.26.16-.53.32-.81.63-1.2,1.3-1.36,4.29-2.47,4.76h.01l.13.03s1.33.14,2.56-1.61c0,0,.15.46-.7,1.69l.29,1.13s-1.84-.16-3.99.95c0,0-.33-.82-.03-1.51.3-.69.31-1.63.23-1.98-.08-.35-.26-.76-.82-.73,0,0-.01,1-1.36.84,0,0-.34.36.25,1.19,0,0-.67-.46-1.14-.26,0,0,.02,1.41-1.23,1.27m16.82-17.48l.04-.1.05.09c.38.69.69.69,1.18.69s.81-.54.81-.54l.03-.06.04.05c.23.26.62.35,1.09.24.49-.12.69-.72.69-.73l.02-.04.04.02c.05.02.18.08.36.08s.45-.05.7-.3c.42-.41.41-.94.41-.95v-.07s.06.02.06.02c0,0,.07.03.18.03.16,0,.4-.07.61-.41.35-.58.14-1.13.14-1.14l-.03-.08.09.02s.04.01.11.01c.13,0,.38-.06.53-.46.22-.6-.12-1.18-.12-1.19l-.04-.06h.07s.62-.09.64-.92c.01-.86-.57-1.17-.61-1.18l-.06-.04.05-.04c1.88-1.31,2.45-3.91,2.46-3.93l.06-.27.03.28h0c.02.06.02.16.02.18-.14,2.15-1.72,3.59-2,3.83.26.24.54.71.52,1.31-.02.56-.52.89-.69.98.11.13.41.54.2,1.12-.21.57-.63.68-.8.7.09.2.21.69-.14,1.18-.27.39-.65.44-.84.44-.04,0-.06,0-.08,0,.05.28-.06.95-.6,1.26-.18.1-.37.15-.55.15-.22,0-.39-.07-.47-.11-.07.17-.35.74-.85.9-.1.04-.22.05-.34.05-.39,0-.73-.16-.84-.24-.1.13-.47.54-.94.54-.1,0-.19-.01-.29-.05-1.15-.44-.9-1.23-.89-1.23"/><path class="cls-11" d="m194.48,169.15c2.03-.94,5.48-.78,7.13.02l.93-1.02.96-3.01c-.8-.28-1.64-.48-2.49-.6l-.32,1.38c-.4-.06-.81-.12-1.23-.14v-1.41c-.97-.05-1.92-.04-2.82.04v1.41c-.46.04-.91.09-1.31.14l-.32-1.36c-.91.13-1.74.32-2.42.52l.98,3.05.91.99Z"/><path class="cls-11" d="m231.37,179.01c-.73,1.26-2.42,2.02-4.11,1.83.81-2.18.27-6.46-1.9-6.67.12,1.6-2.05,3.97-4.97,4.15-1.32-1.37-3.27-1.97-4.33-1.97-1.38,0-3.88,1.94-3.55,5.61-.48-1.49-3.26-1.94-4.1-1.3,1.74,1.12,2.12,10.41-1.44,10.41-.9,0-1.81-.25-2.98-1.58.65.07,1.33-.14,1.5-1.22.07-.48-.03-.85-.25-1.15.11-.04.22-.07.32-.14h.02s.71-.47.71-.47c.32-.21.55-.58.65-1.03.34-.43.34-1.19.22-1.77.22-1.47-.68-2.6-1.63-2.6-.13,0-.25.01-.37.05-.34-.04-.77-.08-1.21-.26-.04-.17-.1-.34-.18-.52.17.02.31.02.43.02,1.02,0,3.01-.84,3.01-2.78,0-.61-.18-1.1-.55-1.47.28-.47-.05-1.42-.65-1.87-.6-.45-1.41-.82-2.37-.45-.08-.18-.19-.43-.31-.57-.44-.49-1.06-.6-1.65-.28l-.15.08-.41-3.32.03-.03c-1.42-.59-4.32-.8-6.21-.02l.05.05-.29,2.29c-.2.13-.29.33-.29.33-.08-.68.24-.76.24-.76-.87-.62-1.46.07-1.46.07-.63-.42-.49-.96-.49-.96-.73.09-.82.61-.82.61-1.25-.9-1.61.59-1.61.59,0,0,.15.07.34.16-.22-.06-.49-.06-.8.12,0,0,.49.43.42.94l-.06-.05c-.16-.14-.48-.31-.48-.31,0,0-.79-.41-.78.25.01.66.18,1.44.18,1.44-.14.12-.22.18-.63.37-.16-.06-.34-.11-.53-.11s-.46.03-.64.1c-.18.06-.36.21-.58.44.16.06.24.12.26.17-.41.07-.67.25-.79.44-.45.46-.57,1.29-.34,1.84.11-.15.31-.36.47-.41.01.35.12.7.33,1,.2.28.47.45.79.49.13.72.44,1.86.77,2.27.28.38.49.57.88.75q.35.16.61.42l.11.1c.17.15.39.33.65.33.28,0,.43-.19.51-.33.17.25.4.43.65.58,0,.16,0,.3.02.43,0,.02,0,.03,0,.05-.14.14-.26.31-.41.5-.2.26-.42.55-.65.71-.11-.03-.23-.05-.35-.05-.28,0-.77.09-1.15.63-.59.11-1.04.6-1.07,1.22-.02.42.11.83.33,1.07.07.07.14.12.22.16.22.32.6.54.98.56,0,.02,0,.03.01.05.29,1.03,1.19,1.29,2.05,1.28-.41,1.44.39,2.48,1.27,2.73.3-1.06,1.62-2.52,2.75-2.72-.59.64-1.39,1.66-1.46,2.77,3.83-.17,6.77-1.46,8.7-3.04.18.21.34.39.48.55,1.45,1.8,2.64,1.96,3.65,1.96h.23c.83,0,1.62-.14,2.27-.4l.24-.09-.14.22c-.8,1.22-.92,5.12.82,6.94l.13.13h-.18c-2.13,0-5.86-2.7-6.1-5.53-.44.51-.96,2.57-.95,3.84v.24s-.14-.2-.14-.2c-1.84-2.37-1.23-5.18-.55-6.54-3.97,2.78-13,5.08-12.04,0-.73.54-1.45,1.69-1.45,2.78,0,2.51,3.77,3.43,11.21.48-1.37,1.07-3.47,2.29-5.79,2.7.67,1.33.84,3.97.56,5.4-.2-.79-.65-4.16-2.09-5.27-1.12,0-2.26-.22-3.38-.76l-.02-.03h0s0,.01-.01,0t.01.01c-.86,1.63-2.91,2.77-4.58,2.77,1.72-1.8,1.66-5.75.82-7.04.71.28,1.52.4,2.31.4h.23c.14,0,.27,0,.41,0,.11-.35.26-.69.46-.99-.43.09-.8.08-1.1.08-3.65,0-3.5-8.47-.89-8.88-.55-1.38-3.37-2.34-3.93,1.58.33-3.67-1.17-7.25-4.03-7.25-1.06,0-3.02.59-4.34,1.97-2.92-.19-5.08-2.55-4.96-4.15-2.17.2-2.71,4.48-1.9,6.67-1.69.19-3.38-.57-4.12-1.83-1.25,2.97,1.64,7.02,4.61,7.02,5.67,0,4.56-5.38,7.58-5.38,1.32,0,3.9,2.05,4.89,5.44-3.58-2.34-7.7.68-7.99,2.69,6.06-2,10.58,2.02,11.38,2.79,1.61,1.54.86,6.75-1.96,7.38,3.09,1.58,6.07.09,7.76-2.02.44.4,1.04.69,1.69.75.55.49.96,1.19.98,2.54-.77.24-1.45,1.04-.98,1.98.48,1.09,2.32,2.02,3.24,2.02,2.33,0,3.06-.77,5-1.79,2.15-1.14,4.61-1.23,5.99-.97-.04-.03-.06-.04-.07-.04,0,0-.02-.03-.05-.05-1.9-1.76-1.78-5.07-1.66-5.67.54,1.73,4.13,5.47,8.46,3.25-2.83-.63-3.4-5.69-2.1-7.49.76-1.05,2.62-2.59,4.86-2.36.78.08,1.58.96,1.21,2.04.95-.38,2.94-1.74,2.94-3.69s-2.57-3.98-4.73-2.98c.99-3.4,3.31-3.43,4.64-3.43,2.61,0,1.41,5.01,7.09,5.01,2.96,0,5.85-4.05,4.6-7.02m-28.38,5.6l-.15-1.22c.24.02.5.02.72.02s.5,0,.78-.04c.05.25.14.49.3.72.09.24.1.33.06.58-.01.05-.02.09-.03.13-.07-.04-.13-.09-.21-.18-.16-.16-.38-.39-.76-.39-.27,0-.53.17-.71.36m.24-10.12c1.52-1.1,3.24.54,3.14,1.36-.4-.35-1.01-.49-1.31-.49h-.08s-.02,0-.02,0c-.02,0-.03,0-.05,0h-.03s-.03,0-.05.01c-.01,0-.02,0-.03,0-.01,0-.02,0-.04.01-.01,0-.02,0-.03,0-.01,0-.02,0-.03.01-.01,0-.02,0-.04.01,0,0,0,0-.02,0-.23.08-.44.22-.75.27-.14.03-.31.03-.5,0-.04,0-.07-.01-.11-.02-.03,0-.07-.02-.11-.02,0,0,0,0,0,0-.03,0-.07-.02-.11-.03,0,0-.01,0-.02,0-.03,0-.07-.02-.1-.03-.01,0-.02,0-.03-.01-.03-.01-.07-.02-.1-.03-.01,0-.03-.01-.04-.02-.04-.01-.06-.02-.09-.04-.02-.01-.06-.01-.07-.03-.02-.01-.05-.02-.07-.03-.05-.02-.1-.04-.15-.06h-.01s0,0-.01-.01c0,0,.01,0,.01.01,0,0,0,0,.01.01.01.01.02.02.02.03.01.01.02.03.03.04h0c.07.11.14.23.25.34h0c.12.14.29.24.56.22-.44.4-.97.38-1.33.28-.14-.04-.26-.09-.36-.14,0,0-.01,0-.02,0-.08-.04-.16-.09-.22-.14-.02-.01-.02-.02-.04-.04-.05-.04-.1-.08-.15-.12-.14-.13-.27-.24-.46-.34h0s0,0-.01,0c-.02,0-.03-.02-.04-.02h0s-.01,0-.02-.01c-.02,0-.03-.01-.05-.02-.01,0-.02,0-.02,0s0,0-.01,0c-.01,0-.02-.01-.04-.01,0,0-.01,0-.01,0-.01,0-.02,0-.02,0-.02,0-.04-.01-.07-.01-.02,0-.04-.01-.06-.01-.02,0-.04-.01-.05-.02h-.02s-.02,0-.04,0c-.01,0-.03,0-.04-.01-.02,0-.03,0-.04,0-.02,0-.05,0-.07-.01-.01,0-.03,0-.04,0h0s-.05,0-.07,0c-.01,0-.03,0-.04,0-.03,0-.05,0-.08,0h-.09s-.03,0-.05,0h-.2c-.72,0-1.28.27-1.28.77s.52.71,1.3.71h0c.13,0,.26-.02.41-.05.04-.01.1-.02.15-.04.1-.02.21-.06.32-.09.06-.02.11-.04.17-.06.12-.05.26-.09.39-.15.04-.01.07-.03.11-.04.18.13.42.27.77.38.07.02.15.04.25.05-.01,0-.02,0-.03.01h0c-.07.01-.13.04-.2.07-.03.02-.07.03-.11.04-.07.03-.14.07-.2.1-.03.01-.07.03-.1.05-.1.05-.2.11-.3.17-.03.01-.05.02-.08.04-.08.04-.16.09-.24.13-.03.02-.07.03-.11.05-.07.03-.16.07-.24.11-.03.01-.06.03-.1.03-.1.03-.2.07-.3.1-.01,0-.03,0-.04,0-.27.08-.59.12-.96.12-1.02,0-2.03-.57-2.03-1.66,0-.23.05-.46.17-.67.02-.03.05-.06.06-.1.05-.07.09-.14.14-.2.02-.02.05-.04.06-.06.42-.43,1.11-.73,2.05-.74h.09c.87.03,1.32.36,1.98.36,1.2,0,.66-1.25.35-1.37.98-.52,1.58.75,1.33,1.12m.81,2.84c.1-.13.25-.2.43-.2.47,0,.65.45.65.59,0,.43-.52.92-1.81.92-.16,0-.33-.01-.5-.03-.18-.03-.37-.05-.57-.08l-.08-.63c.22.34.72.76,1.82.45-.14-.57-.05-.88.07-1.02m-6.83-6.04c0-.46.3-1.16.86-1.16s.86.7.86,1.16v1.09h-1.72v-1.09Zm-7.89,1.75c.14-.09.6.09,1.03.41.13-.18.13-.36.13-.36.03-.5-.18-.74-.18-.74,0,0,.37-.06.77.22.1.07.28.28.28.28,0,0,.05-.2-.04-.58-.09-.39-.46-.59-.62-.59,0,0,.3-.71,1.02-.13.17.13.49.71.49.71,0,0-.09-.61.09-.9.12-.2.21-.24.21-.24,0,0-.02.29.22.58.23.28.58.42.58.42,0,0,.13-.51.54-.52.25-.01.39.11.39.11,0,0-.26.38.08,1.11,0,0,.51-.8.96-.73,0,0-.26.14-.23.78l.02.35v.12c.39-.07.76-.03.94.11-.01.12-.11.67-.26.81l-1.43,1.28s.27.56-.14.97c-.18.11-.73.35-1.17-.3-.04-.05-.07-.09-.1-.13.05,0,.22,0,.3-.18.09-.2.37-.23.37-.23l-.32-.18s-.24.29-.46.29h-.43c-.22,0-.46-.29-.46-.29l-.3.18s.37.03.46.23c.09.18.29.17.29.17l-.06.1s-.07.08-.09.11c-.46.69-1.06.38-1.2.29-.48-.42-.18-1.05-.18-1.05l-.92-.78c-.79-.69-.66-1.6-.59-1.71m3.26,4.89c.75,0,.75-1.06.78-1.17l.09.04c.06.03.22.04.32.03-.42.38-.17.7-.63,1.09-.01,0-.01.01-.02.02-.17.12-.34.18-.54.18-.11,0-.25-.04-.34-.07-.05-.01-.09-.04-.14-.06-.01-.01-.02-.02-.04-.03-.33-.28-.29-.77-.75-1.06.16.01.32,0,.39-.01l.07-.02s.07,1.06.81,1.06m.01-.98c.12.01.57.04.47.37-.12.42-.48.39-.48.39,0,0-.37.04-.49-.39-.1-.36.39-.37.49-.37m-4.02-1.58c0,.22-.19.49-.43.4v-.05c-.05-.21-.43-.47-.61-.51.45-.19.87-.02,1.04.16m-.83.47c.12.12.12.23.06.3-.11.14-.26.16-.39.15-.15-.21-.5-.33-.87-.22.32-.49.91-.42,1.21-.23m-1.62,1.07c.1-.67.78-.59,1.11-.43.11.11.1.26.01.35-.05.06-.27.11-.45.04-.16-.12-.46-.1-.68.03m4.5,5.12c-.08.18-.17.34-.55-.02-.38-.36-.38-.38-.83-.59-.29-.14-.46-.27-.71-.62.2.06.32.04.53-.05-.34,0-.84-.48-1.04-.89.14.06.28.05.41,0-.51-.33-.53-.87-.68-1.44-.85-.17-1.06-.84-1.03-1.27.33.03.68-.03.78-.21.07-.12.06-.31.01-.45.34.04.56-.18.61-.44.24.12.64.06.75-.5.08.07.15.21.19.35-.2.38-.57.9-.79,1.18l.27.28c.08.08.17.14.28.18-.25.52-.17,1.85.64,2.54.12.51.38,1.45,1.26,1.76,0,0,0,.01.01.02-.05.06-.09.13-.1.17m-.94-6.59c-.35.04-.54-.2-.65-.43.07-.03.12-.06.16-.09.23-.08.44-.13.55-.01l.62.84s-.11.72.6,1.05c.21.18.49.49.59.85.16.6.69.83,1.01.83.41,0,.86-.22,1.02-.82.09-.37.36-.68.57-.86.75-.32.63-1.07.63-1.07l.69-.87c.06-.04.13-.03.2.02.21.27.37.37.61.52-.14.22-.46.23-.81.15.02.15.06.32.1.51,0,0,0,.01,0,.02.03.14.07.28.12.41.02.06.04.11.06.17.02.05.04.1.06.15.05.09.09.19.13.28,0,.01,0,.02.01.02h0s.02.03.02.04c.03.06.06.11.1.16.03.04.06.09.1.12,0,0,.01.02.02.03-.11.09-.41.09-.74-.04,0,0,0,.01.01.01h0c.1.08.17.17.24.27.02.04.03.08.05.12.02.06.06.13.07.2.03.08.04.18.06.27v.06c.01.11.01.22,0,.33-.03.58-.26,1.17-.5,1.47.02-.53-.1-1.34-.71-1.61.78,1.07-.08,2.77-1.22,2.99.18-.3.66-1.31-.13-2.31,1.11,1.93-1.44,2.16-.79,3.66-.2-.07-.38-.15-.54-.24-.01-.01-.03-.02-.04-.02-.52-1.54.32-3.14.32-3.14,0,0-1.22,1.34-.69,2.86-.02,0-.03-.03-.05-.05-.08-.07-.15-.15-.21-.22-.03-.05-.06-.09-.08-.13-.05-.07-.08-.14-.11-.2-.03-.06-.05-.11-.07-.17-.24-.73.05-1.51.37-1.92-.63.2-.84.99-.82,1.73-1.37-1.66-.28-2.76.21-3.2-.5.05-1.01.73-1.27,1.26-.61-1.03-.35-1.91.3-2.4-.43.16-.82.14-.94.02,0,0,.65-.79.76-1.3,0,0,0-.03.04-.27v-.05Zm-1.01,11.72c-.15-.14-.23-.44-.22-.74.02-.49.4-.83.87-.81.35-.68.93-.68,1.29-.52.63-.29,1.08-1.25,1.47-1.51,0-.14-.02-.31-.03-.5.33.13.65.19.89.19-.32-.79-.1-1.03.15-1.4.78.14,1.46-.33,1.83-.77.82-.53,1.33-1.58,1.44-2.39,1.78-.38,4.22.06,5.88.3,0,0,.02,0,.03.01.16.01.32.04.46.06,1.9.25,2.83-.54,2.83-1.35,0-.48-.46-1.05-1.1-1.05s-1.16.56-.97,1.36c-1.19,0-1.25-.86-.81-1.24.28-.05.58-.17.86-.43l.23-.21c.47-.02.83-.18,1.14-.34,1,.19,1.84.66,1.84,1.8,0,1.65-1.78,2.33-2.55,2.33-.31,0-.96-.05-1.65-.42.52.33.89,1.07,1.01,1.7.63.31,1.25.37,1.65.4.98-.31,1.49.8,1.56,1.34-.13-.19-.6-.37-.87-.35.69.39.99,1.17.96,1.93-.12-.25-.4-.58-.65-.55.61.72.33,1.82-.16,2.14,0-.27-.04-.61-.14-.85.11.55-.48,1.64-1.11,1.4-.57-.26-1.06-.34-1.32-.36h-.07s-.07,0-.09,0c-.09,0-.12.02-.12.02,0,0-.14.06-.2.22h0s0,0,0,0c-.08-.11-.11-.24-.1-.37,0-.06.01-.11.02-.16,0-.01,0-.03,0-.04.01-.04.02-.08.04-.12,0-.01.01-.03.02-.04.01-.03.02-.06.03-.1.01-.01.02-.02.02-.03.02-.04.04-.08.06-.12-.02-.06-.02-.13-.01-.2.05-.33.4-.67.62-.67.41,0,.49.6,1.14.6.14,0,.22-.03.31-.54.08-.38.03-.55-.09-.88-.26-.33-.3-.71-.31-1.03-.49.12-1.3.13-2,.08-.07,0-.14-.02-.21-.02-.06,0-.12-.01-.17-.02-.06,0-.12-.02-.17-.03-.06,0-.13-.01-.18-.03-.04,0-.09-.02-.12-.02-.09-.01-.16-.04-.22-.06h-.01c-.26-.41-.53-1.55-1.12-2.05-.8,1-.36,1.9.27,2.75.17.05.48.67-.22.9,0-.03-.01-.05-.04-.07-.04-.04-.12-.05-.21-.04-.22.01-.51.16-.53.47-.11-.02-.21-.02-.3,0-.18.03-.34.13-.49.3,0,0-.02.01-.03.02-.03.04-.05.09-.08.13-.04.07-.09.13-.13.21-.06.07-.14.14-.23.2h-.02c-.17-.02-.33-.02-.5-.03-.73-.05-1.13.09-1.48.3-.53-.32-1.2-.3-1.76-.17,0-.03.01-.06.02-.09,0-.04.01-.07.01-.11,0-.02.01-.05.03-.07.01-.05.03-.1.04-.14.01-.02.01-.04.02-.06.02-.05.05-.1.07-.16.01-.02.02-.03.02-.06.03-.05.05-.09.08-.14.02-.02.02-.04.04-.05.03-.04.05-.09.09-.12.01-.02.03-.03.04-.05.03-.03.06-.07.09-.09.02-.02.04-.03.06-.04.03-.02.05-.04.08-.05.04-.02.08-.02.12-.03.01,0,.02,0,.03,0,.4,0,1.13.26,1.28.25,0,0,.01,0,.01,0,.15-.02.43-.06.54-.23.02-.03.04-.05.06-.07.02-.04.05-.07.08-.11,0,0,0,0,0-.01.13-.17.31-.37.51-.55.33-.3.71-.57,1.03-.58h0,0c-1.08-.03-1.28-.93-1.28-1.42,0-.64.78-1.41,1.23-1.57-.13-.04-.25-.05-.37-.05-.81-.02-1.24.68-1.47,1.07-.03.05-.06.1-.12.14-.15.14-.38.28-.67.43-.4.2-.89.41-1.43.67,0,0-.02-.01-.02-.02-.01.21-.04.4-.1.58-.07.17-.16.32-.3.42-.04-.1-.17-.41-.36-.53.32.89-.28,1.83-.77,2.12.1-.15.11-.63-.06-.89-.02.16-.06.31-.11.46-.02.04-.05.09-.06.14-.04.09-.09.18-.14.27-.35.59-.91.96-1.22,1.1-.06.1-.14.2-.21.28,0,0-.01.01-.02.02-.06.07-.12.13-.19.18-.01.01-.02.02-.03.02-.06.05-.13.09-.19.12-.01,0-.02,0-.03,0-.06.03-.13.04-.18.04.16-.46-.18-.79-.48-.86-.27-.07-.59.11-.67.53-.29-.34-.63-.13-.64.19-.03-.08-.27-.2-.42-.13-.18.08-.3.35-.19.76m2.09.24c-.1-.01-.21-.07-.3-.17-.03-.04-.07-.07-.1-.11-.01-.01-.02-.03-.03-.03-.03-.04-.06-.1-.09-.15,0,0,0-.01-.01-.02-.06-.12-.1-.26-.11-.38,0-.05,0-.09,0-.14v-.03c.04-.23.37-.26.49-.2.09.04.3.19.26.42h0c-.03.06-.06.13-.08.21,0,.01,0,.03-.01.05-.02.06-.03.13-.05.19,0,0,0,.01,0,.02h0c-.02.14-.01.26.04.34m-1.15-.1s-.06-.11-.08-.16c-.05-.12-.08-.25-.1-.38,0-.17.13-.26.2-.28.1-.03.22.05.29.19v.02h0s.01.02.02.03v.02s-.02.09-.02.16v.02c0,.06,0,.12.01.19,0,.02,0,.04,0,.05,0,.07.02.14.04.2,0,.02,0,.04.01.05.02.06.04.12.06.16,0,0,0,.01,0,.01-.05,0-.1-.02-.15-.04-.01,0-.02-.01-.03-.02-.04-.02-.08-.04-.11-.07-.01,0-.02-.01-.03-.02-.04-.04-.08-.09-.11-.13,0,0,0,0,0,0m-.72.01h0s-.01-.02-.01-.03c0-.01-.01-.02-.02-.03-.11-.24-.02-.53.09-.58.13-.04.26.03.33.15t0,0c.02.25.15.61.26.79,0,0,0,0,0,.01.02.04.05.07.06.09-.27.01-.57-.17-.7-.42m3.83,1.28c-.79.34-2.23.04-2.39-.7.06-.06.12-.11.14-.15.31.16.52.02.71-.04-.07-.18-.1-.42,0-.58.04,0,.08-.02.12-.03.77.3,1.68,1.34,1.68,1.34l-.25.15Zm2.5-.12c-.38.27-1.28.08-1.79-.63-.49-.71-1.04-.98-1.04-.98,0,0,.05-.07.12-.13.27-.19.5-.29.95-.22.52.07,1.09.82,1.36,1.17.27.34.58.63.58.63l-.19.16Zm2.27-.25c-.37.26-1.23.07-1.71-.6-.48-.68-1-.94-1-.94,0,0,.05-.06.12-.12.14-.11.28-.17.45-.2.24.04.5.08.75.09.41.23.81.75,1.02,1.01.26.33.56.6.56.6l-.18.16Zm2.31.12c-.4.22-1.25-.04-1.65-.77-.41-.72-.91-1.04-.91-1.04,0,0,.06-.06.14-.11,0,0,0,0,.01,0,.25-.03.49-.07.73-.15.06.01.11.01.18.03.49.12.97.89,1.19,1.24.23.35.5.66.5.66l-.19.13Zm2.29.3c-.4.17-1.21-.17-1.52-.92-.32-.74-.77-1.1-.77-1.1,0,0,.06-.05.14-.09.29-.13.5-.17.92-.03.46.17.84.97,1.03,1.34.18.36.41.69.41.69l-.21.11Zm1.02-.37c-.25-.29-.82-1.18-.82-1.18,0,0,.36-.07.75-.09,0,0,1.19.01,1.61.78t.01.01c.05.17.05.38-.02.65-.24.86-1.29.11-1.53-.17m-30.25-5.89c-.74,1.4-1.44,2.73-4.26,2.73-1.1,0-2.33-.79-3.15-2.03-.46-.7-.74-1.44-.81-2.14.83.54,1.88.85,2.95.85.21,0,.42-.01.63-.04l1.16-.12-.41-1.11c-.51-1.4-.34-3.72.37-4.85.02-.02.03-.05.04-.07.2.46.49.92.87,1.36,1.08,1.22,2.66,2.05,4.31,2.25-.79.95-1.33,2.51-1.69,3.18m57.06.69c-.82,1.24-2.05,2.03-3.14,2.03-2.83,0-3.54-1.33-4.27-2.73-.36-.67-.89-2.22-1.69-3.18,1.65-.19,3.24-1.02,4.31-2.25.38-.44.67-.9.87-1.36.01.02.03.05.05.07.7,1.13.88,3.44.36,4.85l-.41,1.11,1.17.12c.21.02.42.04.62.04,1.08,0,2.12-.31,2.96-.85-.08.7-.36,1.44-.82,2.14"/><path class="cls-11" d="m193.8,174.51l.57-.24h-1.18v.79l.11-.13s.51.05.51-.42"/><path class="cls-11" d="m191.88,174.92l.11.13v-.79h-1.18l.57.24c0,.47.5.42.5.42"/><path class="cls-11" d="m189.43,173.27c.04,1.07.58.63.83.92.06-.26-.03-.93-.83-.92"/><path class="cls-11" d="m195.86,173.55c-.75-.21-.99.41-1.01.67.36-.3.78.2,1.01-.67"/></svg>