<?xml version="1.0" encoding="UTF-8" standalone="no"?><!-- Generator: Gravit.io --><svg xmlns="http://www.w3.org/2000/svg" xmlns:xlink="http://www.w3.org/1999/xlink" style="isolation:isolate" viewBox="0 0 64 64" width="64pt" height="64pt"><defs><clipPath id="_clipPath_SbUX2CPd72dxYLcCbRS3EvswNhzq9JyO"><rect width="64" height="64"/></clipPath></defs><g clip-path="url(#_clipPath_SbUX2CPd72dxYLcCbRS3EvswNhzq9JyO)"><g><path d=" M 15.125 41.375 C 16.161 41.375 17 42.214 17 43.25 C 17 44.286 16.161 45.125 15.125 45.125 C 10.471 45.125 6.687 41.342 6.687 36.687 C 6.687 35.652 7.527 34.812 8.562 34.812 C 9.598 34.812 10.437 35.652 10.437 36.687 C 10.437 39.271 12.542 41.375 15.125 41.375 Z " fill="rgb(26,116,186)"/><path d=" M 24.5 47.937 C 24.5 48.973 23.661 49.812 22.625 49.812 C 21.589 49.812 20.75 48.973 20.75 47.937 L 20.75 28.25 C 20.75 27.214 21.589 26.375 22.625 26.375 C 23.661 26.375 24.5 27.214 24.5 28.25 L 24.5 47.937 Z " fill="rgb(26,116,186)"/><path d=" M 55.983 43.658 C 59.006 40.637 59.006 35.737 55.983 32.715 L 43.472 20.204 C 40.45 17.182 35.551 17.182 32.529 20.204 L 32.392 20.341 C 29.369 23.363 29.369 28.263 32.392 31.284 L 44.902 43.796 C 47.925 46.818 52.824 46.818 55.846 43.796 L 55.983 43.658 Z  M 58.498 46.447 C 54.011 50.934 46.737 50.934 42.251 46.447 L 29.74 33.936 C 25.253 29.45 25.253 22.176 29.74 17.69 L 29.877 17.552 C 34.364 13.066 41.638 13.066 46.124 17.552 L 58.635 30.063 C 63.122 34.55 63.122 41.824 58.635 46.31 L 58.498 46.447 Z " fill="rgb(26,116,186)"/><path d=" M 37.098 28.822 C 37.818 29.566 37.798 30.753 37.053 31.473 C 36.309 32.193 35.122 32.173 34.402 31.428 C 31.199 28.117 31.199 22.758 34.402 19.446 C 35.122 18.702 36.309 18.682 37.054 19.402 C 37.798 20.122 37.818 21.309 37.098 22.054 C 35.301 23.911 35.301 26.963 37.098 28.822 Z " fill="rgb(26,116,186)"/><path d=" M 38.951 39.888 C 38.219 40.621 37.031 40.621 36.299 39.888 C 35.567 39.156 35.567 37.969 36.299 37.237 L 49.424 24.112 C 50.156 23.379 51.344 23.379 52.076 24.112 C 52.808 24.844 52.808 26.031 52.076 26.763 L 38.951 39.888 Z " fill="rgb(26,116,186)"/><path d=" M 31.932 31.074 L 42.683 41.822 L 42.144 43.006 C 40.27 47.117 36.161 49.812 31.563 49.812 L 13.622 49.812 C 7.203 49.812 2 44.61 2 38.192 L 2 37.995 C 2 31.577 7.203 26.375 13.622 26.375 L 29.55 26.375 L 29.944 27.725 C 30.31 28.98 30.984 30.126 31.932 31.074 Z  M 29.281 33.726 C 28.231 32.676 27.406 31.455 26.83 30.125 L 13.622 30.125 C 9.274 30.125 5.75 33.648 5.75 37.995 L 5.75 38.192 C 5.75 42.539 9.274 46.062 13.622 46.062 L 31.563 46.062 C 34.244 46.062 36.679 44.71 38.115 42.558 L 29.281 33.726 Z " fill="rgb(26,116,186)"/></g></g></svg>