<?xml version="1.0" encoding="UTF-8" standalone="no"?>
<svg width="21px" height="24px" viewBox="0 0 21 24" version="1.1" xmlns="http://www.w3.org/2000/svg" xmlns:xlink="http://www.w3.org/1999/xlink">
    <!-- Generator: Sketch 49.1 (51147) - http://www.bohemiancoding.com/sketch -->
    <title>navigation/search</title>
    <desc>Created with Sketch.</desc>
    <defs></defs>
    <g id="library" stroke="none" stroke-width="1" fill="none" fill-rule="evenodd">
        <g id="navigation/search" transform="translate(-1.000000, -1.000000)" fill="#FFFFFF">
            <g transform="translate(1.000000, 1.000000)" id="Fill-1">
                <g>
                    <path d="M3.46263185,9.80883097 C3.46263185,6.3931715 6.12486303,3.61416027 9.39731648,3.61416027 C12.6697699,3.61416027 15.3322675,6.3931715 15.3322675,9.80883097 C15.3322675,13.2242124 12.6697699,16.0029456 9.39731648,16.0029456 C6.12486303,16.0029456 3.46263185,13.2242124 3.46263185,9.80883097 M20.6724448,21.1556261 L16.7008061,15.9715302 C18.0088819,14.2859415 18.7948993,12.1419104 18.7948993,9.80883097 C18.7948993,4.40010112 14.5790119,0 9.39731648,0 C4.2156211,0 0,4.40010112 0,9.80883097 C0,15.2172828 4.2156211,19.6171059 9.39731648,19.6171059 C11.0950715,19.6171059 12.6881485,19.1422608 14.0641451,18.3171203 L17.9683957,23.4130862 C18.4843279,24.0864321 19.4349535,24.197081 20.0806012,23.6582931 L20.4372522,23.3602639 C21.0828999,22.821754 21.1889097,21.829528 20.6724448,21.1556261"></path>
                </g>
            </g>
        </g>
    </g>
</svg>