<?xml version="1.0" encoding="UTF-8" standalone="no"?><!-- Generator: Gravit.io --><svg xmlns="http://www.w3.org/2000/svg" xmlns:xlink="http://www.w3.org/1999/xlink" style="isolation:isolate" viewBox="0 0 64 64" width="64pt" height="64pt"><defs><clipPath id="_clipPath_NOu9Ja2GX5bZDyBsCTK2rIkdaim6EP89"><rect width="64" height="64"/></clipPath></defs><g clip-path="url(#_clipPath_NOu9Ja2GX5bZDyBsCTK2rIkdaim6EP89)"><path d=" M 22.849 30.533 L 22.849 43.517 C 29.012 39.171 35.07 34.9 41.227 30.559 L 41.227 43.386 C 41.495 43.224 41.661 43.136 41.813 43.029 C 43.452 41.879 45.08 40.714 46.731 39.583 C 47.132 39.307 47.294 39.016 47.293 38.515 C 47.277 30.224 47.281 21.932 47.281 13.64 L 47.281 12.855 L 53.41 12.855 L 53.41 34.865 C 55.512 33.391 57.48 32.011 59.538 30.568 C 59.552 30.878 59.568 31.069 59.568 31.261 C 59.569 41.255 59.569 51.25 59.569 61.244 C 59.569 61.999 59.567 62 58.792 62 C 40.912 62 23.033 62 5.154 62 C 4.443 62 4.442 62 4.442 61.289 C 4.441 55.559 4.446 49.83 4.431 44.101 C 4.43 43.645 4.576 43.38 4.947 43.12 C 10.683 39.098 16.409 35.059 22.137 31.025 C 22.327 30.89 22.521 30.759 22.849 30.533 Z " fill-rule="evenodd" fill="rgb(26,116,186)"/><path d=" M 53.526 8.964 C 51.45 8.053 49.376 7.511 47.205 7.281 C 43.696 6.909 40.285 7.235 37.071 8.653 C 31.746 11.003 26.418 10.882 21.05 8.816 C 18.668 7.899 16.228 7.199 13.619 7.102 C 10.646 6.992 7.839 7.6 5.13 8.688 C 4.963 8.755 4.796 8.822 4.628 8.885 C 4.597 8.896 4.558 8.886 4.484 8.886 C 4.469 8.758 4.442 8.631 4.442 8.504 C 4.438 7.118 4.45 5.73 4.431 4.344 C 4.427 4.008 4.551 3.828 4.867 3.674 C 7.227 2.524 9.76 2.109 12.396 2.013 C 15.391 1.904 18.223 2.489 20.94 3.601 C 24.824 5.191 28.851 5.671 33.003 4.871 C 34.47 4.589 35.912 4.112 37.304 3.583 C 40.23 2.47 43.223 1.827 46.403 2.045 C 48.735 2.205 50.964 2.699 53.072 3.654 C 53.431 3.817 53.582 4.008 53.575 4.387 C 53.553 5.723 53.568 7.06 53.565 8.396 C 53.564 8.559 53.543 8.722 53.526 8.964 Z " fill-rule="evenodd" fill="rgb(26,116,186)"/></g></svg>