<?xml version="1.0" standalone="no"?><!-- Generator: Gravit.io --><svg xmlns="http://www.w3.org/2000/svg" xmlns:xlink="http://www.w3.org/1999/xlink" style="isolation:isolate" viewBox="0 0 24 24" width="24" height="24"><defs><clipPath id="_clipPath_P2dz9ArRoElNcHs0ElKSQxN8I4qqt1cP"><rect width="24" height="24"/></clipPath></defs><g clip-path="url(#_clipPath_P2dz9ArRoElNcHs0ElKSQxN8I4qqt1cP)"><g><g><path d=" M 13.565 5.699 C 13.565 6.173 13.407 6.575 13.09 6.904 C 12.773 7.233 12.375 7.397 11.896 7.397 C 11.416 7.397 11.007 7.233 10.667 6.904 C 10.327 6.575 10.157 6.173 10.157 5.699 C 10.157 5.224 10.323 4.823 10.655 4.494 C 10.987 4.165 11.393 4 11.872 4 C 12.352 4 12.754 4.165 13.078 4.494 C 13.403 4.823 13.565 5.224 13.565 5.699 Z  M 14.841 19.426 C 14.624 19.579 14.334 19.713 13.971 19.828 C 13.608 19.943 13.217 20 12.8 20 C 11.872 20 11.215 19.74 10.829 19.22 C 10.674 19.005 10.566 18.745 10.504 18.439 C 10.443 18.133 10.412 17.796 10.412 17.429 L 10.412 10.887 L 9.067 10.887 L 9.067 8.729 L 13.496 8.729 L 13.496 17.291 C 13.496 17.75 13.681 17.98 14.052 17.98 C 14.191 17.98 14.35 17.949 14.528 17.888 C 14.705 17.827 14.841 17.758 14.933 17.681 L 14.841 19.426 Z " fill-rule="evenodd" fill="rgb(0,0,0)"/></g></g><circle vector-effect="non-scaling-stroke" cx="11.999999999999998" cy="11.999999999999998" r="10.5" fill="none" stroke-width="1" stroke="rgb(0,0,0)" stroke-linejoin="miter" stroke-linecap="square" stroke-miterlimit="3"/></g></svg>