<?xml version="1.0" encoding="utf-8"?>
<!-- Generator: Adobe Illustrator 23.1.0, SVG Export Plug-In . SVG Version: 6.00 Build 0)  -->
<svg version="1.1" id="Layer_1" xmlns="http://www.w3.org/2000/svg" xmlns:xlink="http://www.w3.org/1999/xlink" x="0px" y="0px"
	 viewBox="0 0 1074.7 210.5" style="enable-background:new 0 0 1074.7 210.5;" xml:space="preserve">
<style type="text/css">
	.st0{fill:#D2D2D2;}
</style>
<g>
	<path class="st0" d="M545.8,0c-7.6,0-14.6,2.1-20.7,5.7c-5.8,3.4-10.6,8.3-14.1,14.1c-3.6,6.1-5.7,13.1-5.7,20.7V77v19.8v113.8
		h16.4c1.8,0,3.3-1.5,3.3-3.3V96.7h32.6c1.8,0,3.3-1.5,3.3-3.3V77.9v-1h-32.7H525v-1.7V41.8c0-0.4,0-0.9,0-1.3c0-0.4,0-0.9,0-1.3
		c0.7-10.4,8.9-18.6,19.2-19.4c0.5,0,1-0.1,1.5-0.1s1,0,1.5,0.1h24l0,0c1.8,0,3.3-1.5,3.3-3.3V12V0H545.8z"/>
	<path class="st0" d="M1045.9,190.7L1045.9,190.7c-11-0.1-19.9-8.6-20.7-19.3c0-0.5-0.1-1-0.1-1.5s0-1,0.1-1.5v-33.3V96.7h32.6
		c1.8,0,3.3-1.5,3.3-3.3V76.9h-35.9V3.3c0-1.8-1.5-3.3-3.3-3.3h-16.4v76.9v19.8v72.2v2.1c0.2,7.2,2.3,14,5.7,19.8
		c3.4,5.7,8.3,10.5,14,14c6.1,3.6,13.1,5.7,20.7,5.7v0.1h25.5c1.8,0,3.3-1.5,3.3-3.3v-8.8v-7.6h-28.8V190.7z"/>
	<path class="st0" d="M948,82.7c-6.1-3.6-13.1-5.7-20.7-5.7l0,0h-38.7l0,0c-7.6,0-14.6,2.1-20.7,5.7c-5.8,3.4-10.6,8.3-14.1,14
		c-3.6,6.1-5.7,13.2-5.7,20.7v93.1h16.4c1.8,0,3.3-1.5,3.3-3.3v-55v-33.3c0-0.5-0.1-1-0.1-1.5s0-1,0.1-1.5
		c0.7-10.6,9.4-19,20.2-19.3c0.2,0,0.4,0,0.5,0c0.2,0,0.4,0,0.5,0h3.4h30.8h3.4c0.2,0,0.4,0,0.5,0c0.2,0,0.4,0,0.5,0
		c10.8,0.3,19.5,8.7,20.2,19.4c0,0.4,0,0.9,0,1.3s0,0.9,0,1.3V152v55c0,1.8,1.5,3.3,3.3,3.3h16.4v-93.1c0-7.6-2.1-14.7-5.7-20.7
		C958.6,90.9,953.8,86.1,948,82.7z"/>
	<path class="st0" d="M804.8,96.7c-3.4-5.7-8.3-10.6-14-14c-6.1-3.6-13.2-5.7-20.7-5.7l0,0h-38.2l0,0c-7.6,0-14.6,2.1-20.7,5.7
		c-5.8,3.4-10.6,8.3-14.1,14c-3.6,6.1-5.7,13.2-5.7,20.7V170c0,7.6,2.1,14.6,5.7,20.7c3.4,5.8,8.3,10.6,14.1,14.1
		c6.1,3.6,13.1,5.7,20.7,5.7h38.2c7.6,0,14.7-2.1,20.7-5.7c5.8-3.4,10.6-8.3,14-14c3.6-6.1,5.7-13.1,5.7-20.7l0,0v-52.6l0,0
		C810.5,109.8,808.5,102.7,804.8,96.7z M790.8,135.3v16.8V170c0,11-8.6,20-19.4,20.7c-0.4,0-0.9,0-1.3,0c-0.4,0-0.9,0-1.3,0h-2.1
		h-31.3h-2.1c-0.4,0-0.9,0-1.3,0c-0.4,0-0.9,0-1.3,0c-10.4-0.6-18.6-8.9-19.4-19.2c0-0.5-0.1-1-0.1-1.5s0-1,0.1-1.5v-16.4v-16.9
		v-16.4c0-0.5-0.1-1-0.1-1.5s0-1,0.1-1.5c0.7-10.6,9.4-19,20.2-19.3c0.2,0,0.4,0,0.5,0c0.2,0,0.4,0,0.5,0h2.9h31.3h2.9
		c0.2,0,0.4,0,0.5,0c0.2,0,0.4,0,0.5,0c11.2,0.3,20.2,9.5,20.2,20.7L790.8,135.3L790.8,135.3z"/>
	<path class="st0" d="M635.5,77c-7.6,0-14.6,2.1-20.7,5.7c-5.8,3.4-10.6,8.3-14.1,14c-3.6,6.1-5.7,13.2-5.7,20.7v93.1h16.4
		c1.8,0,3.3-1.5,3.3-3.3v-55v-33.4c0-0.4,0-0.9,0-1.3s0-0.9,0-1.3c0.7-10.6,9.4-19.1,20.2-19.4c0.2,0,0.4,0,0.5,0c0.2,0,0.4,0,0.5,0
		h31.6c0.8,0,1.5-0.3,2.1-0.7c0.7-0.6,1.2-1.5,1.2-2.6V76.9L635.5,77L635.5,77z"/>
	<path class="st0" d="M447.9,82.7c-6.1-3.6-13.1-5.7-20.7-5.7l0,0h-38.7l0,0c-7.6,0-14.6,2.1-20.7,5.7c-5.8,3.4-10.6,8.3-14.1,14
		c-3.6,6.1-5.7,13.2-5.7,20.7v93.1h16.4c1.8,0,3.3-1.5,3.3-3.3v-55v-33.4c0-0.4,0-0.9,0-1.3s0-0.9,0-1.3
		c0.7-10.6,9.4-19.1,20.2-19.4c0.2,0,0.4,0,0.5,0c0.2,0,0.4,0,0.5,0h3.4h30.8h3.4c0.2,0,0.4,0,0.5,0c0.2,0,0.4,0,0.5,0
		c10.7,0.3,19.4,8.7,20.2,19.3c0,0.5,0.1,1,0.1,1.5s0,1-0.1,1.5v33.3v55c0,1.8,1.5,3.3,3.3,3.3h16.4v-93.1c0-7.6-2.1-14.7-5.7-20.7
		C458.5,90.9,453.7,86.1,447.9,82.7z"/>
	<path class="st0" d="M307.1,0h-16.4v207.2c0,1.8,1.5,3.3,3.3,3.3h16.4V3.3C310.4,1.5,309,0,307.1,0z"/>
</g>
<g>
	<polygon class="st0" points="0,0 0,34.3 0,165.6 59.4,83.8 78.9,56.8 	"/>
	<polygon class="st0" points="132.2,153.3 210.5,210.5 210.5,175.3 210.5,44.9 	"/>
	<polygon class="st0" points="152.8,0 120.2,0 0,0 74.9,62.4 95.2,79.3 131.2,109.2 210.5,0 	"/>
	<polygon class="st0" points="136,147.5 79.7,100.7 0,210.5 57.7,210.5 90.3,210.5 210.5,210.5 	"/>
</g>
</svg>
