<?xml version="1.0" encoding="UTF-8" standalone="no"?>
<svg width="24px" height="24px" viewBox="0 0 24 24" version="1.1" xmlns="http://www.w3.org/2000/svg" xmlns:xlink="http://www.w3.org/1999/xlink">
    <!-- Generator: Sketch 49.1 (51147) - http://www.bohemiancoding.com/sketch -->
    <title>social/insta_btn</title>
    <desc>Created with Sketch.</desc>
    <defs></defs>
    <g id="library" stroke="none" stroke-width="1" fill="none" fill-rule="evenodd">
        <g id="social/insta_btn" transform="translate(-1.000000, -1.000000)">
            <g transform="translate(1.000000, 1.000000)">
                <path d="M23.9030172,11.9515086 C23.9030172,18.5517293 18.5517293,23.9030172 11.9515086,23.9030172 C5.35128798,23.9030172 0,18.5517293 0,11.9515086 C0,5.35128798 5.35128798,0 11.9515086,0 C18.5517293,0 23.9030172,5.35128798 23.9030172,11.9515086" id="Fill-1" fill="#40729A"></path>
                <path d="M16.5975082,8.86226773 C16.5975082,9.19690997 16.3263584,9.46805983 15.9917161,9.46805983 L15.0191621,9.46805983 C14.6845199,9.46805983 14.41337,9.19690997 14.41337,8.86226773 L14.41337,7.88971372 C14.41337,7.55507148 14.6845199,7.28392163 15.0191621,7.28392163 L15.9917161,7.28392163 C16.3263584,7.28392163 16.5975082,7.55507148 16.5975082,7.88971372 L16.5975082,8.86226773 Z M16.5758461,15.8046003 C16.5758461,16.2311198 16.2307463,16.5762196 15.8049738,16.5762196 L8.09774467,16.5762196 C7.67197217,16.5762196 7.32687236,16.2311198 7.32687236,15.8046003 L7.32687236,10.7954243 L8.38009906,10.7954243 C8.26581276,11.1532225 8.20530824,11.5341769 8.20530824,11.9300706 C8.20530824,13.9991755 9.8822543,15.6768686 11.9513592,15.6768686 C14.0212111,15.6768686 15.6981572,13.9991755 15.6981572,11.9300706 C15.6981572,11.5341769 15.6369057,11.1532225 15.5233664,10.7954243 L16.5758461,10.7954243 L16.5758461,15.8046003 Z M9.76647406,10.7946773 C9.81726797,10.6975713 9.8747846,10.6034531 9.93753002,10.5145638 C9.93902396,10.5123229 9.9405179,10.510082 9.94201184,10.5078411 C9.98757697,10.4443487 10.03613,10.3823502 10.0876709,10.3233397 C10.0906587,10.3188578 10.0936466,10.315123 10.0973815,10.3113882 C10.1466814,10.2546185 10.1982223,10.2008367 10.2527511,10.1485488 C10.2579798,10.1433201 10.2639556,10.1380913 10.2691844,10.1328625 C10.2856177,10.1171761 10.302798,10.1014898 10.3207253,10.0865504 C10.3259541,10.0805746 10.3334237,10.0753459 10.3393995,10.0701171 C10.3700252,10.0432262 10.400651,10.0178292 10.4320237,9.99392621 C10.4402404,9.98645651 10.448457,9.98048076 10.4574206,9.97375803 C10.473107,9.96105956 10.4895403,9.94910805 10.5067206,9.93715654 C10.5171782,9.92893988 10.5283827,9.92072322 10.5403342,9.91325352 C10.5605024,9.89906111 10.5806706,9.88486869 10.6015857,9.87142324 C10.6210069,9.85797779 10.6404281,9.84602629 10.6598493,9.83407478 C10.6747887,9.82436418 10.6897281,9.81614751 10.7046675,9.80718388 C10.7196069,9.79822025 10.7352932,9.78925662 10.7502326,9.78103996 C10.764425,9.7728233 10.7786174,9.76460663 10.7935568,9.75713694 C10.8204477,9.74294452 10.8480856,9.72875211 10.8749765,9.71530666 C10.886928,9.70933091 10.8988795,9.70335515 10.911578,9.69887334 C10.9317461,9.68916274 10.9519143,9.67945213 10.9720825,9.67123547 C10.9855279,9.66525972 10.9974794,9.66003093 11.0109249,9.65405518 C11.0363218,9.64359761 11.0609718,9.63388701 11.0871158,9.62492338 C11.0975733,9.62044156 11.1072839,9.61670671 11.1184885,9.61297187 C11.1468733,9.6025143 11.1752581,9.5928037 11.203643,9.58384007 C11.2148475,9.58010522 11.227546,9.57711734 11.2387505,9.5733825 C11.2648945,9.56516583 11.2910384,9.55769614 11.3164353,9.55097342 C11.325399,9.54873251 11.3336156,9.5464916 11.3425793,9.54425069 C11.3761929,9.53528706 11.4105535,9.52781737 11.445661,9.52034768 C11.4546246,9.51810677 11.4643353,9.51586586 11.4747928,9.51437192 C11.5024307,9.50914314 11.5293216,9.50391435 11.5577064,9.49943254 L11.5868382,9.49495072 C11.6226927,9.48972194 11.6585473,9.48449315 11.6951488,9.48150527 C11.7011245,9.4807583 11.7078472,9.48001133 11.71457,9.47926437 C11.7459427,9.47627649 11.7765684,9.47403558 11.8071942,9.47254164 C11.8183987,9.47179467 11.8281093,9.4710477 11.8385669,9.47030073 C11.8759153,9.4688068 11.9132638,9.46805983 11.9513592,9.46805983 C11.9894547,9.46805983 12.0268031,9.4688068 12.0648986,9.47030073 C12.0746092,9.4710477 12.0850667,9.47179467 12.0947773,9.47254164 C12.12615,9.47403558 12.1575228,9.47627649 12.1881485,9.47926437 C12.1941242,9.48001133 12.2015939,9.4807583 12.2083167,9.48150527 C12.2449182,9.48449315 12.2800257,9.48972194 12.3158802,9.49495072 C12.3255908,9.49644466 12.3353014,9.4979386 12.345012,9.49943254 C12.3726499,9.50391435 12.4002878,9.50914314 12.4286726,9.51437192 C12.4383832,9.51586586 12.4473468,9.51810677 12.4578044,9.52034768 C12.492165,9.52781737 12.5265256,9.53528706 12.5608862,9.54425069 C12.5691028,9.5464916 12.5773195,9.54873251 12.5862831,9.55097342 C12.613174,9.55769614 12.638571,9.56516583 12.6639679,9.5733825 C12.6759194,9.57711734 12.6878709,9.58010522 12.6990755,9.58384007 C12.7274603,9.5928037 12.7558452,9.6025143 12.784977,9.61297187 C12.7946876,9.61670671 12.8058921,9.62044156 12.8163497,9.62492338 C12.8409996,9.63388701 12.8663966,9.64359761 12.8917936,9.65405518 C12.904492,9.66003093 12.9179375,9.66525972 12.930636,9.67123547 C12.9515511,9.67945213 12.9709723,9.68916274 12.9918874,9.69812637 C13.003092,9.70335515 13.0157905,9.70933091 13.026995,9.71530666 C13.0546329,9.72875211 13.0822707,9.74294452 13.1099086,9.75713694 C13.124101,9.76460663 13.1382934,9.7728233 13.1524858,9.78103996 C13.1681722,9.78925662 13.1838586,9.79822025 13.1987979,9.80718388 C13.2137373,9.81614751 13.2279297,9.82436418 13.2436161,9.83407478 C13.2630373,9.84602629 13.2824585,9.85797779 13.3011327,9.87142324 C13.3220479,9.88486869 13.342963,9.89906111 13.3623842,9.91325352 C13.3743357,9.92072322 13.3855403,9.92893988 13.3967448,9.93715654 C13.4131781,9.94910805 13.4288645,9.96105956 13.4452978,9.97375803 C13.4542614,9.98048076 13.4624781,9.98645651 13.4706948,9.99392621 C13.5020675,10.0178292 13.5326932,10.0432262 13.563319,10.0701171 C13.5692947,10.0753459 13.5760174,10.0805746 13.5827402,10.0865504 C13.5999204,10.1014898 13.6171007,10.1171761 13.6335341,10.1328625 C13.6395098,10.1380913 13.6439916,10.1433201 13.6499674,10.1485488 C13.7037492,10.2008367 13.756037,10.2546185 13.805337,10.3113882 C13.8098188,10.315123 13.8120597,10.3188578 13.8157946,10.3233397 C13.8673355,10.3823502 13.9158885,10.4443487 13.9607066,10.5078411 C13.9622006,10.510082 13.9644415,10.5123229 13.9651884,10.5145638 C14.0286808,10.6034531 14.0854505,10.6975713 14.1362444,10.7946773 C14.3125291,11.1345483 14.41337,11.5207314 14.41337,11.9300706 C14.41337,13.2895547 13.3108433,14.3920814 11.9513592,14.3920814 C10.5918751,14.3920814 9.48934845,13.2895547 9.48934845,11.9300706 C9.48934845,11.5207314 9.5901893,11.1345483 9.76647406,10.7946773 Z M16.6736991,5.93564206 L7.22901938,5.93564206 C6.51416977,5.93564206 5.93601554,6.51454326 5.93601554,7.2286459 L5.93601554,16.6740726 C5.93601554,17.3881752 6.51416977,17.9670764 7.22901938,17.9670764 L16.6736991,17.9670764 C17.3885487,17.9670764 17.9674499,17.3881752 17.9674499,16.6740726 L17.9674499,7.2286459 C17.9674499,6.51454326 17.3885487,5.93564206 16.6736991,5.93564206 Z" id="Fill-3" fill="#FFFFFF"></path>
            </g>
        </g>
    </g>
</svg>