<?xml version="1.0" encoding="UTF-8" standalone="no"?><!-- Generator: Gravit.io --><svg xmlns="http://www.w3.org/2000/svg" xmlns:xlink="http://www.w3.org/1999/xlink" style="isolation:isolate" viewBox="0 0 64 64" width="64pt" height="64pt"><defs><clipPath id="_clipPath_VVumGmmrrvAllGYs3xRRYmvrKQ0fiXMZ"><rect width="64" height="64"/></clipPath></defs><g clip-path="url(#_clipPath_VVumGmmrrvAllGYs3xRRYmvrKQ0fiXMZ)"><g><g><g><path d=" M 32 62 C 15.431 62 2 48.569 2 32 C 2 15.431 15.431 2 32 2 C 48.569 2 62 15.431 62 32 C 62 48.569 48.569 62 32 62 Z  M 32 60.741 C 47.873 60.741 60.741 47.873 60.741 32 C 60.741 16.127 47.873 3.259 32 3.259 C 16.127 3.259 3.259 16.127 3.259 32 C 3.259 47.873 16.127 60.741 32 60.741 Z " fill="rgb(26,116,186)"/><path d=" M 32 53.667 C 20.034 53.667 10.333 43.966 10.333 32 C 10.333 20.034 20.034 10.333 32 10.333 C 43.966 10.333 53.667 20.034 53.667 32 C 53.667 43.966 43.966 53.667 32 53.667 Z  M 32 52.405 C 43.269 52.405 52.405 43.269 52.405 32 C 52.405 20.731 43.269 11.595 32 11.595 C 20.731 11.595 11.595 20.731 11.595 32 C 11.595 43.269 20.731 52.405 32 52.405 Z " fill="rgb(26,116,186)"/><mask id="_mask_i6xey3R6yCrJszSugzVg4IS7RCe4mgyV" x="-200%" y="-200%" width="400%" height="400%"><rect x="-200%" y="-200%" width="400%" height="400%" style="fill:white;"/><path d=" M 41.675 24.146 C 42.321 23.507 43.369 23.507 44.015 24.146 C 44.662 24.784 44.662 25.819 44.015 26.458 L 27.438 42.833 L 19.985 35.47 C 19.338 34.832 19.338 33.797 19.985 33.158 C 20.631 32.52 21.679 32.52 22.325 33.158 L 27.438 38.209 L 41.675 24.146 Z " fill="black" stroke="none"/></mask><path d=" M 41.675 24.146 C 42.321 23.507 43.369 23.507 44.015 24.146 C 44.662 24.784 44.662 25.819 44.015 26.458 L 27.438 42.833 L 19.985 35.47 C 19.338 34.832 19.338 33.797 19.985 33.158 C 20.631 32.52 21.679 32.52 22.325 33.158 L 27.438 38.209 L 41.675 24.146 Z " fill="none" mask="url(#_mask_i6xey3R6yCrJszSugzVg4IS7RCe4mgyV)" vector-effect="non-scaling-stroke" stroke-width="2.667" stroke="rgb(26,116,186)" stroke-linejoin="miter" stroke-linecap="butt" stroke-miterlimit="4"/><path d=" M 41.675 24.146 C 42.321 23.507 43.369 23.507 44.015 24.146 C 44.662 24.784 44.662 25.819 44.015 26.458 L 27.438 42.833 L 19.985 35.47 C 19.338 34.832 19.338 33.797 19.985 33.158 C 20.631 32.52 21.679 32.52 22.325 33.158 L 27.438 38.209 L 41.675 24.146 Z " fill="none"/></g></g></g></g></svg>