<svg xmlns="http://www.w3.org/2000/svg" width="20" height="20" viewBox="0 0 20 20">
  <path fill="#FFF" fill-rule="evenodd" d="M17.043125,17.0425 L14.076875,17.0425 L14.076875,12.40125 C14.076875,11.294375 14.058125,9.87 12.53625,9.87 C10.9925,9.87 10.756875,11.076875 10.756875,12.321875 L10.756875,17.0425 L7.794375,17.0425 L7.794375,7.498125 L10.6375,7.498125 L10.6375,8.8025 L10.678125,8.8025 C11.07375,8.0525 12.041875,7.26125 13.485,7.26125 C16.488125,7.26125 17.043125,9.2375 17.043125,11.808125 L17.043125,17.0425 Z M4.449375,6.194375 C3.496875,6.194375 2.72875,5.42375 2.72875,4.47375 C2.72875,3.524375 3.496875,2.75375 4.449375,2.75375 C5.398125,2.75375 6.16875,3.524375 6.16875,4.47375 C6.16875,5.42375 5.398125,6.194375 4.449375,6.194375 L4.449375,6.194375 Z M2.96375,17.0425 L5.933125,17.0425 L5.933125,7.498125 L2.96375,7.498125 L2.96375,17.0425 Z M19.166875,0 L0.83375,0 C0.37375,0 0,0.37375 0,0.83375 L0,19.166875 C0,19.626875 0.37375,20 0.83375,20 L19.166875,20 C19.626875,20 20,19.626875 20,19.166875 L20,0.83375 C20,0.37375 19.626875,0 19.166875,0 L19.166875,0 Z"/>
</svg>
