<?xml version="1.0" encoding="UTF-8" standalone="no"?>
<svg width="24px" height="24px" viewBox="0 0 24 24" version="1.1" xmlns="http://www.w3.org/2000/svg" xmlns:xlink="http://www.w3.org/1999/xlink">
    <!-- Generator: Sketch 49.1 (51147) - http://www.bohemiancoding.com/sketch -->
    <title>social/linkedin_btn</title>
    <desc>Created with Sketch.</desc>
    <defs>
        <polygon id="path-1" points="0 2.85337175 0 0.08378175 2.76917687 0.08378175 2.76917687 2.85337175 6.4611165e-17 2.85337175"></polygon>
        <polygon id="path-3" points="0 11.5717546 11.5319712 11.5717546 11.5319712 0.0877058365 0 0.0877058365"></polygon>
    </defs>
    <g id="library" stroke="none" stroke-width="1" fill="none" fill-rule="evenodd">
        <g id="social/linkedin_btn" transform="translate(-1.000000, -1.000000)">
            <g transform="translate(1.000000, 1.000000)">
                <path d="M12,24 C5.373,24 0,18.627 0,12 C0,5.373 5.373,0 12,0 C18.627,0 24,5.373 24,12 C24,18.627 18.627,24 12,24 Z" id="Fill-1" fill="#0178B5"></path>
                <g id="Page-1" transform="translate(6.276923, 6.276923)">
                    <g id="Group-3" transform="translate(0.000000, 0.004255)">
                        <mask id="mask-2" fill="white">
                            <use xlink:href="#path-1"></use>
                        </mask>
                        <g id="Clip-2"></g>
                        <path d="M2.76917687,1.46857675 C2.76917687,2.23368425 2.14948937,2.85337175 1.38438187,2.85337175 C0.619274375,2.85337175 -0.000413125,2.23368425 -0.000413125,1.46857675 C-0.000413125,0.70346925 0.619274375,0.08378175 1.38438187,0.08378175 C2.14948937,0.08378175 2.76917687,0.70346925 2.76917687,1.46857675" id="Fill-1" fill="#FFFFFF" mask="url(#mask-2)"></path>
                    </g>
                    <mask id="mask-4" fill="white">
                        <use xlink:href="#path-3"></use>
                    </mask>
                    <g id="Clip-5"></g>
                    <polygon id="Fill-4" fill="#FFFFFF" mask="url(#mask-4)" points="0.17847 11.5717546 2.57046375 11.5717546 2.57046375 3.90084959 0.17847 3.90084959"></polygon>
                    <path d="M4.06994225,11.5717546 L6.452021,11.5717546 L6.452021,7.61401709 C6.452021,7.61401709 6.36195975,5.82435959 7.79467725,5.82435959 C9.224916,5.82435959 9.12493975,7.17775709 9.12493975,7.62475834 L9.12493975,11.5717546 L11.528501,11.5717546 L11.528501,7.41241209 C11.528501,7.41241209 11.673921,4.39246834 9.9073985,3.90084959 C8.140876,3.40923084 6.97834225,3.97934334 6.36195975,4.98571584 L6.36195975,3.90084959 L4.06994225,3.90084959 L4.06994225,11.5717546 Z" id="Fill-6" fill="#FFFFFF" mask="url(#mask-4)"></path>
                </g>
            </g>
        </g>
    </g>
</svg>