<?xml version="1.0" encoding="UTF-8" standalone="no"?><!-- Generator: Gravit.io --><svg xmlns="http://www.w3.org/2000/svg" xmlns:xlink="http://www.w3.org/1999/xlink" style="isolation:isolate" viewBox="0 0 24 24" width="24pt" height="24pt"><defs><clipPath id="_clipPath_MUMYBxZfT76S4RGtV2c1r3akX7VwYGQq"><rect width="24" height="24"/></clipPath></defs><g clip-path="url(#_clipPath_MUMYBxZfT76S4RGtV2c1r3akX7VwYGQq)"><g><g><g><path d=" M 12.181 1.211 L 12 1 L 11.819 1.211 C 6.494 7.411 3.829 11.969 3.829 14.929 C 3.829 19.386 7.487 23 12 23 C 16.513 23 20.171 19.386 20.171 14.929 C 20.171 11.969 17.506 7.411 12.181 1.211 Z  M 19.695 14.929 C 19.695 19.127 16.25 22.53 12 22.53 C 7.75 22.53 4.305 19.127 4.305 14.929 C 4.305 12.151 6.868 7.736 12 1.727 C 17.132 7.736 19.695 12.151 19.695 14.929 Z " fill="rgb(26,116,186)"/><path d=" M 12 21.429 C 8.702 21.429 6.029 18.755 6.029 15.457 C 6.029 12.159 8.702 9.486 12 9.486 C 15.298 9.486 17.971 12.159 17.971 15.457 C 17.971 18.755 15.298 21.429 12 21.429 Z  M 12 20.951 C 15.034 20.951 17.494 18.491 17.494 15.457 C 17.494 12.423 15.034 9.963 12 9.963 C 8.966 9.963 6.506 12.423 6.506 15.457 C 6.506 18.491 8.966 20.951 12 20.951 Z " fill="rgb(26,116,186)"/><path d=" M 13.571 16.91 L 13.516 17.343 L 10.469 17.343 L 10.469 16.99 C 10.668 16.878 10.828 16.738 10.949 16.572 C 11.07 16.405 11.13 16.217 11.13 16.006 C 11.13 15.86 11.107 15.721 11.059 15.592 C 11.012 15.462 10.954 15.331 10.886 15.199 L 10.114 15.199 L 10.114 14.854 L 10.721 14.854 C 10.647 14.712 10.584 14.562 10.532 14.406 C 10.479 14.249 10.453 14.078 10.453 13.892 C 10.453 13.696 10.491 13.52 10.567 13.363 C 10.643 13.206 10.748 13.073 10.882 12.963 C 11.016 12.853 11.175 12.769 11.359 12.713 C 11.542 12.657 11.742 12.629 11.957 12.629 C 12.398 12.629 12.743 12.729 12.993 12.93 C 13.242 13.13 13.403 13.414 13.477 13.781 L 12.91 13.87 C 12.852 13.63 12.751 13.44 12.607 13.3 C 12.462 13.161 12.248 13.091 11.965 13.091 C 11.681 13.091 11.465 13.165 11.315 13.311 C 11.166 13.458 11.091 13.642 11.091 13.862 C 11.091 14.048 11.12 14.22 11.177 14.376 C 11.235 14.533 11.309 14.692 11.398 14.854 L 12.729 14.854 L 12.729 15.199 L 11.571 15.199 C 11.629 15.311 11.675 15.428 11.709 15.547 C 11.743 15.667 11.76 15.798 11.76 15.94 C 11.76 16.17 11.712 16.36 11.614 16.509 C 11.517 16.659 11.382 16.792 11.209 16.91 L 13.571 16.91 Z " fill-rule="evenodd" fill="rgb(26,116,186)"/></g></g></g></g></svg>