<?xml version="1.0" encoding="UTF-8" standalone="no"?><!-- Generator: Gravit.io --><svg xmlns="http://www.w3.org/2000/svg" xmlns:xlink="http://www.w3.org/1999/xlink" style="isolation:isolate" viewBox="0 0 64 64" width="64pt" height="64pt"><defs><clipPath id="_clipPath_QNiWzo0xb6o1CLWYuv4gwNG4dvtS88XL"><rect width="64" height="64"/></clipPath></defs><g clip-path="url(#_clipPath_QNiWzo0xb6o1CLWYuv4gwNG4dvtS88XL)"><path d=" M 56.97 51.293 L 52.258 51.293 L 11.743 51.293 L 7.03 51.293 L 7.03 48.16 L 16.464 48.16 L 47.538 48.16 L 56.97 48.16 L 56.97 51.293 Z  M 14.274 59.143 L 49.728 59.143 L 49.728 54.15 L 14.274 54.15 L 14.274 59.143 Z  M 20.522 34.742 C 21.067 34.588 21.705 34.432 22.371 34.283 C 23.428 36.732 27.209 38.448 32 38.448 C 36.792 38.448 40.574 36.732 41.629 34.281 C 42.289 34.429 42.919 34.581 43.458 34.734 C 44.316 35.243 45.022 40.094 45.047 45.303 L 18.953 45.303 C 18.976 40.094 19.679 35.245 20.522 34.742 Z  M 28.034 33.21 L 28.779 33.091 L 30.578 27.669 C 30.991 27.817 31.421 27.937 31.889 27.998 L 32 28.012 L 32.11 27.998 C 32.577 27.937 33.007 27.817 33.42 27.669 L 35.221 33.091 L 35.964 33.21 C 35.991 33.215 37.625 33.477 39.506 33.842 C 38.493 35.019 35.795 36.226 32 36.226 C 28.205 36.226 25.508 35.021 24.494 33.842 C 26.376 33.477 28.007 33.215 28.034 33.21 Z  M 25.954 26.271 C 24.928 23.591 22.686 16.686 24.324 11.132 C 26.246 4.618 31.695 4.855 31.924 4.864 L 32 4.867 L 32.069 4.864 C 32.284 4.851 37.751 4.609 39.676 11.132 C 41.314 16.686 39.072 23.591 38.045 26.271 L 36.716 25.725 L 36.716 25.098 C 38.992 22.02 39.505 17.605 39.534 17.332 L 39.668 16.087 L 38.558 16.087 C 34.345 16.087 31.893 9.751 31.869 9.688 L 31.631 9.056 L 31.024 9.015 C 26.336 8.732 24.696 14.165 24.462 17.098 L 24.453 17.216 L 24.464 17.333 C 24.495 17.605 25.008 22.022 27.284 25.099 L 27.284 25.725 L 25.954 26.271 Z  M 26.433 17.179 C 26.522 16.328 27.172 11.535 30.346 11.238 C 31.128 12.973 33.489 17.433 37.395 18.197 C 36.951 20.428 35.587 25.223 32 25.772 C 27.659 25.106 26.566 18.168 26.433 17.179 Z  M 59.5 45.303 L 47.576 45.303 C 47.595 34.627 45.429 32.346 44.092 31.97 C 41.921 31.356 38.552 30.756 37.063 30.504 L 36.451 28.656 L 39.318 29.834 L 39.829 28.718 C 40.02 28.301 44.484 18.395 42.074 10.229 C 40.058 3.39 34.645 1.88 32 2.007 C 29.374 1.885 23.942 3.39 21.926 10.229 C 19.515 18.395 23.98 28.301 24.169 28.718 L 24.682 29.834 L 27.549 28.656 L 26.936 30.504 C 25.448 30.756 22.079 31.356 19.908 31.97 C 18.57 32.346 16.405 34.629 16.427 45.303 L 4.5 45.303 L 4.5 54.15 L 11.743 54.15 L 11.743 62 L 52.258 62 L 52.258 54.15 L 59.5 54.15 L 59.5 45.303 Z " fill-rule="evenodd" fill="rgb(0,156,222)"/></g></svg>