<?xml version="1.0" encoding="UTF-8" standalone="no"?><!-- Generator: Gravit.io --><svg xmlns="http://www.w3.org/2000/svg" xmlns:xlink="http://www.w3.org/1999/xlink" style="isolation:isolate" viewBox="0 0 24 24" width="24pt" height="24pt"><defs><clipPath id="_clipPath_1qk9MXp60qBlDT2La3zbTe67pLS5izfx"><rect width="24" height="24"/></clipPath></defs><g clip-path="url(#_clipPath_1qk9MXp60qBlDT2La3zbTe67pLS5izfx)"><g><g><g><path d=" M 18.268 13.751 L 21.769 13.751 L 21.769 10.25 L 18.268 10.25 L 18.268 13.751 Z  M 19.403 18.788 C 19.403 19.128 19.127 19.404 18.788 19.404 L 14.981 19.404 L 14.981 17.038 L 9.019 17.038 L 9.019 19.404 L 5.212 19.404 C 4.873 19.404 4.596 19.128 4.596 18.788 L 4.596 14.981 L 6.962 14.981 L 6.962 9.019 L 4.596 9.019 L 4.596 5.212 C 4.596 4.873 4.873 4.597 5.212 4.597 L 9.019 4.597 L 9.019 6.962 L 14.981 6.962 L 14.981 4.597 L 18.788 4.597 C 19.127 4.597 19.403 4.873 19.403 5.212 L 19.403 9.019 L 17.038 9.019 L 17.038 14.981 L 19.403 14.981 L 19.403 18.788 Z  M 10.249 21.769 L 13.75 21.769 L 13.75 18.268 L 10.249 18.268 L 10.249 21.769 Z  M 2.231 13.751 L 5.732 13.751 L 5.732 10.25 L 2.231 10.25 L 2.231 13.751 Z  M 10.249 5.732 L 13.75 5.732 L 13.75 2.231 L 10.249 2.231 L 10.249 5.732 Z  M 23 9.019 L 20.634 9.019 L 20.634 5.212 C 20.634 4.194 19.806 3.366 18.788 3.366 L 14.981 3.366 L 14.981 1 L 9.019 1 L 9.019 3.366 L 5.212 3.366 C 4.194 3.366 3.366 4.194 3.366 5.212 L 3.366 9.019 L 1 9.019 L 1 14.981 L 3.366 14.981 L 3.366 18.788 C 3.366 19.806 4.194 20.634 5.212 20.634 L 9.019 20.634 L 9.019 23 L 14.981 23 L 14.981 20.634 L 18.788 20.634 C 19.806 20.634 20.634 19.806 20.634 18.788 L 20.634 14.981 L 23 14.981 L 23 9.019 Z " fill-rule="evenodd" fill="rgb(0,156,222)"/></g></g></g></g></svg>