<?xml version="1.0" encoding="UTF-8" standalone="no"?><!-- Generator: Gravit.io --><svg xmlns="http://www.w3.org/2000/svg" xmlns:xlink="http://www.w3.org/1999/xlink" style="isolation:isolate" viewBox="0 0 24 24" width="24pt" height="24pt"><defs><clipPath id="_clipPath_oQLwFpwoG97SPYfoP5o3M5ZAsKvHtysq"><rect width="24" height="24"/></clipPath></defs><g clip-path="url(#_clipPath_oQLwFpwoG97SPYfoP5o3M5ZAsKvHtysq)"><g><g><g><circle vector-effect="non-scaling-stroke" cx="10.853264326596062" cy="13.12458093751931" r="9.353264326596065" fill="none" stroke-width="0.537" stroke="rgb(26,116,186)" stroke-linejoin="miter" stroke-linecap="butt" stroke-miterlimit="4"/><circle vector-effect="non-scaling-stroke" cx="10.853264326596058" cy="13.124580937519312" r="6.065924563273599" fill="none" stroke-width="0.537" stroke="rgb(26,116,186)" stroke-linejoin="miter" stroke-linecap="butt" stroke-miterlimit="4"/><circle vector-effect="non-scaling-stroke" cx="10.853264326596058" cy="13.12458093751931" r="2.7785847999511315" fill="none" stroke-width="0.537" stroke="rgb(26,116,186)" stroke-linejoin="miter" stroke-linecap="butt" stroke-miterlimit="4"/><circle vector-effect="non-scaling-stroke" cx="10.853264326596058" cy="13.124580937519312" r="0.5870249577361548" fill="none" stroke-width="0.537" stroke="rgb(26,116,186)" stroke-linejoin="miter" stroke-linecap="butt" stroke-miterlimit="4"/><g><mask id="_mask_lVPtFj5kj6xlYlDPRs0BFS8ZUlA3yYxA" x="-200%" y="-200%" width="400%" height="400%"><rect x="-200%" y="-200%" width="400%" height="400%" style="fill:white;"/><line x1="10.943" y1="13.081" x2="19.856" y2="4.169" fill="black" stroke="none"/></mask><line x1="10.943" y1="13.081" x2="19.856" y2="4.169" mask="url(#_mask_lVPtFj5kj6xlYlDPRs0BFS8ZUlA3yYxA)" vector-effect="non-scaling-stroke" stroke-width="1.073" stroke="rgb(26,116,186)" stroke-linejoin="miter" stroke-linecap="round" stroke-miterlimit="4"/><mask id="_mask_y4yHASp9rAUNnmH1x02i8TwZtAVpdXvE" x="-200%" y="-200%" width="400%" height="400%"><rect x="-200%" y="-200%" width="400%" height="400%" style="fill:white;"/><path d=" M 19.903 3.098 L 19.978 4.051 L 20.926 4.122 L 22.5 2.548 L 21.702 2.333 L 21.478 1.522 L 19.903 3.098 Z " fill-rule="evenodd" fill="black" stroke="none"/></mask><path d=" M 19.903 3.098 L 19.978 4.051 L 20.926 4.122 L 22.5 2.548 L 21.702 2.333 L 21.478 1.522 L 19.903 3.098 Z " fill-rule="evenodd" fill="none" mask="url(#_mask_y4yHASp9rAUNnmH1x02i8TwZtAVpdXvE)" vector-effect="non-scaling-stroke" stroke-width="1.073" stroke="rgb(26,116,186)" stroke-linejoin="miter" stroke-linecap="butt" stroke-miterlimit="4"/><path d=" M 19.903 3.098 L 19.978 4.051 L 20.926 4.122 L 22.5 2.548 L 21.702 2.333 L 21.478 1.522 L 19.903 3.098 Z " fill-rule="evenodd" fill="none"/></g></g></g></g></g></svg>