<?xml version="1.0" encoding="UTF-8" standalone="no"?><!-- Generator: Gravit.io --><svg xmlns="http://www.w3.org/2000/svg" xmlns:xlink="http://www.w3.org/1999/xlink" style="isolation:isolate" viewBox="0 0 64 64" width="64pt" height="64pt"><defs><clipPath id="_clipPath_sDFA0VhR1HXquw7LYkyKtYdPtrUo8bZe"><rect width="64" height="64"/></clipPath></defs><g clip-path="url(#_clipPath_sDFA0VhR1HXquw7LYkyKtYdPtrUo8bZe)"><path d=" M 32 47.915 C 23.224 47.915 16.085 40.775 16.085 31.999 C 16.085 23.225 23.224 16.085 32 16.085 C 40.776 16.085 47.915 23.225 47.915 31.999 C 47.915 40.775 40.776 47.915 32 47.915 Z  M 61.783 25.862 L 54.777 25.862 L 54.495 24.955 C 54.084 23.641 53.541 22.336 52.882 21.08 L 52.44 20.238 L 57.399 15.28 C 57.48 15.198 57.48 15.054 57.399 14.972 L 49.028 6.602 C 48.925 6.498 48.822 6.498 48.719 6.602 L 43.763 11.558 L 42.921 11.118 C 41.663 10.459 40.359 9.916 39.043 9.503 L 38.136 9.221 L 38.136 2.217 C 38.136 2.101 38.035 2 37.919 2 L 26.081 2 C 25.965 2 25.864 2.101 25.864 2.217 L 25.864 9.221 L 24.957 9.503 C 23.641 9.916 22.337 10.459 21.079 11.118 L 20.237 11.558 L 15.281 6.602 C 15.178 6.498 15.075 6.498 14.972 6.602 L 6.601 14.972 C 6.52 15.054 6.52 15.198 6.601 15.28 L 11.56 20.238 L 11.118 21.08 C 10.459 22.336 9.916 23.641 9.505 24.955 L 9.223 25.862 L 2.217 25.862 C 2.101 25.862 2 25.964 2 26.08 L 2 37.92 C 2 38.034 2.101 38.138 2.217 38.138 L 9.223 38.138 L 9.505 39.045 C 9.916 40.359 10.459 41.664 11.118 42.92 L 11.56 43.762 L 6.601 48.718 C 6.52 48.802 6.52 48.946 6.601 49.028 L 14.972 57.398 C 15.075 57.502 15.178 57.502 15.281 57.398 L 20.237 52.442 L 21.079 52.882 C 22.337 53.541 23.641 54.084 24.957 54.497 L 25.864 54.779 L 25.864 61.783 C 25.864 61.899 25.965 62 26.081 62 L 37.919 62 C 38.035 62 38.136 61.899 38.136 61.783 L 38.136 54.779 L 39.043 54.497 C 40.359 54.084 41.663 53.541 42.921 52.882 L 43.763 52.442 L 48.719 57.398 C 48.822 57.502 48.925 57.502 49.028 57.398 L 57.399 49.028 C 57.48 48.946 57.48 48.802 57.399 48.718 L 52.44 43.762 L 52.882 42.92 C 53.541 41.664 54.084 40.359 54.495 39.045 L 54.777 38.138 L 61.783 38.138 C 61.899 38.138 62 38.034 62 37.92 L 62 26.08 C 62 25.964 61.899 25.862 61.783 25.862 Z " fill-rule="evenodd" fill="rgb(26,116,186)"/></g></svg>