<?xml version="1.0" encoding="UTF-8"?>
<svg width="32px" height="40px" viewBox="0 0 32 40" version="1.1" xmlns="http://www.w3.org/2000/svg" xmlns:xlink="http://www.w3.org/1999/xlink">
    <!-- Generator: Sketch 55.2 (78181) - https://sketchapp.com -->
    <title>PDF </title>
    <desc>Created with Sketch.</desc>
    <g id="SEARCH" stroke="none" stroke-width="1" fill="none" fill-rule="evenodd">
        <g id="PDF-">
            <g id="Group-83" stroke="#A2A6AB">
                <path d="M9.7056632,0.5 L0.5,9.69408187 L0.5,39.5 L31.0789474,39.5 L31.0789474,0.5 L9.7056632,0.5 Z" id="Rectangle"></path>
                <polyline id="Rectangle-2" points="10.5263158 1.05263158 10.5263158 10.5263158 1.05263158 10.5263158"></polyline>
            </g>
            <path d="M12.137,26.696 C12.137,27.2466694 12.0436676,27.7226647 11.857,28.124 C11.6703324,28.5253353 11.3763353,28.8473321 10.975,29.09 C10.704332,29.2486675 10.3823352,29.3699996 10.009,29.454 C9.6356648,29.5380004 9.19700252,29.58 8.693,29.58 L7.321,29.58 L7.321,32.8 L6.159,32.8 L6.159,24.764 L5.389,24.764 L5.389,23.938 L8.581,23.938 C9.15966956,23.938 9.64033142,23.9776663 10.023,24.057 C10.4056686,24.1363337 10.7416652,24.2646658 11.031,24.442 C11.768337,24.8993356 12.137,25.6506614 12.137,26.696 Z M10.961,26.738 C10.961,26.3833316 10.9050006,26.0683347 10.793,25.793 C10.6809994,25.5176653 10.4990013,25.2960008 10.247,25.128 C9.88299818,24.8853321 9.33233702,24.764 8.595,24.764 L7.321,24.764 L7.321,28.796 L8.427,28.796 C8.81900196,28.796 9.17366508,28.7680003 9.491,28.712 C9.80833492,28.6559997 10.0743323,28.5533341 10.289,28.404 C10.5036677,28.2546659 10.6693327,28.0470013 10.786,27.781 C10.9026672,27.5149987 10.961,27.1673355 10.961,26.738 Z M20.509,28.306 C20.509,30.172676 20.0143383,31.4419966 19.025,32.114 C18.6983317,32.3380011 18.3133355,32.5083328 17.87,32.625 C17.4266645,32.7416672 16.8970031,32.8 16.281,32.8 L13.803,32.8 L13.803,24.764 L13.033,24.764 L13.033,23.938 L16.015,23.938 C16.5750028,23.938 17.0439981,23.9729996 17.422,24.043 C17.8000019,24.1130004 18.1616649,24.2273325 18.507,24.386 C19.16967,24.6846682 19.6689983,25.1419969 20.005,25.758 C20.3410017,26.3740031 20.509,27.2233279 20.509,28.306 Z M19.291,28.264 C19.291,27.405329 19.1813344,26.7216692 18.962,26.213 C18.7426656,25.7043308 18.3670027,25.3286679 17.835,25.086 C17.6109989,24.9833328 17.3450015,24.9040003 17.037,24.848 C16.7289985,24.7919997 16.3556689,24.764 15.917,24.764 L14.965,24.764 L14.965,31.974 L16.113,31.974 C16.6450027,31.974 17.1046647,31.9156672 17.492,31.799 C17.8793353,31.6823328 18.208332,31.4840014 18.479,31.204 C18.7776682,30.8959985 18.9876661,30.4970025 19.109,30.007 C19.2303339,29.5169975 19.291,28.9360034 19.291,28.264 Z M27.327,24.764 L23.449,24.764 L23.449,27.9 L26.585,27.9 L26.585,28.698 L23.449,28.698 L23.449,32.8 L22.287,32.8 L22.287,23.938 L27.327,23.938 L27.327,24.764 Z" id="PDF" fill="#A2A6AB" fill-rule="nonzero"></path>
        </g>
    </g>
</svg>