<?xml version="1.0" encoding="UTF-8"?>
<svg width="37px" height="35px" viewBox="0 0 37 35" version="1.1" xmlns="http://www.w3.org/2000/svg" xmlns:xlink="http://www.w3.org/1999/xlink">
    <!-- Generator: Sketch 51.3 (57544) - http://www.bohemiancoding.com/sketch -->
    <title>find_brokers/access/person</title>
    <desc>Created with Sketch.</desc>
    <defs></defs>
    <g id="find_brokers/access/person" stroke="none" stroke-width="1" fill="none" fill-rule="evenodd">
        <g fill="#009cde" fill-rule="nonzero" id="Fill-1">
            <path d="M35.3636819,33.0925534 C35.344528,32.9521529 35.325954,32.8119099 35.2958022,32.5816794 C35.2080307,31.9113197 35.1697175,31.6340063 35.1154005,31.2943095 C34.8267537,29.506228 34.2607805,28.1416243 33.2837298,27.0598183 C32.6358834,26.3424759 31.7779225,25.7943431 30.6187738,25.3040306 C29.6035445,24.8747241 28.7726026,24.5526641 26.9073039,23.8514165 C25.9021105,23.4735098 25.4387755,23.2977305 24.8945731,23.0860644 C23.9383655,22.7142402 23.4478338,22.507336 22.8929292,22.221089 C21.878864,21.6984984 21.1350478,19.8541048 21.4392648,18.7372836 C21.4910417,18.5468726 21.5531909,18.4383442 21.6797722,18.2549651 C23.2039702,15.8980363 24.0974479,13.2515596 24.4963011,10.1751531 C24.6972435,8.62151528 24.6854205,7.24435595 24.4292514,5.94141279 C23.9578978,3.53888444 22.4670856,2.11338073 20.0790776,1.79174838 C18.6264639,1.59625215 17.3315252,1.62420817 16.115677,1.90773408 C13.9810837,2.40496241 12.7517933,3.73107824 12.3367048,5.95127438 C11.9048405,8.25567306 12.139588,10.6399992 12.9580344,13.5127011 C13.515275,15.4697989 14.2760072,17.1353676 15.3094854,18.5726682 C15.4431414,18.757922 15.5253319,18.9077046 15.5692471,19.1347446 C15.767345,20.1871011 15.0004995,21.7869773 14.0330604,22.2355097 C13.543317,22.4623225 13.1277915,22.6292438 12.2736568,22.9543465 C11.9570151,23.0748537 11.8327644,23.1223909 11.6834388,23.180394 C11.1582242,23.3842942 10.7342861,23.5462298 9.79406302,23.903406 C7.94648473,24.6052809 7.11396856,24.9283647 6.11367584,25.3406163 C3.66885956,26.3488625 2.34453264,28.3140503 1.87895378,31.3316216 C1.82740689,31.664975 1.78779329,31.9517203 1.71069582,32.5347394 C1.67224873,32.8255221 1.6549594,32.9554133 1.63631805,33.092362 L1.63631805,33.3336999 C12.8789473,33.3342489 24.1210527,33.3342489 35.3636726,33.3336999 L35.3636819,33.0925534 Z M23.0070814,19.2159025 C23.0090303,19.2081847 23.0121007,19.197073 23.0161711,19.1821038 C23.0150606,19.1861809 23.0140127,19.1903381 23.0130268,19.1945735 L23.0070814,19.2159025 Z M23.632228,20.7349233 C24.1212573,20.9871885 24.5736037,21.1779863 25.4784889,21.5298537 C26.0152815,21.7386377 26.4745334,21.912868 27.4062849,22.2631644 C29.3598298,22.9975878 30.20442,23.3249377 31.2465251,23.7656091 C32.6067494,24.3409753 33.6572665,25.0121281 34.4882685,25.9322736 C35.7049882,27.2794448 36.3935596,28.9396419 36.7302584,31.0253972 C36.7881466,31.3874224 36.8279237,31.6753317 36.9120964,32.3182082 C36.9515841,32.6197327 36.9705318,32.7624063 36.9921023,32.9193093 L37,33.034764 L37,34.9995054 L36.1818821,34.9995473 C24.3937631,35.0001509 12.6062369,35.0001509 0.818117874,34.9995473 L0,34.9995054 L0,33.034764 L0.00782739966,32.9198217 C0.0293732472,32.7623861 0.0462921904,32.635538 0.083954151,32.3506916 C0.167687796,31.7174852 0.208514159,31.4219612 0.262499591,31.0728381 C0.811445771,27.5149351 2.47735973,25.0428613 5.49949819,23.7965266 C6.51837556,23.3766157 7.3605348,23.0497896 9.16925938,22.3626746 C10.158584,21.9868454 10.5800585,21.8258509 11.1002729,21.6238918 C11.2540126,21.5641742 11.3806438,21.5157262 11.6499279,21.4132428 C12.5201534,21.0820174 12.9109588,20.9250264 13.3551986,20.7192876 C13.6011077,20.605277 13.9631865,19.8790237 13.96858,19.5280161 C12.8244159,17.9285535 11.9902723,16.0973309 11.3864515,13.9766377 C10.5021051,10.8726305 10.2425774,8.2366126 10.7293133,5.63942296 C11.2645831,2.77640937 12.9760531,0.930134851 15.7505243,0.283854571 C17.1718771,-0.0475933924 18.6593312,-0.0797055672 20.2936041,0.140238788 C23.3767617,0.555498392 25.4255732,2.51455686 26.0338091,5.61478603 C26.3281669,7.11196638 26.3415348,8.66907423 26.1185823,10.3928882 C25.6890355,13.7060384 24.7153279,16.590156 23.0806632,19.1209194 C23.0347042,19.189458 23.0347042,19.189458 23.0185673,19.2127989 C22.9246853,19.5740752 23.3333317,20.5808894 23.632228,20.7349233 Z"></path>
        </g>
    </g>
</svg>