<?xml version="1.0" encoding="UTF-8" standalone="no"?>
<svg width="22px" height="29px" viewBox="0 0 22 29" version="1.1" xmlns="http://www.w3.org/2000/svg" xmlns:xlink="http://www.w3.org/1999/xlink">
    <!-- Generator: Sketch 49.1 (51147) - http://www.bohemiancoding.com/sketch -->
    <title>contact_card/phone_icon</title>
    <desc>Created with Sketch.</desc>
    <defs></defs>
    <g id="Assets---Raise-Finance,-Equity,-Debt" stroke="none" stroke-width="1" fill="none" fill-rule="evenodd">
        <g id="contact_card/phone_icon" transform="translate(-1.000000, -1.000000)" fill="#009cde">
            <g transform="translate(1.000000, 1.000000)" id="Fill-1">
                <path d="M18.1529388,27.0393 L14.5631952,20.837398 L17.128913,19.3600258 L20.7186566,25.5619278 L18.1529388,27.0393 Z M10.2797306,25.1881543 C7.28275904,22.0449121 5.28720078,18.3329541 5.26701099,18.295899 L5.24520603,18.2588439 C5.22259347,18.2225943 2.99767925,14.6435515 1.7677176,10.4829041 C0.666162981,6.75564078 1.36876747,5.18885297 3.26256922,3.8137852 L5.03038672,6.86922283 L6.59226843,9.56699783 C6.1553615,10.5038483 5.27347172,13.2225675 7.40712811,16.908748 C9.55532115,20.6199004 12.452959,21.3279758 13.4769848,21.462502 L15.7665063,25.4169295 L16.8163751,27.2318256 C14.6770656,28.1807593 12.9649719,28.0035391 10.2797306,25.1881543 Z M6.66333647,1.27873058 L10.2522725,7.47982702 L7.68736232,8.95719918 L4.0976187,2.75610274 L6.66333647,1.27873058 Z M21.8420162,25.002073 L18.176359,18.668867 C17.8517073,18.1082067 17.1305282,17.9156811 16.5684446,18.2387052 L13.8702818,19.7926043 C13.6990724,19.8908809 13.5625895,20.031046 13.4616406,20.1953775 C12.5466396,20.0334626 10.2563105,19.3294151 8.4933385,16.2828385 C6.73440451,13.2443173 7.32071584,11.0540365 7.66474976,10.2356014 C7.86745519,10.2356014 8.06773785,10.1824353 8.24783073,10.0785198 L10.9459935,8.52542629 C11.2173442,8.36834474 11.4119737,8.11540316 11.4935404,7.81171215 C11.5751072,7.50802115 11.53392,7.1914414 11.3764397,6.91997225 L7.71078247,0.587571736 C7.55410974,0.316102587 7.30052605,0.121965897 6.99606411,0.0406057071 C6.69160216,-0.0407544827 6.37421876,0.00113393181 6.10206047,0.15740994 L3.4047053,1.71130901 C3.13254701,1.86758502 2.93791749,2.1205266 2.85635077,2.4242176 C2.84181412,2.48060585 2.83535339,2.53699411 2.82808507,2.59338236 C0.406118561,4.24475254 -0.784271113,6.27070183 0.56521406,10.836539 C1.81213513,15.0551857 3.97163444,18.5826735 4.17030192,18.9024755 C4.34877961,19.233555 6.33222401,22.8633473 9.37119032,26.050089 C11.4152041,28.193648 13.0974169,29 14.7134072,29 C15.6970535,29 16.6572796,28.6987256 17.6578853,28.2194255 C17.8056745,28.2822581 17.9655776,28.3168966 18.1270959,28.3168966 C18.326571,28.3168966 18.5284688,28.2669527 18.7134072,28.1606206 L21.41157,26.6067215 C21.9736536,26.2828919 22.1674755,25.5627334 21.8420162,25.002073 Z"></path>
            </g>
        </g>
    </g>
</svg>