<?xml version="1.0" encoding="UTF-8" standalone="no"?><!-- Generator: Gravit.io --><svg xmlns="http://www.w3.org/2000/svg" xmlns:xlink="http://www.w3.org/1999/xlink" style="isolation:isolate" viewBox="0 0 24 24" width="24pt" height="24pt"><defs><clipPath id="_clipPath_KnJBYYXQ8UPzJllWYJPyBgdY5qsXqYBb"><rect width="24" height="24"/></clipPath></defs><g clip-path="url(#_clipPath_KnJBYYXQ8UPzJllWYJPyBgdY5qsXqYBb)"><g><g><g><g><path d=" M 18.369 4.662 C 18.369 3.914 18.072 3.196 17.543 2.667 L 15.702 0.826 C 15.173 0.297 14.455 0 13.707 0 L 7.099 0 C 6.288 0 5.629 0.659 5.629 1.471 L 5.629 6.194 L 18.371 6.194 L 18.371 4.662 L 18.369 4.662 Z " fill="rgb(0,156,222)"/><path d=" M 1.528 20.15 L 4.053 20.15 L 4.053 15.042 L 5.629 15.042 L 18.371 15.042 L 19.947 15.042 L 19.947 20.149 L 22.472 20.149 C 23.283 20.149 23.942 19.49 23.942 18.679 L 23.942 9.377 C 23.942 8.566 23.283 7.907 22.472 7.907 L 18.369 7.907 L 5.629 7.907 L 1.528 7.907 C 0.717 7.907 0.058 8.566 0.058 9.377 L 0.058 18.679 C 0.058 19.493 0.714 20.15 1.528 20.15 Z  M 3.854 9.917 C 4.707 9.917 5.398 10.608 5.398 11.461 C 5.398 12.314 4.707 13.005 3.854 13.005 C 3.001 13.005 2.31 12.314 2.31 11.461 C 2.31 10.608 3.001 9.917 3.854 9.917 Z " fill="rgb(0,156,222)"/><path d=" M 18.478 23.267 L 18.478 21.868 L 18.478 21.01 L 18.478 20.152 L 18.478 16.512 L 18.172 16.512 L 5.828 16.512 L 5.522 16.512 L 5.522 20.149 L 5.522 21.007 L 5.522 21.865 L 5.522 23.265 C 5.522 23.669 5.853 24 6.257 24 L 17.743 24 C 18.147 24.002 18.478 23.672 18.478 23.267 Z  M 8.814 19.522 L 15.186 19.522 C 15.556 19.522 15.863 19.794 15.914 20.15 C 15.919 20.184 15.922 20.221 15.922 20.257 C 15.922 20.664 15.593 20.993 15.186 20.993 L 8.814 20.993 C 8.407 20.993 8.078 20.664 8.078 20.257 C 8.078 20.221 8.081 20.186 8.086 20.15 C 8.137 19.794 8.444 19.522 8.814 19.522 Z " fill="rgb(0,156,222)"/></g></g></g></g></g></svg>