<?xml version="1.0" encoding="UTF-8" standalone="no"?><!-- Generator: Gravit.io --><svg xmlns="http://www.w3.org/2000/svg" xmlns:xlink="http://www.w3.org/1999/xlink" style="isolation:isolate" viewBox="0 0 64 64" width="64pt" height="64pt"><defs><clipPath id="_clipPath_behyAzK7GcuFEabs4khiFLcEh2dE9pmc"><rect width="64" height="64"/></clipPath></defs><g clip-path="url(#_clipPath_behyAzK7GcuFEabs4khiFLcEh2dE9pmc)"><g><path d=" M 40.709 43.371 C 44.104 40.739 46.301 36.621 46.301 31.987 C 46.301 27.376 44.125 23.277 40.765 20.643 C 47.32 22.472 53.368 26.341 58.355 31.997 C 53.355 37.672 47.285 41.549 40.709 43.371 Z  M 5.643 31.997 C 10.629 26.341 16.677 22.472 23.235 20.645 C 19.872 23.277 17.696 27.376 17.696 31.987 C 17.696 36.621 19.896 40.739 23.291 43.371 C 16.712 41.549 10.643 37.672 5.643 31.997 Z  M 31.997 44.099 C 25.36 44.099 19.957 38.664 19.957 31.987 C 19.957 25.307 25.36 19.875 31.997 19.875 C 38.64 19.875 44.04 25.307 44.04 31.987 C 44.04 38.664 38.64 44.099 31.997 44.099 Z  M 60.712 31.264 C 53.051 22.171 42.851 17.165 32 17.165 C 21.147 17.165 10.949 22.171 3.285 31.264 L 2.667 31.997 L 3.285 32.733 C 10.949 41.829 21.147 46.835 32 46.835 C 42.851 46.835 53.051 41.829 60.712 32.733 L 61.333 31.997 L 60.712 31.264 Z " fill-rule="evenodd" fill="rgb(26,116,186)"/><path d=" M 32 35.187 C 30.056 35.187 28.477 33.605 28.477 31.661 C 28.477 29.717 30.056 28.139 32 28.139 C 33.944 28.139 35.523 29.717 35.523 31.661 C 35.523 33.605 33.944 35.187 32 35.187 Z  M 32 25.931 C 28.84 25.931 26.269 28.501 26.269 31.661 C 26.269 34.821 28.84 37.395 32 37.395 C 35.16 37.395 37.731 34.821 37.731 31.661 C 37.731 28.501 35.16 25.931 32 25.931 Z " fill-rule="evenodd" fill="rgb(26,116,186)"/></g></g></svg>