<?xml version="1.0" encoding="UTF-8" standalone="no"?>
<svg width="42px" height="43px" viewBox="0 0 42 43" version="1.1" xmlns="http://www.w3.org/2000/svg" xmlns:xlink="http://www.w3.org/1999/xlink">
    <!-- Generator: Sketch 49.1 (51147) - http://www.bohemiancoding.com/sketch -->
    <title>v1/quick_links</title>
    <desc>Created with Sketch.</desc>
    <defs></defs>
    <g id="Assets---HP" stroke="none" stroke-width="1" fill="none" fill-rule="evenodd">
        <g id="v1/quick_links" transform="translate(-1.000000, -1.000000)" fill="#9E812E">
            <g transform="translate(1.000000, 1.000000)">
                <path d="M23.4064,33.6648 L23.2834,35.8868 C24.1434,35.6758 24.9764,35.4028 25.7854,35.0798 L25.9174,32.7088 C25.1134,33.0898 24.2754,33.4138 23.4064,33.6648" id="Fill-1"></path>
                <path d="M25.9161,27.6067 C25.2501,28.6597 24.4561,29.6287 23.5791,30.5277 L23.4091,33.6057 C24.3521,32.8427 25.2231,32.0057 26.0061,31.1007 L26.0941,29.5187 L26.7561,30.1487 C27.2381,29.5177 27.6921,28.8677 28.0951,28.1847 L27.7471,27.8537 L34.8051,27.5007 C35.2571,26.7597 35.6751,25.9967 36.0181,25.1927 L33.5621,25.3167 C33.2621,25.9097 32.9271,26.4837 32.5571,27.0337 C31.4371,26.6767 30.3071,26.3647 29.1651,26.0977 C29.2471,25.9107 29.3101,25.7157 29.3861,25.5267 L24.9461,25.7507 C24.3161,25.7817 23.8171,26.2377 23.7851,26.8117 L23.7571,27.3277 C24.4791,27.4097 25.2011,27.4877 25.9161,27.6067" id="Fill-3"></path>
                <path d="M17.629,9.4197 C15.717,9.3727 13.82,9.2057 11.947,8.9127 C13.37,6.6577 15.299,4.7077 17.629,3.2457 L17.629,9.4197 Z M17.629,17.1657 L9.27,17.1657 C9.405,14.9637 9.955,12.8397 10.865,10.8857 C13.09,11.2717 15.349,11.4897 17.629,11.5427 L17.629,17.1657 Z M17.629,24.9107 C15.348,24.9647 13.089,25.1827 10.863,25.5687 C9.955,23.6157 9.404,21.4917 9.271,19.2887 L17.629,19.2887 L17.629,24.9107 Z M17.629,33.2067 C15.297,31.7437 13.367,29.7967 11.944,27.5417 C13.818,27.2487 15.716,27.0817 17.629,27.0337 L17.629,33.2067 Z M6.28,28.8227 C7.396,28.4897 8.523,28.2027 9.661,27.9617 C10.971,30.2387 12.741,32.2527 14.872,33.8867 C11.485,33.0977 8.503,31.2937 6.28,28.8227 Z M4.883,27.0337 C3.364,24.7787 2.411,22.1337 2.22,19.2887 L7.09,19.2887 C7.218,21.6357 7.771,23.9017 8.687,26.0037 C7.404,26.2917 6.136,26.6347 4.883,27.0337 Z M4.882,9.4207 C6.137,9.8197 7.406,10.1637 8.69,10.4517 C7.772,12.5537 7.219,14.8197 7.09,17.1657 L2.22,17.1657 C2.411,14.3197 3.364,11.6757 4.882,9.4207 Z M14.874,2.5667 C12.745,4.2007 10.977,6.2167 9.667,8.4937 C8.526,8.2527 7.398,7.9647 6.28,7.6307 C8.504,5.1597 11.487,3.3557 14.874,2.5667 Z M19.81,11.5427 C22.222,11.4857 24.61,11.2427 26.96,10.8147 C27.895,12.7857 28.46,14.9347 28.603,17.1657 L19.81,17.1657 L19.81,11.5427 Z M19.81,3.0357 C22.3,4.5027 24.361,6.5067 25.865,8.8567 C23.871,9.1857 21.849,9.3697 19.81,9.4197 L19.81,3.0357 Z M31.158,7.6307 C30.16,7.9297 29.151,8.1867 28.133,8.4117 C26.857,6.2287 25.156,4.2917 23.119,2.7067 C26.277,3.5567 29.058,5.2947 31.158,7.6307 Z M32.557,9.4207 C34.075,11.6747 35.027,14.3197 35.219,17.1657 L30.783,17.1657 C30.647,14.7847 30.075,12.4897 29.13,10.3647 C30.283,10.0947 31.426,9.7807 32.557,9.4207 Z M21.475,32.3927 C20.942,32.7907 20.391,33.1697 19.81,33.5117 L19.81,27.0337 C20.464,27.0497 21.113,27.1047 21.765,27.1487 L21.789,26.7017 C21.823,26.0857 22.042,25.5217 22.39,25.0527 C21.532,24.9837 20.673,24.9317 19.81,24.9107 L19.81,19.2887 L28.607,19.2887 C28.52,20.7737 28.228,22.2187 27.78,23.6057 L30.077,23.4897 C30.458,22.1297 30.711,20.7277 30.787,19.2887 L35.219,19.2887 C35.126,20.6707 34.85,22.0047 34.42,23.2717 L36.728,23.1557 C37.182,21.5857 37.44,19.9367 37.44,18.2277 C37.44,8.1767 29.041,0.0007 18.719,0.0007 C8.397,0.0007 0,8.1767 0,18.2277 C0,28.2767 8.397,36.4537 18.719,36.4537 L18.725,36.4537 L18.731,36.4677 C18.741,36.4627 18.751,36.4577 18.761,36.4527 C18.908,36.4527 19.054,36.4457 19.2,36.4417 C19.221,36.4507 19.239,36.4617 19.26,36.4707 L19.274,36.4407 C19.945,36.4217 20.607,36.3617 21.259,36.2757 L21.475,32.3927 Z" id="Fill-5"></path>
                <path d="M29.9865,29.9866 C29.4025,30.5176 28.7805,31.0066 28.1235,31.4506 L29.7055,32.9576 C30.3505,32.5006 30.9595,31.9986 31.5395,31.4656 L29.9865,29.9866 Z" id="Fill-7"></path>
                <path d="M39.8497,42.6194 L41.5497,40.9994 L27.7467,27.8534 L39.9547,27.2424 L39.9537,27.2424 C40.3017,27.2244 40.6157,27.0784 40.8367,26.8324 C41.0317,26.6164 41.1297,26.3444 41.1147,26.0664 C41.0787,25.4444 40.4587,24.9804 39.8237,25.0014 L24.9467,25.7504 C24.3167,25.7814 23.8177,26.2384 23.7857,26.8114 L23.0007,40.9814 C22.9847,41.2924 23.1057,41.5874 23.3407,41.8114 C23.5587,42.0194 23.8477,42.1404 24.1587,42.1554 C24.8507,42.1774 25.4167,41.7134 25.4527,41.0934 L26.0937,29.5184 L39.8497,42.6194 Z" id="Fill-9"></path>
            </g>
        </g>
    </g>
</svg>