<?xml version="1.0" encoding="UTF-8" standalone="no"?>
<svg width="21px" height="20px" viewBox="0 0 21 20" version="1.1" xmlns="http://www.w3.org/2000/svg" xmlns:xlink="http://www.w3.org/1999/xlink">
    <!-- Generator: Sketch 49.1 (51147) - http://www.bohemiancoding.com/sketch -->
    <title>chart/reset_chart</title>
    <desc>Created with Sketch.</desc>
    <defs></defs>
    <g id="library" stroke="none" stroke-width="1" fill="none" fill-rule="evenodd">
        <g id="chart/reset_chart" transform="translate(-1.000000, -1.000000)" fill="#806734">
            <g transform="translate(1.000000, 1.000000)" id="Fill-1">
                <path d="M9.89432627,18.0949167 C5.47830742,18.0949167 1.88431449,14.4640833 1.88431449,9.99991667 C1.88431449,5.53658333 5.47830742,1.90491667 9.89432627,1.90491667 C12.5912638,1.90491667 15.1150565,3.30825 16.58349,5.55241667 L14.5041025,5.17158333 L14.1685312,7.04575 L18.9085783,7.91408333 L21.0003333,3.52825 L19.302689,2.70075 L18.3182367,4.76575 C16.5315465,1.84408333 13.3291908,-8.33333333e-05 9.89432627,-8.33333333e-05 C4.43861366,-8.33333333e-05 0.000333333333,4.48575 0.000333333333,9.99991667 C0.000333333333,15.5140833 4.43861366,19.9999167 9.89432627,19.9999167 C15.3492144,19.9999167 19.7883192,15.5140833 19.7883192,9.99991667 L17.9035135,9.99991667 C17.9035135,14.4640833 14.3103451,18.0949167 9.89432627,18.0949167"></path>
            </g>
        </g>
    </g>
</svg>