<?xml version="1.0" encoding="UTF-8" standalone="no"?><!-- Generator: Gravit.io --><svg xmlns="http://www.w3.org/2000/svg" xmlns:xlink="http://www.w3.org/1999/xlink" style="isolation:isolate" viewBox="0 0 64 64" width="64pt" height="64pt"><defs><clipPath id="_clipPath_1UotDWopO0yz5FvLHBQz0QcgRn43VtHP"><rect width="64" height="64"/></clipPath></defs><g clip-path="url(#_clipPath_1UotDWopO0yz5FvLHBQz0QcgRn43VtHP)"><path d=" M 3.835 53.232 L 46.318 53.232 L 60.165 53.232 L 60.165 10.768 L 3.835 10.768 L 3.835 53.232 Z  M 61.081 54.999 L 2.919 54.999 C 2.412 54.999 2 54.604 2 54.115 L 2 9.885 C 2 9.396 2.412 9.001 2.919 9.001 L 61.081 9.001 C 61.588 9.001 62 9.396 62 9.885 L 62 54.115 C 62 54.604 61.588 54.999 61.081 54.999 L 61.081 54.999 Z " fill-rule="evenodd" fill="rgb(0,156,222)"/><path d=" M 9.342 40.643 L 26.66 40.643 L 26.66 23.357 L 9.342 23.357 L 9.342 40.643 Z  M 27.328 42.001 L 8.671 42.001 C 8.3 42.001 8 41.695 8 41.322 L 8 22.678 C 8 22.305 8.3 21.999 8.671 21.999 L 27.328 21.999 C 27.699 21.999 27.999 22.305 27.999 22.678 L 27.999 41.322 C 27.999 41.695 27.699 42.001 27.328 42.001 L 27.328 42.001 Z " fill-rule="evenodd" fill="rgb(0,156,222)"/><path d=" M 9.399 18.636 L 54.601 18.636 L 54.601 16.365 L 9.399 16.365 L 9.399 18.636 Z  M 55.299 20 L 8.701 20 C 8.314 20 8 19.695 8 19.318 L 8 15.683 C 8 15.304 8.314 15.001 8.701 15.001 L 55.299 15.001 C 55.686 15.001 56 15.304 56 15.683 L 56 19.318 C 56 19.695 55.686 20 55.299 20 L 55.299 20 Z " fill-rule="evenodd" fill="rgb(0,156,222)"/><path d=" M 9.399 47.635 L 54.601 47.635 L 54.601 45.364 L 9.399 45.364 L 9.399 47.635 Z  M 55.299 48.999 L 8.701 48.999 C 8.314 48.999 8 48.696 8 48.32 L 8 44.682 C 8 44.305 8.314 44 8.701 44 L 55.299 44 C 55.686 44 56 44.305 56 44.682 L 56 48.32 C 56 48.696 55.686 48.999 55.299 48.999 L 55.299 48.999 Z " fill-rule="evenodd" fill="rgb(0,156,222)"/><path d=" M 32.417 25.637 L 54.585 25.637 L 54.585 23.363 L 32.417 23.363 L 32.417 25.637 Z  M 55.291 27.001 L 31.708 27.001 C 31.318 27.001 30.999 26.695 30.999 26.319 L 30.999 22.681 C 30.999 22.305 31.318 21.999 31.708 21.999 L 55.291 21.999 C 55.684 21.999 56 22.305 56 22.681 L 56 26.319 C 56 26.695 55.684 27.001 55.291 27.001 L 55.291 27.001 Z " fill-rule="evenodd" fill="rgb(0,156,222)"/><path d=" M 32.417 33.636 L 54.585 33.636 L 54.585 31.365 L 32.417 31.365 L 32.417 33.636 Z  M 55.291 35 L 31.708 35 C 31.318 35 30.999 34.695 30.999 34.318 L 30.999 30.683 C 30.999 30.304 31.318 30.001 31.708 30.001 L 55.291 30.001 C 55.684 30.001 56 30.304 56 30.683 L 56 34.318 C 56 34.695 55.684 35 55.291 35 L 55.291 35 Z " fill-rule="evenodd" fill="rgb(0,156,222)"/><path d=" M 32.417 40.637 L 54.585 40.637 L 54.585 38.363 L 32.417 38.363 L 32.417 40.637 Z  M 55.291 42.001 L 31.708 42.001 C 31.318 42.001 30.999 41.695 30.999 41.319 L 30.999 37.681 C 30.999 37.305 31.318 36.999 31.708 36.999 L 55.291 36.999 C 55.684 36.999 56 37.305 56 37.681 L 56 41.319 C 56 41.695 55.684 42.001 55.291 42.001 L 55.291 42.001 Z " fill-rule="evenodd" fill="rgb(0,156,222)"/></g></svg>