<svg width="16" height="16" viewBox="0 0 16 16" fill="none" xmlns="http://www.w3.org/2000/svg">

<path d="M6.97927 1C10.2815 1 12.9585 3.67701 12.9585 6.97927C12.9585 8.41506 12.3843 9.8025 11.5408 10.8332L14.9497 14.2426L14.2426 14.9497L10.832 11.5377C9.80127 12.3812 8.41506 12.9585 6.97927 12.9585C3.67701 12.9585 1 10.2815 1 6.97927C1 3.67701 3.67701 1 6.97927 1ZM7 2C4.23858 2 2 4.23858 2 7C2 9.76142 4.23858 12 7 12C9.76142 12 12 9.76142 12 7C12 4.23858 9.76142 2 7 2Z" fill="#4D4D4D"/>

</svg>
