<?xml version="1.0" encoding="UTF-8" standalone="no"?>
<svg width="14px" height="11px" viewBox="0 0 14 11" version="1.1" xmlns="http://www.w3.org/2000/svg" xmlns:xlink="http://www.w3.org/1999/xlink">
    <!-- Generator: Sketch 49.1 (51147) - http://www.bohemiancoding.com/sketch -->
    <title>social/share_email</title>
    <desc>Created with Sketch.</desc>
    <defs></defs>
    <g id="library" stroke="none" stroke-width="1" fill="none" fill-rule="evenodd">
        <g id="social/share_email" transform="translate(-1.000000, -1.000000)" fill="#009cde">
            <g transform="translate(1.000000, 1.000000)" id="envelope">
                <path d="M14,3.546875 L14,9.75 C14,10.4375 13.4375,11 12.75,11 L1.25,11 C0.5625,11 0,10.4375 0,9.75 L0,3.546875 C0.234375,3.8046875 0.5,4.03125 0.7890625,4.2265625 C2.0859375,5.109375 3.3984375,5.9921875 4.671875,6.921875 C5.328125,7.40625 6.140625,8 6.9921875,8 L7.0078125,8 C7.859375,8 8.671875,7.40625 9.328125,6.921875 C10.6015625,6 11.9140625,5.109375 13.21875,4.2265625 C13.5,4.03125 13.765625,3.8046875 14,3.546875 Z M14,1.25 C14,2.125 13.3515625,2.9140625 12.6640625,3.390625 C11.4453125,4.234375 10.21875,5.078125 9.0078125,5.9296875 C8.5,6.28125 7.640625,7 7.0078125,7 L6.9921875,7 C6.359375,7 5.5,6.28125 4.9921875,5.9296875 C3.78125,5.078125 2.5546875,4.234375 1.34375,3.390625 C0.7890625,3.015625 0,2.1328125 0,1.421875 C0,0.65625 0.4140625,0 1.25,0 L12.75,0 C13.4296875,0 14,0.5625 14,1.25 Z"></path>
            </g>
        </g>
    </g>
</svg>