<?xml version="1.0" encoding="UTF-8" standalone="no"?>
<svg width="15px" height="14px" viewBox="0 0 15 14" version="1.1" xmlns="http://www.w3.org/2000/svg" xmlns:xlink="http://www.w3.org/1999/xlink">
    <!-- Generator: Sketch 49.1 (51147) - http://www.bohemiancoding.com/sketch -->
    <title>social/share_linkedin</title>
    <desc>Created with Sketch.</desc>
    <defs></defs>
    <g id="library" stroke="none" stroke-width="1" fill="none" fill-rule="evenodd">
        <g id="social/share_linkedin" transform="translate(-1.000000, -1.000000)" fill="#009cde">
            <g transform="translate(1.000000, 1.000000)" id="linkedin">
                <path d="M3.40820313,4.54904632 L3.40820313,14 L0.185546875,14 L0.185546875,4.54904632 L3.40820313,4.54904632 Z M3.61328125,1.63079019 C3.62304688,2.53678474 2.91992188,3.26158038 1.796875,3.26158038 L1.77734375,3.26158038 C0.693359375,3.26158038 0,2.53678474 0,1.63079019 C0,0.705722071 0.72265625,0 1.81640625,0 C2.91992188,0 3.60351563,0.705722071 3.61328125,1.63079019 Z M8.3984375,5.89235175 C8.8223828,5.24515132 9.58716213,4.32970027 11.2988281,4.32970027 C13.4179688,4.32970027 15,5.68392371 15,8.58310627 L15,14 L11.7871094,14 L11.7871094,8.94550409 C11.7871094,7.67711172 11.3183594,6.80926431 10.15625,6.80926431 C9.26757813,6.80926431 8.74023438,7.39100817 8.50585938,7.95367847 C8.42773438,8.16348774 8.3984375,8.4400545 8.3984375,8.72615804 L8.3984375,14 L5.18554688,14 C5.22460938,5.4359673 5.18554688,4.54904632 5.18554688,4.54904632 L8.3984375,4.54904632 L8.3984375,5.89235175 Z"></path>
            </g>
        </g>
    </g>
</svg>