<?xml version="1.0" encoding="UTF-8" standalone="no"?>
<svg width="14px" height="14px" viewBox="0 0 14 14" version="1.1" xmlns="http://www.w3.org/2000/svg" xmlns:xlink="http://www.w3.org/1999/xlink">
    <!-- Generator: Sketch 49.1 (51147) - http://www.bohemiancoding.com/sketch -->
    <title>social/share_url</title>
    <desc>Created with Sketch.</desc>
    <defs></defs>
    <g id="library" stroke="none" stroke-width="1" fill="none" fill-rule="evenodd">
        <g id="social/share_url" transform="translate(-1.000000, -1.000000)" fill="#009cde">
            <g transform="translate(1.000000, 1.000000)" id="url">
                <path d="M12.3529412,10.2941176 C12.3529412,10.0710784 12.2671569,9.86519608 12.1127451,9.71078431 L10.3284314,7.92647059 C10.1740196,7.77205882 9.95955882,7.68627451 9.74509804,7.68627451 C9.49632353,7.68627451 9.29901961,7.78063725 9.12745098,7.96078431 C9.41053922,8.24387255 9.74509804,8.48406863 9.74509804,8.92156863 C9.74509804,9.37622549 9.37622549,9.74509804 8.92156863,9.74509804 C8.48406863,9.74509804 8.24387255,9.41053922 7.96078431,9.12745098 C7.78063725,9.29901961 7.67769608,9.49632353 7.67769608,9.75367647 C7.67769608,9.96813725 7.76348039,10.182598 7.91789216,10.3370098 L9.68504902,12.1127451 C9.83946078,12.2671569 10.0539216,12.3443627 10.2683824,12.3443627 C10.4828431,12.3443627 10.6973039,12.2671569 10.8517157,12.1213235 L12.1127451,10.8688725 C12.2671569,10.7144608 12.3529412,10.5085784 12.3529412,10.2941176 Z M6.32230392,4.24632353 C6.32230392,4.03186275 6.23651961,3.81740196 6.08210784,3.6629902 L4.31495098,1.8872549 C4.16053922,1.73284314 3.94607843,1.64705882 3.73161765,1.64705882 C3.51715686,1.64705882 3.30269608,1.73284314 3.14828431,1.87867647 L1.8872549,3.13112745 C1.73284314,3.28553922 1.64705882,3.49142157 1.64705882,3.70588235 C1.64705882,3.92892157 1.73284314,4.13480392 1.8872549,4.28921569 L3.67156863,6.07352941 C3.82598039,6.22794118 4.04044118,6.30514706 4.25490196,6.30514706 C4.50367647,6.30514706 4.70098039,6.21936275 4.87254902,6.03921569 C4.58946078,5.75612745 4.25490196,5.51593137 4.25490196,5.07843137 C4.25490196,4.62377451 4.62377451,4.25490196 5.07843137,4.25490196 C5.51593137,4.25490196 5.75612745,4.58946078 6.03921569,4.87254902 C6.21936275,4.70098039 6.32230392,4.50367647 6.32230392,4.24632353 Z M14,10.2941176 C14,10.9460784 13.7340686,11.5808824 13.2708333,12.0355392 L12.0098039,13.2879902 C11.5465686,13.7512255 10.9203431,14 10.2683824,14 C9.60784314,14 8.98161765,13.7426471 8.51838235,13.2708333 L6.75122549,11.495098 C6.2879902,11.0318627 6.03921569,10.4056373 6.03921569,9.75367647 C6.03921569,9.07598039 6.31372549,8.43259804 6.79411765,7.96078431 L6.03921569,7.20588235 C5.56740196,7.68627451 4.93259804,7.96078431 4.25490196,7.96078431 C3.60294118,7.96078431 2.96813725,7.70343137 2.50490196,7.24019608 L0.720588235,5.45588235 C0.24877451,4.98406863 0,4.36642157 0,3.70588235 C0,3.05392157 0.265931373,2.41911765 0.729166667,1.96446078 L1.99019608,0.712009804 C2.45343137,0.24877451 3.07965686,0 3.73161765,0 C4.39215686,0 5.01838235,0.257352941 5.48161765,0.729166667 L7.24877451,2.50490196 C7.7120098,2.96813725 7.96078431,3.59436275 7.96078431,4.24632353 C7.96078431,4.92401961 7.68627451,5.56740196 7.20588235,6.03921569 L7.96078431,6.79411765 C8.43259804,6.31372549 9.06740196,6.03921569 9.74509804,6.03921569 C10.3970588,6.03921569 11.0318627,6.29656863 11.495098,6.75980392 L13.2794118,8.54411765 C13.7512255,9.01593137 14,9.63357843 14,10.2941176 Z"></path>
            </g>
        </g>
    </g>
</svg>