<?xml version="1.0" encoding="UTF-8" standalone="no"?>
<svg width="13px" height="11px" viewBox="0 0 13 11" version="1.1" xmlns="http://www.w3.org/2000/svg" xmlns:xlink="http://www.w3.org/1999/xlink">
    <!-- Generator: Sketch 49.1 (51147) - http://www.bohemiancoding.com/sketch -->
    <title>social/share_twitter</title>
    <desc>Created with Sketch.</desc>
    <defs></defs>
    <g id="library" stroke="none" stroke-width="1" fill="none" fill-rule="evenodd">
        <g id="social/share_twitter" transform="translate(-1.000000, -3.000000)" fill="#009cde">
            <g transform="translate(1.000000, 3.000000)" id="twitter">
                <path d="M13,1.30625 C12.6370558,1.85625 12.1833756,2.34609375 11.6637056,2.74140625 C11.6719543,2.86171875 11.6719543,2.98203125 11.6719543,3.10234375 C11.6719543,6.771875 8.99111675,11 4.09137056,11 C2.58185279,11 1.17956853,10.5445313 0,9.75390625 C0.214467005,9.7796875 0.420685279,9.78828125 0.643401015,9.78828125 C1.88895939,9.78828125 3.03553299,9.35 3.95114213,8.60234375 C2.77982234,8.5765625 1.79822335,7.77734375 1.46002538,6.67734375 C1.625,6.703125 1.78997462,6.7203125 1.96319797,6.7203125 C2.20241117,6.7203125 2.44162437,6.6859375 2.6643401,6.62578125 C1.44352792,6.36796875 0.527918782,5.25078125 0.527918782,3.9015625 L0.527918782,3.8671875 C0.882614213,4.0734375 1.29505076,4.20234375 1.7322335,4.21953125 C1.01459391,3.72109375 0.544416244,2.8703125 0.544416244,1.9078125 C0.544416244,1.3921875 0.676395939,0.91953125 0.907360406,0.50703125 C2.21890863,2.19140625 4.19035533,3.29140625 6.40101523,3.41171875 C6.35977157,3.20546875 6.33502538,2.990625 6.33502538,2.77578125 C6.33502538,1.24609375 7.52284264,0 8.99936548,0 C9.76649746,0 10.4593909,0.33515625 10.946066,0.8765625 C11.5482234,0.75625 12.1256345,0.52421875 12.6370558,0.20625 C12.4390863,0.85078125 12.018401,1.3921875 11.465736,1.7359375 C12.0019036,1.67578125 12.5215736,1.52109375 13,1.30625 Z"></path>
            </g>
        </g>
    </g>
</svg>