<?xml version="1.0" encoding="UTF-8" standalone="no"?><!-- Generator: Gravit.io --><svg xmlns="http://www.w3.org/2000/svg" xmlns:xlink="http://www.w3.org/1999/xlink" style="isolation:isolate" viewBox="0 0 38 34" width="38pt" height="34pt"><defs><clipPath id="_clipPath_4r9ZWt7oMyW7ak8e7uz0SKyGITbsoOuu"><rect width="38" height="34"/></clipPath></defs><g clip-path="url(#_clipPath_4r9ZWt7oMyW7ak8e7uz0SKyGITbsoOuu)"><g><g><path d=" M 12.392 19.267 C 12.391 19.15 12.39 19.031 12.39 18.91 L 11.39 18.91 L 11.39 19.91 L 12.392 19.91 L 12.392 19.267 Z  M 12.395 18.479 C 12.398 18.246 12.403 18.008 12.411 17.761 L 12.424 17.787 L 12.597 14.032 C 12.668 12.484 12.659 11.447 12.532 10.571 C 12.156 7.983 10.89 6.372 9.204 5.589 L 9.451 5.14 L 8.57 4.665 L 8.1 5.538 L 8.101 5.539 L 8.045 5.642 L 8.044 5.642 L 7.917 5.878 L 7.917 5.878 L 7.66 6.354 L 8.54 6.83 L 8.712 6.243 L 8.885 6.323 C 10.376 7.007 11.469 8.357 11.81 10.699 C 11.953 11.681 11.942 12.685 11.807 15.103 C 10.797 12.702 9.747 11.636 7.422 11.199 L 7.207 11.159 L 7.238 10.59 L 6.238 10.59 L 6.238 12.486 L 7.238 12.486 L 7.144 11.902 C 8.926 12.135 9.931 12.927 10.708 14.442 L 11.734 16.442 C 11.73 16.532 11.725 16.619 11.721 16.708 L 11.711 16.918 L 11.786 17.115 C 11.981 17.623 12.181 18.077 12.395 18.479 Z  M 16.822 20.311 L 16.822 28.061 L 15.386 27.367 C 12.751 26.092 11.745 23.456 11.668 19.452 L 11.607 16.312 L 13.472 18.839 C 14.049 19.621 14.794 20.062 15.943 20.203 L 16.822 20.311 Z  M 22.367 16.79 L 22.378 16.801 L 22.378 16.779 L 23.356 15.801 L 22.378 15.801 L 22.378 11.644 L 23.356 11.644 L 22.378 10.666 L 22.378 10.644 L 22.367 10.655 L 22.356 10.644 L 22.356 10.666 L 21.378 11.644 L 22.356 11.644 L 22.356 15.801 L 21.378 15.801 L 22.356 16.779 L 22.356 16.801 L 22.367 16.79 Z  M 30.761 7.78 L 30.761 8.773 L 32.738 8.773 L 32.738 7.78 L 30.761 7.78 Z  M 31.738 8.773 L 31.761 8.773 L 31.761 7.78 L 31.738 7.78 L 31.738 8.773 Z  M 30.761 7.773 L 30.761 8.78 L 32.738 8.78 L 32.738 7.773 L 30.761 7.773 Z  M 27.648 11.235 L 27.648 12.23 L 29.625 12.23 L 29.625 11.235 L 27.648 11.235 Z  M 28.625 12.23 L 28.648 12.23 L 28.648 11.235 L 28.625 11.235 L 28.625 12.23 Z  M 27.648 11.23 L 27.648 12.235 L 29.625 12.235 L 29.625 11.23 L 27.648 11.23 Z  M 24.575 10.242 L 24.575 11.236 L 26.553 11.236 L 26.553 10.242 L 24.575 10.242 Z  M 25.553 11.236 L 25.575 11.236 L 25.575 10.242 L 25.553 10.242 L 25.553 11.236 Z  M 24.575 10.236 L 24.575 11.242 L 26.553 11.242 L 26.553 10.236 L 24.575 10.236 Z  M 21.378 8.935 L 21.378 9.93 L 23.356 9.93 L 23.356 8.935 L 21.378 8.935 Z  M 22.356 9.93 L 22.378 9.93 L 22.378 8.935 L 22.356 8.935 L 22.356 9.93 Z  M 21.378 8.93 L 21.378 9.935 L 23.356 9.935 L 23.356 8.93 L 21.378 8.93 Z  M 31.738 16.778 L 31.75 16.789 L 31.761 16.778 L 31.761 15.801 L 31.738 15.801 L 31.738 16.778 Z  M 31.75 16.789 L 31.761 16.801 L 31.761 16.778 L 32.738 15.801 L 31.761 15.801 L 31.761 10.255 L 32.738 10.255 L 31.761 9.277 L 31.761 9.255 L 31.75 9.266 L 31.738 9.255 L 31.738 9.277 L 30.761 10.255 L 31.738 10.255 L 31.738 15.801 L 30.761 15.801 L 31.738 16.778 L 31.738 16.801 L 31.75 16.789 Z  M 31.761 10.255 L 31.761 9.277 L 31.75 9.266 L 31.738 9.277 L 31.738 10.255 L 31.761 10.255 Z  M 28.625 16.778 L 28.636 16.789 L 28.648 16.778 L 28.648 15.801 L 28.625 15.801 L 28.625 16.778 Z  M 28.636 16.789 L 28.648 16.801 L 28.648 16.778 L 29.625 15.801 L 28.648 15.801 L 28.648 13.71 L 29.625 13.71 L 28.648 12.733 L 28.648 12.71 L 28.636 12.721 L 28.625 12.71 L 28.625 12.733 L 27.648 13.71 L 28.625 13.71 L 28.625 15.801 L 27.648 15.801 L 28.625 16.778 L 28.625 16.801 L 28.636 16.789 Z  M 25.564 16.79 L 25.575 16.801 L 25.575 16.779 L 26.553 15.801 L 25.575 15.801 L 25.575 12.836 L 26.553 12.836 L 25.575 11.858 L 25.575 11.836 L 25.564 11.847 L 25.553 11.836 L 25.553 11.858 L 24.575 12.836 L 25.553 12.836 L 25.553 15.801 L 24.575 15.801 L 25.553 16.779 L 25.553 16.801 L 25.564 16.79 Z  M 25.575 12.836 L 25.575 11.858 L 25.564 11.847 L 25.553 11.858 L 25.553 12.836 L 25.575 12.836 Z  M 26.784 19.088 C 28.796 19.088 30.687 19.843 32.088 21.167 C 33.501 22.5 34.315 24.316 34.315 26.253 C 34.315 28.191 33.502 30.006 32.088 31.341 C 30.685 32.664 28.794 33.419 26.784 33.419 C 24.774 33.419 22.883 32.663 21.48 31.341 C 20.066 30.006 19.253 28.191 19.253 26.253 C 19.253 24.316 20.067 22.5 21.48 21.168 C 22.881 19.844 24.772 19.088 26.784 19.088 Z  M 28.819 24.412 L 28.819 24.412 C 28.287 23.91 27.562 23.621 26.784 23.621 C 26.005 23.621 25.28 23.91 24.749 24.411 C 24.229 24.902 23.936 25.557 23.936 26.253 C 23.936 26.949 24.229 27.604 24.749 28.095 C 25.28 28.597 26.005 28.886 26.784 28.886 C 27.562 28.886 28.287 28.597 28.819 28.095 C 29.34 27.604 29.633 26.95 29.633 26.253 C 29.633 25.557 29.339 24.903 28.819 24.412 Z  M 18.459 19.466 L 18.459 2.561 L 35.539 2.561 L 35.539 19.466 L 18.459 19.466 Z " fill-rule="evenodd" fill="none" vector-effect="non-scaling-stroke" stroke-width="2" stroke="rgb(0,156,222)" stroke-linejoin="miter" stroke-linecap="butt" stroke-miterlimit="4"/><line x1="35.539" y1="20.311" x2="35.539" y2="34" vector-effect="non-scaling-stroke" stroke-width="2" stroke="rgb(0,156,222)" stroke-linejoin="miter" stroke-linecap="butt" stroke-miterlimit="4"/><line x1="18.459" y1="34" x2="35.539" y2="34" vector-effect="non-scaling-stroke" stroke-width="2" stroke="rgb(0,156,222)" stroke-linejoin="miter" stroke-linecap="butt" stroke-miterlimit="4"/><line x1="18.459" y1="20.311" x2="18.459" y2="34" vector-effect="non-scaling-stroke" stroke-width="2" stroke="rgb(0,156,222)" stroke-linejoin="miter" stroke-linecap="butt" stroke-miterlimit="4"/></g></g></g></svg>