<?xml version="1.0" encoding="UTF-8" standalone="no"?>
<svg width="64px" height="71px" viewBox="0 0 64 71" version="1.1" xmlns="http://www.w3.org/2000/svg" xmlns:xlink="http://www.w3.org/1999/xlink">
    <!-- Generator: Sketch 49.1 (51147) - http://www.bohemiancoding.com/sketch -->
    <title>ftse100/index_story/transparency</title>
    <desc>Created with Sketch.</desc>
    <defs></defs>
    <g id="library" stroke="none" stroke-width="1" fill="none" fill-rule="evenodd">
        <g id="ftse100/index_story/objective" transform="translate(-1.000000, -1.000000)">
            <g id="ftse100/index_story/transparency" transform="translate(1.000000, 1.000000)">
                <path d="M11.0594016,29.1539712 L10.3034967,29.1539712 C10.3034967,18.8543222 18.5588668,10.4672388 28.7188023,10.4672388 C38.8788779,10.4672388 47.1349006,18.8544655 47.1349006,29.1539712 C47.1349006,39.4526583 38.8788898,47.8390933 28.7188023,47.8390933 C18.5588549,47.8390933 10.3034967,39.4528015 10.3034967,29.1539712 L11.0594016,29.1539712 Z M11.0594016,29.1539712 L11.8153066,29.1539712 C11.8153066,38.6384717 19.4038013,46.3473232 28.7188023,46.3473232 C38.033965,46.3473232 45.6230907,38.6383085 45.6230907,29.1539712 C45.6230907,19.6687852 38.0339207,11.9590089 28.7188023,11.9590089 C19.4038457,11.9590089 11.8153066,19.668622 11.8153066,29.1539712 L11.0594016,29.1539712 Z M51.4069923,47.000457 L62.8663513,61.5587356 C64.6533882,63.828373 64.2879829,67.1603257 62.0503034,68.9768545 L60.9886523,69.8403169 C58.7381125,71.6682292 55.4221947,71.2932552 53.6261484,69.0118126 L42.4123339,54.7659546 C38.2377894,57.0750917 33.5612155,58.3063321 28.7188023,58.3063321 C12.8773932,58.3063321 0,45.2248045 0,29.1539712 C0,13.0823137 12.8774111,0 28.7188023,0 C44.5603376,0 57.4383973,13.0824606 57.4383973,29.1539712 C57.4383973,35.7009213 55.2900313,41.9262904 51.4069923,47.000457 Z M61.6723792,62.4738047 L49.4918014,46.9992703 L49.8571732,46.5410228 C53.7601246,41.6459599 55.9265874,35.5643495 55.9265874,29.1539712 C55.9265874,13.8967867 43.7153872,1.49177003 28.7188023,1.49177003 C13.7223752,1.49177003 1.51180988,13.8966271 1.51180988,29.1539712 C1.51180988,44.4104721 13.7223368,56.8145621 28.7188023,56.8145621 C33.5122083,56.8145621 38.1325076,55.5395753 42.2207038,53.1534749 L42.7939583,52.8188914 L54.8200831,68.0966961 C56.0950023,69.7161727 58.4366224,69.9809702 60.0274765,68.6888618 L61.0892755,67.8252794 C62.6937937,66.5227451 62.9586591,64.1073748 61.6724555,62.4739015 L62.2693653,62.0162701 L61.6723792,62.4738047 Z" id="Fill-1" fill="#009cde" fill-rule="nonzero"></path>
                <polyline id="Rectangle" stroke="#009cde" stroke-width="1.5" points="16 41.5882353 16 31 22 31 22 46"></polyline>
                <polyline id="Rectangle" stroke="#009cde" stroke-width="1.5" points="25 47 25 27 31 27 31 47"></polyline>
                <polyline id="Rectangle" stroke="#009cde" stroke-width="1.5" points="34 46 34 34 40 34 40 42.8847656"></polyline>
            </g>
        </g>
    </g>
</svg>