<svg xmlns="http://www.w3.org/2000/svg" width="20" height="17" viewBox="0 0 20 17">
  <path fill="#FFF" fill-rule="evenodd" d="M20,1.924375 C19.264375,2.250625 18.47375,2.47125 17.643125,2.570625 C18.490625,2.0625 19.14125,1.25875 19.4475,0.3 C18.655,0.770625 17.77625,1.111875 16.841875,1.29625 C16.09375,0.49875 15.026875,0 13.846875,0 C11.580625,0 9.743125,1.8375 9.743125,4.103125 C9.743125,4.425 9.779375,4.738125 9.85,5.038125 C6.439375,4.8675 3.41625,3.23375 1.3925,0.75125 C1.039375,1.3575 0.836875,2.0625 0.836875,2.814375 C0.836875,4.2375 1.56125,5.49375 2.661875,6.229375 C1.989375,6.208125 1.356875,6.02375 0.80375,5.71625 C0.803125,5.733125 0.803125,5.750625 0.803125,5.7675 C0.803125,7.75625 2.2175,9.414375 4.095,9.79125 C3.75,9.885 3.388125,9.935 3.01375,9.935 C2.749375,9.935 2.4925,9.909375 2.241875,9.861875 C2.76375,11.491875 4.279375,12.678125 6.075,12.71125 C4.670625,13.811875 2.90125,14.4675 0.97875,14.4675 C0.6475,14.4675 0.32125,14.448125 0,14.410625 C1.815625,15.574375 3.9725,16.25375 6.29,16.25375 C13.8375,16.25375 17.964375,10.00125 17.964375,4.579375 C17.964375,4.40125 17.960625,4.224375 17.9525,4.048125 C18.754375,3.47 19.45,2.746875 20,1.924375"/>
</svg>
