<?xml version="1.0" encoding="UTF-8" standalone="no"?>
<svg width="24px" height="24px" viewBox="0 0 24 24" version="1.1" xmlns="http://www.w3.org/2000/svg" xmlns:xlink="http://www.w3.org/1999/xlink">
    <!-- Generator: Sketch 49.1 (51147) - http://www.bohemiancoding.com/sketch -->
    <title>social/twitter_btn</title>
    <desc>Created with Sketch.</desc>
    <defs></defs>
    <g id="library" stroke="none" stroke-width="1" fill="none" fill-rule="evenodd">
        <g id="social/twitter_btn" transform="translate(-1.000000, -1.000000)">
            <g transform="translate(1.000000, 1.000000)">
                <path d="M24,12 C24,18.627 18.627,24 12,24 C5.373,24 0,18.627 0,12 C0,5.373 5.373,0 12,0 C18.627,0 24,5.373 24,12" id="Fill-1" fill="#26A7DF"></path>
                <path d="M5.90445,6.767925 C5.90445,6.767925 8.0787,9.649425 11.8572,9.848925 C11.8572,9.848925 11.3457,8.146425 12.91395,6.845175 C14.48295,5.540925 16.42395,6.644925 16.79595,7.136925 C16.79595,7.136925 17.89995,6.963675 18.6702,6.445425 C18.6702,6.445425 18.41895,7.440675 17.48745,8.039925 C17.48745,8.039925 18.57795,7.894425 19.0827,7.601925 C19.0827,7.601925 18.55095,8.453175 17.63445,9.104175 C17.63445,9.104175 18.0192,12.700425 14.92845,15.671925 C11.8377,18.643425 6.75195,18.025425 4.91745,16.469925 C4.91745,16.469925 7.4097,16.749675 9.1647,15.253425 C9.1647,15.253425 7.09095,15.213675 6.4932,13.278675 C6.4932,13.278675 7.5297,13.358925 7.7097,13.159425 C7.7097,13.159425 5.4762,12.620925 5.45595,10.287675 C5.45595,10.287675 6.13395,10.626675 6.75195,10.646925 C6.75195,10.646925 4.5987,9.091425 5.90445,6.767925" id="Fill-3" fill="#FFFFFF"></path>
            </g>
        </g>
    </g>
</svg>