<?xml version="1.0" encoding="UTF-8"?>
<svg width="32px" height="40px" viewBox="0 0 32 40" version="1.1" xmlns="http://www.w3.org/2000/svg" xmlns:xlink="http://www.w3.org/1999/xlink">
    <!-- Generator: Sketch 55.2 (78181) - https://sketchapp.com -->
    <title>TXT</title>
    <desc>Created with Sketch.</desc>
    <g id="SEARCH" stroke="none" stroke-width="1" fill="none" fill-rule="evenodd">
        <g id="TXT">
            <g id="Group-83" stroke="#A2A6AB">
                <path d="M9.7056632,0.5 L0.5,9.69408187 L0.5,39.5 L31.0789474,39.5 L31.0789474,0.5 L9.7056632,0.5 Z" id="Rectangle"></path>
                <polyline id="Rectangle-2" points="10.5263158 1.05263158 10.5263158 10.5263158 1.05263158 10.5263158"></polyline>
            </g>
            <path d="M12.333,24.764 L9.743,24.764 L9.743,32.8 L8.581,32.8 L8.581,24.764 L5.991,24.764 L5.991,23.938 L12.333,23.938 L12.333,24.764 Z M19.753,32.646 C19.6689996,32.7113337 19.5640006,32.7649998 19.438,32.807 C19.3119994,32.8490002 19.1790007,32.87 19.039,32.87 C18.768332,32.87 18.5373343,32.8046673 18.346,32.674 C18.1546657,32.5433327 17.9656676,32.3053351 17.779,31.96 L16.225,29.16 L14.237,32.8 L13.033,32.8 L15.665,28.208 L13.243,23.938 L14.517,23.938 L16.421,27.368 L18.255,23.938 L19.431,23.938 L16.967,28.334 L18.787,31.624 C18.8896672,31.7920008 18.9759997,31.906333 19.046,31.967 C19.1160004,32.027667 19.2163327,32.058 19.347,32.058 C19.421667,32.058 19.5009996,32.0440001 19.585,32.016 C19.6690004,31.9879999 19.7389997,31.9506669 19.795,31.904 L19.753,32.646 Z M26.809,24.764 L24.219,24.764 L24.219,32.8 L23.057,32.8 L23.057,24.764 L20.467,24.764 L20.467,23.938 L26.809,23.938 L26.809,24.764 Z" fill="#A2A6AB" fill-rule="nonzero"></path>
        </g>
    </g>
</svg>