<?xml version="1.0" encoding="UTF-8" standalone="no"?><!-- Generator: Gravit.io --><svg xmlns="http://www.w3.org/2000/svg" xmlns:xlink="http://www.w3.org/1999/xlink" style="isolation:isolate" viewBox="0 0 64 64" width="64pt" height="64pt"><defs><clipPath id="_clipPath_CJAlBTs73L5canEVSWrt4Kh4Nh1RdTLO"><rect width="64" height="64"/></clipPath></defs><g clip-path="url(#_clipPath_CJAlBTs73L5canEVSWrt4Kh4Nh1RdTLO)"><path d=" M 29.818 57.139 C 29.95 58.426 31.08 59.395 32.387 59.385 C 33.698 59.374 34.806 58.395 34.915 57.139 L 29.818 57.139 Z  M 26.407 54.542 L 38.897 54.542 L 38.897 46.978 L 26.407 46.978 L 26.407 54.542 Z  M 26.364 44.344 L 32.64 44.344 L 38.917 44.344 C 38.917 44.031 38.947 43.773 38.912 43.524 C 38.702 42.024 39.113 40.899 40.678 40.446 C 40.714 40.435 40.743 40.403 40.777 40.382 C 46.349 37 49.026 29.436 46.852 23.221 C 44.145 15.481 35.63 11.428 27.848 14.169 C 21.603 16.368 16.79 22.577 17.763 29.462 C 18.473 34.487 20.772 38.439 25.343 40.816 C 26.074 41.196 26.399 41.703 26.369 42.507 C 26.347 43.099 26.364 43.693 26.364 44.344 Z  M 31.696 62 C 31.621 61.955 31.552 61.888 31.471 61.869 C 29.119 61.318 27.71 59.851 27.253 57.451 C 27.235 57.354 27.214 57.258 27.187 57.124 C 26.538 57.124 25.89 57.134 25.243 57.122 C 24.294 57.104 23.818 56.616 23.808 55.624 C 23.794 54.311 23.804 52.997 23.804 51.683 C 23.804 48.937 23.796 46.19 23.813 43.444 C 23.815 43.062 23.715 42.847 23.378 42.646 C 18.892 39.974 16.374 35.915 15.417 30.829 C 13.544 20.873 20.992 13.115 28.793 11.237 C 37.796 9.07 46.283 14.394 49.095 22.023 C 51.791 29.339 49.045 37.99 42.606 42.194 C 41.694 42.79 41.437 43.367 41.454 44.393 C 41.514 48.034 41.478 51.677 41.477 55.32 C 41.477 56.736 41.092 57.124 39.69 57.124 C 38.984 57.125 38.278 57.124 37.533 57.124 C 37.387 58.3 36.987 59.343 36.207 60.197 C 35.324 61.163 34.248 61.772 32.929 61.887 C 32.869 61.892 32.815 61.961 32.759 62 L 31.696 62 Z " fill-rule="evenodd" fill="rgb(26,116,186)"/><path d=" M 31.381 2 C 32.475 2.388 32.62 2.605 32.62 3.847 C 32.62 4.463 32.633 5.08 32.617 5.696 C 32.596 6.483 32.097 6.997 31.38 7 C 30.668 7.003 30.17 6.49 30.146 5.694 C 30.127 5.059 30.179 4.42 30.133 3.788 C 30.068 2.887 30.386 2.274 31.266 2 L 31.381 2 Z " fill-rule="evenodd" fill="rgb(26,116,186)"/><path d=" M 6.375 26.798 C 6.762 25.96 7.419 25.674 8.325 25.767 C 8.915 25.828 9.518 25.767 10.114 25.781 C 10.839 25.799 11.343 26.273 11.373 26.939 C 11.406 27.648 10.942 28.197 10.2 28.23 C 9.355 28.268 8.506 28.24 7.659 28.24 C 6.98 28.241 6.7 27.721 6.375 27.26 L 6.375 26.798 Z " fill-rule="evenodd" fill="rgb(26,116,186)"/><path d=" M 57.625 27.248 C 57.206 28.105 56.483 28.313 55.588 28.235 C 55.034 28.187 54.472 28.241 53.914 28.222 C 53.114 28.195 52.619 27.709 52.625 26.988 C 52.631 26.27 53.147 25.787 53.938 25.775 C 54.535 25.766 55.136 25.817 55.728 25.763 C 56.666 25.679 57.32 25.987 57.625 26.903 L 57.625 27.248 Z " fill-rule="evenodd" fill="rgb(26,116,186)"/><path d=" M 50.125 44.737 C 49.91 45.008 49.718 45.368 49.425 45.587 C 49.077 45.847 48.634 45.783 48.316 45.485 C 47.73 44.934 47.165 44.358 46.626 43.759 C 46.257 43.348 46.311 42.724 46.684 42.332 C 47.051 41.946 47.684 41.871 48.087 42.243 C 48.69 42.8 49.258 43.398 49.814 44.003 C 49.95 44.151 49.986 44.395 50.125 44.737 Z " fill-rule="evenodd" fill="rgb(26,116,186)"/><path d=" M 16.363 13.25 C 16.229 13.175 15.933 13.072 15.719 12.878 C 15.202 12.407 14.715 11.9 14.229 11.394 C 13.766 10.913 13.76 10.282 14.193 9.835 C 14.62 9.395 15.275 9.382 15.75 9.834 C 16.294 10.352 16.829 10.881 17.343 11.429 C 17.664 11.772 17.7 12.196 17.507 12.62 C 17.319 13.032 16.981 13.233 16.363 13.25 Z " fill-rule="evenodd" fill="rgb(26,116,186)"/><path d=" M 17.625 43.271 C 17.568 43.38 17.485 43.67 17.302 43.87 C 16.806 44.411 16.28 44.926 15.744 45.428 C 15.277 45.865 14.658 45.849 14.22 45.429 C 13.789 45.014 13.746 44.387 14.181 43.913 C 14.699 43.347 15.256 42.814 15.815 42.288 C 16.16 41.964 16.591 41.923 17.011 42.117 C 17.412 42.302 17.633 42.638 17.625 43.271 Z " fill-rule="evenodd" fill="rgb(26,116,186)"/><path d=" M 47.416 13.25 C 47.136 13.045 46.778 12.877 46.561 12.602 C 46.296 12.264 46.315 11.807 46.611 11.487 C 47.18 10.87 47.775 10.27 48.414 9.724 C 48.845 9.355 49.462 9.467 49.834 9.874 C 50.196 10.269 50.237 10.836 49.86 11.242 C 49.322 11.821 48.749 12.37 48.165 12.905 C 48.004 13.052 47.751 13.101 47.416 13.25 Z " fill-rule="evenodd" fill="rgb(26,116,186)"/><path d=" M 32.675 25.191 L 32.675 28.631 C 32.675 32.957 32.674 37.283 32.676 41.61 C 32.676 42.266 32.564 42.861 31.854 43.152 C 31.148 43.442 30.345 43.065 30.163 42.336 C 30.093 42.057 30.08 41.758 30.08 41.468 C 30.075 35.232 30.076 28.996 30.076 22.763 C 30.031 22.747 29.976 22.717 29.967 22.727 C 28.063 24.789 26.567 27.042 26.426 29.933 C 26.32 32.098 26.972 34.079 27.97 35.968 C 28.38 36.744 28.864 37.483 29.326 38.232 C 29.77 38.954 29.663 39.687 29.038 40.086 C 28.416 40.482 27.66 40.291 27.189 39.596 C 25.578 37.221 24.333 34.693 23.973 31.831 C 23.548 28.452 24.523 25.415 26.629 22.763 C 27.784 21.308 29.137 19.998 30.456 18.673 C 31.19 17.936 32.294 18.199 32.587 19.177 C 33.202 21.227 34.422 22.95 35.554 24.732 C 36.506 26.231 37.515 27.725 38.22 29.338 C 39.706 32.736 38.549 35.58 35.916 38.08 C 35.422 38.549 34.654 38.509 34.178 38.068 C 33.674 37.601 33.644 36.888 34.12 36.331 C 34.438 35.957 34.789 35.609 35.098 35.228 C 36.341 33.695 36.699 31.979 35.816 30.21 C 34.943 28.458 33.879 26.797 32.898 25.096 C 32.823 25.128 32.749 25.159 32.675 25.191 Z " fill-rule="evenodd" fill="rgb(26,116,186)"/></g></svg>