<?xml version="1.0" encoding="UTF-8" standalone="no"?><!-- Generator: Gravit.io --><svg xmlns="http://www.w3.org/2000/svg" xmlns:xlink="http://www.w3.org/1999/xlink" style="isolation:isolate" viewBox="0 0 64 64" width="64pt" height="64pt"><defs><clipPath id="_clipPath_X6mrziAiSjs0EN1yjqa2jBRihWgpXrjy"><rect width="64" height="64"/></clipPath></defs><g clip-path="url(#_clipPath_X6mrziAiSjs0EN1yjqa2jBRihWgpXrjy)"><g><g><g><path d=" M 32.002 3.577 L 22.73 22.292 L 2 25.289 L 17.001 39.857 L 13.457 60.423 L 30.423 51.539 L 30.423 48.033 L 17.595 54.751 L 20.345 38.774 L 8.692 27.456 L 24.798 25.125 L 32.002 10.585 L 39.205 25.125 L 55.311 27.456 L 47.378 35.158 L 51.841 35.158 L 62 25.289 L 41.27 22.292 L 32.002 3.577 Z " fill-rule="evenodd" fill="rgb(0,156,222)"/><path d=" M 33.579 43.053 L 52.528 43.053 L 52.528 39.895 L 33.579 39.895 L 33.579 43.053 Z " fill-rule="evenodd" fill="rgb(0,156,222)"/><path d=" M 33.579 49.369 L 52.528 49.369 L 52.528 46.211 L 33.579 46.211 L 33.579 49.369 Z " fill-rule="evenodd" fill="rgb(0,156,222)"/><path d=" M 33.579 55.685 L 52.528 55.685 L 52.528 52.527 L 33.579 52.527 L 33.579 55.685 Z " fill-rule="evenodd" fill="rgb(0,156,222)"/></g></g></g></g></svg>