<?xml version="1.0" encoding="UTF-8" standalone="no"?>
<svg width="12px" height="12px" viewBox="0 0 12 12" version="1.1" xmlns="http://www.w3.org/2000/svg" xmlns:xlink="http://www.w3.org/1999/xlink">
    <!-- Generator: Sketch 49.1 (51147) - http://www.bohemiancoding.com/sketch -->
    <title>others/whats_this</title>
    <desc>Created with Sketch.</desc>
    <defs></defs>
    <g id="library" stroke="none" stroke-width="1" fill="none" fill-rule="evenodd">
        <g id="others/whats_this" transform="translate(-1.000000, -1.000000)">
            <g transform="translate(1.000000, 1.000000)">
                <circle id="Oval-7" fill="#001eff" cx="6" cy="6" r="6"></circle>
                <path d="M6.71860465,2.67836257 C6.71860465,2.87329532 6.63721012,3.03703637 6.4744186,3.16959064 C6.31162709,3.30214491 6.11860577,3.36842105 5.89534884,3.36842105 C5.67209191,3.36842105 5.48139614,3.30214491 5.32325581,3.16959064 C5.16511549,3.03703637 5.08604651,2.87329532 5.08604651,2.67836257 C5.08604651,2.48342982 5.16511549,2.32163807 5.32325581,2.19298246 C5.48139614,2.06432684 5.67209191,2 5.89534884,2 C6.11860577,2 6.31162709,2.06432684 6.4744186,2.19298246 C6.63721012,2.32163807 6.71860465,2.48342982 6.71860465,2.67836257 Z M7.44418605,9.76608187 C7.34185995,9.82846035 7.20697758,9.8830407 7.03953488,9.92982456 C6.87209219,9.97660842 6.68139642,10 6.46744186,10 C6.05813749,10 5.75116381,9.90253509 5.54651163,9.70760234 C5.37906893,9.54385883 5.29534884,9.25926129 5.29534884,8.85380117 L5.29534884,5.11111111 L4.5,5.11111111 L4.5,4.26900585 L6.6627907,4.26900585 L6.6627907,8.83040936 C6.6627907,9.07992327 6.77441749,9.20467836 6.99767442,9.20467836 C7.0720934,9.20467836 7.1604646,9.19103327 7.2627907,9.16374269 C7.36511679,9.13645211 7.44418577,9.10331404 7.5,9.06432749 L7.44418605,9.76608187 Z" id="i" fill="#FFFFFF"></path>
            </g>
        </g>
    </g>
</svg>
