<?xml version="1.0" encoding="UTF-8"?>
<svg width="32px" height="40px" viewBox="0 0 32 40" version="1.1" xmlns="http://www.w3.org/2000/svg" xmlns:xlink="http://www.w3.org/1999/xlink">
    <!-- Generator: Sketch 55.2 (78181) - https://sketchapp.com -->
    <title>XLS</title>
    <desc>Created with Sketch.</desc>
    <g id="SEARCH" stroke="none" stroke-width="1" fill="none" fill-rule="evenodd">
        <g id="XLS">
            <g id="Group-83" stroke="#A2A6AB">
                <path d="M9.7056632,0.5 L0.5,9.69408187 L0.5,39.5 L31.0789474,39.5 L31.0789474,0.5 L9.7056632,0.5 Z" id="Rectangle"></path>
                <polyline id="Rectangle-2" points="10.5263158 1.05263158 10.5263158 10.5263158 1.05263158 10.5263158"></polyline>
            </g>
            <path d="M12.907,32.646 C12.8229996,32.7113337 12.7180006,32.7649998 12.592,32.807 C12.4659994,32.8490002 12.3330007,32.87 12.193,32.87 C11.922332,32.87 11.6913343,32.8046673 11.5,32.674 C11.3086657,32.5433327 11.1196676,32.3053351 10.933,31.96 L9.379,29.16 L7.391,32.8 L6.187,32.8 L8.819,28.208 L6.397,23.938 L7.671,23.938 L9.575,27.368 L11.409,23.938 L12.585,23.938 L10.121,28.334 L11.941,31.624 C12.0436672,31.7920008 12.1299997,31.906333 12.2,31.967 C12.2700004,32.027667 12.3703327,32.058 12.501,32.058 C12.575667,32.058 12.6549996,32.0440001 12.739,32.016 C12.8230004,31.9879999 12.8929997,31.9506669 12.949,31.904 L12.907,32.646 Z M19.571,31.974 L19.459,32.8 L14.461,32.8 L14.461,23.938 L15.623,23.938 L15.623,31.974 L19.571,31.974 Z M26.361,30.49 C26.361,30.9380022 26.2793342,31.3159985 26.116,31.624 C25.9526659,31.9320015 25.7310014,32.1816657 25.451,32.373 C25.1709986,32.5643343 24.8490018,32.7043329 24.485,32.793 C24.1209982,32.8816671 23.7383353,32.926 23.337,32.926 C22.9076645,32.926 22.4876687,32.8840004 22.077,32.8 C21.6663313,32.7159996 21.2883351,32.5993341 20.943,32.45 L20.985,31.498 C21.3396684,31.6846676 21.7176647,31.8293328 22.119,31.932 C22.5203353,32.0346672 22.9216647,32.086 23.323,32.086 C23.9390031,32.086 24.4219983,31.9553346 24.772,31.694 C25.1220018,31.4326654 25.297,31.0640024 25.297,30.588 C25.297,30.195998 25.1873344,29.8880011 24.968,29.664 C24.7486656,29.4399989 24.4780016,29.2510008 24.156,29.097 C23.8339984,28.9429992 23.4816686,28.8006673 23.099,28.67 C22.7163314,28.5393327 22.3640016,28.376001 22.042,28.18 C21.7199984,27.983999 21.4493344,27.7320015 21.23,27.424 C21.0106656,27.1159985 20.901,26.7006693 20.901,26.178 C20.901,25.8326649 20.9593328,25.5270013 21.076,25.261 C21.1926673,24.9949987 21.3536656,24.764001 21.559,24.568 C21.8390014,24.297332 22.1773314,24.1036673 22.574,23.987 C22.9706687,23.8703328 23.4116642,23.812 23.897,23.812 C24.2050015,23.812 24.5316649,23.842333 24.877,23.903 C25.2223351,23.963667 25.530332,24.0406662 25.801,24.134 L25.759,25.016 C25.4696652,24.9133328 25.159335,24.8270004 24.828,24.757 C24.496665,24.6869997 24.1676683,24.652 23.841,24.652 C23.2343303,24.652 22.7700016,24.7756654 22.448,25.023 C22.1259984,25.2703346 21.965,25.6133311 21.965,26.052 C21.965,26.4346686 22.0746656,26.7356656 22.294,26.955 C22.5133344,27.1743344 22.7839984,27.3586659 23.106,27.508 C23.4280016,27.6573341 23.7803314,27.7973327 24.163,27.928 C24.5456686,28.0586673 24.8979984,28.2243323 25.22,28.425 C25.5420016,28.6256677 25.8126656,28.8869984 26.032,29.209 C26.2513344,29.5310016 26.361,29.9579973 26.361,30.49 Z" fill="#A2A6AB" fill-rule="nonzero"></path>
        </g>
    </g>
</svg>