<?xml version="1.0" encoding="UTF-8"?>
<svg width="32px" height="40px" viewBox="0 0 32 40" version="1.1" xmlns="http://www.w3.org/2000/svg" xmlns:xlink="http://www.w3.org/1999/xlink">
    <!-- Generator: Sketch 55.2 (78181) - https://sketchapp.com -->
    <title>XLSX</title>
    <desc>Created with Sketch.</desc>
    <g id="SEARCH" stroke="none" stroke-width="1" fill="none" fill-rule="evenodd">
        <g id="XLSX">
            <g id="Group-83" stroke="#A2A6AB">
                <path d="M9.7056632,0.5 L0.5,9.69408187 L0.5,39.5 L31.0789474,39.5 L31.0789474,0.5 L9.7056632,0.5 Z" id="Rectangle"></path>
                <polyline id="Rectangle-2" points="10.5263158 1.05263158 10.5263158 10.5263158 1.05263158 10.5263158"></polyline>
            </g>
            <path d="M9.66,32.668 C9.58799964,32.7240003 9.49800054,32.7699998 9.39,32.806 C9.28199946,32.8420002 9.1680006,32.86 9.048,32.86 C8.81599884,32.86 8.61800082,32.8040006 8.454,32.692 C8.28999918,32.5799994 8.1280008,32.3760015 7.968,32.08 L6.636,29.68 L4.932,32.8 L3.9,32.8 L6.156,28.864 L4.08,25.204 L5.172,25.204 L6.804,28.144 L8.376,25.204 L9.384,25.204 L7.272,28.972 L8.832,31.792 C8.92000044,31.9360007 8.9939997,32.0339997 9.054,32.086 C9.1140003,32.1380003 9.19999944,32.164 9.312,32.164 C9.37600032,32.164 9.44399964,32.1520001 9.516,32.128 C9.58800036,32.1039999 9.64799976,32.0720002 9.696,32.032 L9.66,32.668 Z M15.372,32.092 L15.276,32.8 L10.992,32.8 L10.992,25.204 L11.988,25.204 L11.988,32.092 L15.372,32.092 Z M21.192,30.82 C21.192,31.2040019 21.1220007,31.5279987 20.982,31.792 C20.8419993,32.0560013 20.6520012,32.2699992 20.412,32.434 C20.1719988,32.5980008 19.8960016,32.7179996 19.584,32.794 C19.2719984,32.8700004 18.9440017,32.908 18.6,32.908 C18.2319982,32.908 17.8720018,32.8720004 17.52,32.8 C17.1679982,32.7279996 16.8440015,32.6280006 16.548,32.5 L16.584,31.684 C16.8880015,31.8440008 17.2119983,31.9679996 17.556,32.056 C17.9000017,32.1440004 18.2439983,32.188 18.588,32.188 C19.1160026,32.188 19.5299985,32.0760011 19.83,31.852 C20.1300015,31.6279989 20.28,31.312002 20.28,30.904 C20.28,30.5679983 20.1860009,30.304001 19.998,30.112 C19.8099991,29.919999 19.5780014,29.7580007 19.302,29.626 C19.0259986,29.4939993 18.7240016,29.3720006 18.396,29.26 C18.0679984,29.1479994 17.7660014,29.0080008 17.49,28.84 C17.2139986,28.6719992 16.9820009,28.4560013 16.794,28.192 C16.6059991,27.9279987 16.512,27.5720022 16.512,27.124 C16.512,26.8279985 16.5619995,26.5660011 16.662,26.338 C16.7620005,26.1099989 16.8999991,25.9120008 17.076,25.744 C17.3160012,25.5119988 17.6059983,25.3460005 17.946,25.246 C18.2860017,25.1459995 18.6639979,25.096 19.08,25.096 C19.3440013,25.096 19.6239985,25.1219997 19.92,25.174 C20.2160015,25.2260003 20.4799988,25.2919996 20.712,25.372 L20.676,26.128 C20.4279988,26.0399996 20.1620014,25.9660003 19.878,25.906 C19.5939986,25.8459997 19.3120014,25.816 19.032,25.816 C18.512,25.816 18.1140014,25.9219989 17.838,26.134 C17.5619986,26.3460011 17.424,26.6399981 17.424,27.016 C17.424,27.3440016 17.5179991,27.6019991 17.706,27.79 C17.8940009,27.9780009 18.1259986,28.1359994 18.402,28.264 C18.6780014,28.3920006 18.9799984,28.5119994 19.308,28.624 C19.6360016,28.7360006 19.9379986,28.8779991 20.214,29.05 C20.4900014,29.2220009 20.7219991,29.4459986 20.91,29.722 C21.0980009,29.9980014 21.192,30.3639977 21.192,30.82 Z M27.888,32.668 C27.8159996,32.7240003 27.7260005,32.7699998 27.618,32.806 C27.5099995,32.8420002 27.3960006,32.86 27.276,32.86 C27.0439988,32.86 26.8460008,32.8040006 26.682,32.692 C26.5179992,32.5799994 26.3560008,32.3760015 26.196,32.08 L24.864,29.68 L23.16,32.8 L22.128,32.8 L24.384,28.864 L22.308,25.204 L23.4,25.204 L25.032,28.144 L26.604,25.204 L27.612,25.204 L25.5,28.972 L27.06,31.792 C27.1480004,31.9360007 27.2219997,32.0339997 27.282,32.086 C27.3420003,32.1380003 27.4279994,32.164 27.54,32.164 C27.6040003,32.164 27.6719996,32.1520001 27.744,32.128 C27.8160004,32.1039999 27.8759998,32.0720002 27.924,32.032 L27.888,32.668 Z" fill="#A2A6AB" fill-rule="nonzero"></path>
        </g>
    </g>
</svg>