<?xml version="1.0" encoding="UTF-8" standalone="no"?>
<svg width="24px" height="24px" viewBox="0 0 24 24" version="1.1" xmlns="http://www.w3.org/2000/svg" xmlns:xlink="http://www.w3.org/1999/xlink">
    <!-- Generator: Sketch 49.1 (51147) - http://www.bohemiancoding.com/sketch -->
    <title>social/youtube_btn</title>
    <desc>Created with Sketch.</desc>
    <defs></defs>
    <g id="library" stroke="none" stroke-width="1" fill="none" fill-rule="evenodd">
        <g id="social/youtube_btn" transform="translate(-1.000000, -1.000000)">
            <g transform="translate(1.000000, 1.000000)">
                <path d="M24,12 C24,18.627 18.627,24 12,24 C5.373,24 0,18.627 0,12 C0,5.373 5.373,0 12,0 C18.627,0 24,5.373 24,12" id="Fill-1" fill="#CC181E"></path>
                <path d="M10.5132,14.690925 L10.5132,9.293925 L14.64795,11.992425 L10.5132,14.690925 Z M19.0872,8.966175 C18.8592,8.108925 18.58245,7.579425 18.2547,7.277175 C17.92695,6.973425 17.24595,6.898425 11.9997,6.898425 C6.7542,6.898425 6.0732,6.973425 5.74695,7.277175 C5.4177,7.579425 5.1402,8.108925 4.91445,8.966175 C4.6857,9.824175 4.6617,11.992425 4.6617,11.992425 C4.6617,14.842425 5.16495,16.253925 5.8212,16.733925 C6.47745,17.213175 11.9997,17.086425 11.9997,17.086425 C11.9997,17.086425 17.52345,17.213175 18.17895,16.733925 C18.8352,16.253925 19.33845,14.842425 19.33845,11.992425 C19.33845,11.992425 19.31295,9.824175 19.0872,8.966175 Z" id="Fill-3" fill="#FFFFFF"></path>
            </g>
        </g>
    </g>
</svg>