<?xml version="1.0" encoding="UTF-8"?>
<svg width="32px" height="40px" viewBox="0 0 32 40" version="1.1" xmlns="http://www.w3.org/2000/svg" xmlns:xlink="http://www.w3.org/1999/xlink">
    <!-- Generator: Sketch 57.1 (83088) - https://sketch.com -->
    <title>ZIP</title>
    <desc>Created with Sketch.</desc>
    <g id="SEARCH" stroke="none" stroke-width="1" fill="none" fill-rule="evenodd">
        <g id="ZIP">
            <g id="Group-83" stroke="#A2A6AB">
                <path d="M9.7056632,0.5 L0.5,9.69408187 L0.5,39.5 L31.0789474,39.5 L31.0789474,0.5 L9.7056632,0.5 Z" id="Rectangle"></path>
                <polyline id="Rectangle-2" points="10.5263158 1.05263158 10.5263158 10.5263158 1.05263158 10.5263158"></polyline>
            </g>
            <path d="M12.04,32.174 L11.914,33 L6.356,33 L6.356,32.398 L10.556,24.964 L6.65,24.964 L6.65,24.138 L11.9,24.138 L11.9,24.74 L7.7,32.174 L12.04,32.174 Z M16.576,33 L13.566,33 L13.566,32.286 L14.49,32.286 L14.49,24.838 L13.566,24.838 L13.566,24.138 L16.576,24.138 L16.576,24.838 L15.652,24.838 L15.652,32.286 L16.576,32.286 L16.576,33 Z M24.724,26.896 C24.724,27.4466694 24.6306676,27.9226647 24.444,28.324 C24.2573324,28.7253353 23.9633353,29.0473321 23.562,29.29 C23.291332,29.4486675 22.9693352,29.5699996 22.596,29.654 C22.2226648,29.7380004 21.7840025,29.78 21.28,29.78 L19.908,29.78 L19.908,33 L18.746,33 L18.746,24.964 L17.976,24.964 L17.976,24.138 L21.168,24.138 C21.7466696,24.138 22.2273314,24.1776663 22.61,24.257 C22.9926686,24.3363337 23.3286652,24.4646658 23.618,24.642 C24.355337,25.0993356 24.724,25.8506614 24.724,26.896 Z M23.548,26.938 C23.548,26.5833316 23.4920006,26.2683347 23.38,25.993 C23.2679994,25.7176653 23.0860013,25.4960008 22.834,25.328 C22.4699982,25.0853321 21.919337,24.964 21.182,24.964 L19.908,24.964 L19.908,28.996 L21.014,28.996 C21.406002,28.996 21.7606651,28.9680003 22.078,28.912 C22.3953349,28.8559997 22.6613323,28.7533341 22.876,28.604 C23.0906677,28.4546659 23.2563327,28.2470013 23.373,27.981 C23.4896672,27.7149987 23.548,27.3673355 23.548,26.938 Z" fill="#A2A6AB" fill-rule="nonzero"></path>
        </g>
    </g>
</svg>